<svg id="Layer_1" data-name="Layer 1" xmlns="http://www.w3.org/2000/svg" viewBox="0 0 40.06 30"><defs><style>.cls-1{fill:#0072ce;}.cls-2{fill:#fff;}</style></defs><title>americanexpress-icon</title><rect class="cls-1" width="40.06" height="30" rx="2" ry="2"/><path class="cls-2" d="M37.26,17.33H35.49a.67.67,0,0,0-.39.07.31.31,0,0,0-.14.29.31.31,0,0,0,.21.3,1.12,1.12,0,0,0,.37,0h.53a1.54,1.54,0,0,1,1.1.33.52.52,0,0,1,.09.1Zm0,2.67a1.51,1.51,0,0,1-1.32.52H34.06v-.87h1.87a.55.55,0,0,0,.39-.1.36.36,0,0,0,.12-.26.33.33,0,0,0-.12-.27.49.49,0,0,0-.34-.09c-.91,0-2,0-2-1.25,0-.59.37-1.2,1.39-1.2h1.93v-.8h-1.8a2,2,0,0,0-1.22.33v-.33H31.59a1.85,1.85,0,0,0-1.16.33v-.33H25.68V16a2.54,2.54,0,0,0-1.31-.33H21.24V16a2.22,2.22,0,0,0-1.37-.33h-3.5l-.8.86-.75-.86H9.59v5.64h5.13l.83-.88.78.88h3.17V20h.31a3.31,3.31,0,0,0,1.35-.2v1.52h2.61V19.84h.13c.16,0,.18,0,.18.17v1.3H32a2.27,2.27,0,0,0,1.32-.36v.36h2.51a3.38,3.38,0,0,0,1.42-.26Zm-3.87-1.62a1.12,1.12,0,0,1,.29.86c0,.87-.55,1.28-1.53,1.28H30.26v-.87h1.88a.57.57,0,0,0,.4-.1.36.36,0,0,0,.12-.26.35.35,0,0,0-.12-.27.51.51,0,0,0-.35-.09c-.91,0-2,0-2-1.25,0-.59.37-1.2,1.39-1.2h1.95v.86H31.7a.67.67,0,0,0-.39.07.34.34,0,0,0,.07.59,1.11,1.11,0,0,0,.38,0h.52A1.58,1.58,0,0,1,33.38,18.38Zm-8.76-.25a.93.93,0,0,1-.48.08H23v-.91h1.19a1,1,0,0,1,.46.07.38.38,0,0,1,.2.36.44.44,0,0,1-.2.39Zm.59.5a1.06,1.06,0,0,1,.48.34,1.16,1.16,0,0,1,.16.74v.8h-1V20c0-.24,0-.6-.16-.79A.94.94,0,0,0,24,19H23v1.48H22v-4h2.24a2.42,2.42,0,0,1,1.17.19,1,1,0,0,1,.5.9A1.13,1.13,0,0,1,25.21,18.64Zm1.23-2.17h3.24v.84H27.4V18h2.22v.83H27.4v.8h2.27v.84H26.44v-4Zm-6.55,1.87H18.64v-1H19.9c.35,0,.59.14.59.5S20.26,18.34,19.89,18.34Zm-2.22,1.81L16.18,18.5l1.49-1.59Zm-3.85-.48H11.43v-.8h2.13V18H11.43v-.74h2.43l1.06,1.18Zm7.72-1.87c0,1.12-.84,1.36-1.69,1.36H18.64v1.36H16.75l-1.19-1.34-1.24,1.34H10.47v-4h3.9l1.19,1.33,1.23-1.33h3.1C20.67,16.47,21.54,16.68,21.54,17.8Zm-15.7-6L5.17,10.2l-.66,1.61H5.84Zm14.64-.64a.91.91,0,0,1-.48.08H18.81v-.9H20a1,1,0,0,1,.46.07.37.37,0,0,1,.2.36A.41.41,0,0,1,20.47,11.17Zm8.41.64-.67-1.61-.67,1.61h1.34ZM13.2,13.56h-1V10.39L10.8,13.56H9.94L8.53,10.39v3.17h-2l-.37-.9h-2l-.38.9H2.73l1.74-4H5.91l1.65,3.83V9.51H9.15l1.27,2.74,1.17-2.74H13.2Zm4,0H13.93v-4h3.24v.84H14.9v.73h2.22v.83H14.9v.81h2.27Zm4.57-3a1.14,1.14,0,0,1-.68,1.08,1.13,1.13,0,0,1,.48.34,1.16,1.16,0,0,1,.16.74v.8h-1V13a1.21,1.21,0,0,0-.15-.79,1,1,0,0,0-.71-.17h-1v1.47h-1v-4h2.23a2.3,2.3,0,0,1,1.18.19.94.94,0,0,1,.49.9Zm1.55,3h-1v-4h1Zm11.49,0H33.41l-1.84-3v3h-2l-.38-.9h-2l-.37.9H25.69a2,2,0,0,1-1.41-.45,2,2,0,0,1-.52-1.54A2.14,2.14,0,0,1,24.29,10a2,2,0,0,1,1.47-.47h.94v.87h-.92a.93.93,0,0,0-.75.24,1.33,1.33,0,0,0-.28.91,1.4,1.4,0,0,0,.27.95.94.94,0,0,0,.68.21h.44l1.37-3.18H29l1.64,3.82V9.51h1.48l1.71,2.82V9.51h1Zm-32.06.79H4.38l.37-.9h.84l.37.9H9.23v-.69l.29.69h1.69l.29-.7v.7h8.11V12.88h.16c.11,0,.14,0,.14.19v1.28H24.1V14a3.34,3.34,0,0,0,1.56.34h1.76l.38-.9h.84l.37.9h3.4V13.5l.51.85h2.72V8.71H33v.67l-.38-.67H29.81v.67l-.35-.67H25.72A3.36,3.36,0,0,0,24.1,9V8.71H21.52V9a1.6,1.6,0,0,0-1.1-.33H11l-.63,1.46L9.72,8.71h-3v.67l-.33-.67H3.9L2.72,11.39v3Z"/></svg>