<svg xmlns="http://www.w3.org/2000/svg" xmlns:xlink="http://www.w3.org/1999/xlink" width="221" height="30" viewBox="0 0 221 30">
    <defs>
        <rect id="a" width="40.055" height="30" rx="2"/>
        <path id="b" d="M12.074 30h25.98a2 2 0 0 0 2.001-2.007v-7.678s-9.882 6.69-27.98 9.685z"/>
    </defs>
    <g fill="none" fill-rule="evenodd">
        <g transform="translate(120.555)">
            <use fill="#FFF" xlink:href="#a"/>
            <rect width="39.055" height="29" x=".5" y=".5" stroke="#E6772F" rx="2"/>
            <use fill="#E7772F" xlink:href="#b"/>
        </g>
        <path fill="#1A1918" d="M126.384 15.263c-.337.274-.766.394-1.452.394h-.284v-3.276h.284c.686 0 1.099.112 1.452.4.365.298.584.758.584 1.233 0 .477-.22.953-.584 1.249zm-1.24-3.72h-1.556v4.954h1.547c.824 0 1.418-.179 1.94-.573.618-.467.985-1.172.985-1.903 0-1.463-1.198-2.479-2.915-2.479zM128.55 11.542h1.055v4.955h-1.056zM132.198 13.441c-.637-.213-.824-.355-.824-.623 0-.31.333-.547.79-.547.318 0 .58.116.858.399l.551-.66c-.455-.365-1-.55-1.595-.55-.961 0-1.694.61-1.694 1.416 0 .685.34 1.033 1.335 1.363.416.131.627.221.734.282.211.125.317.304.317.511 0 .403-.35.7-.824.7-.504 0-.911-.23-1.155-.663l-.683.603c.488.653 1.073.945 1.88.945 1.1 0 1.875-.672 1.875-1.628 0-.789-.36-1.146-1.565-1.548M134.096 14.02c0 1.458 1.254 2.587 2.868 2.587.455 0 .845-.082 1.326-.289V15.18c-.425.389-.797.542-1.28.542-1.066 0-1.822-.704-1.822-1.708 0-.949.78-1.7 1.776-1.7.502 0 .886.162 1.326.556v-1.137c-.464-.214-.845-.303-1.304-.303-1.605 0-2.89 1.152-2.89 2.59M146.874 14.869l-1.449-3.327h-1.155l2.303 5.08h.568l2.348-5.08h-1.146l-1.469 3.327M149.97 16.497h3.004v-.84h-1.944V14.32h1.87v-.84h-1.87v-1.099h1.944v-.839h-3.004v4.955M155.044 13.82h-.308v-1.498h.325c.662 0 1.017.253 1.017.736 0 .496-.355.763-1.034.763zm2.125-.816c0-.928-.698-1.462-1.921-1.462h-1.574v4.955h1.062v-1.992h.138l1.464 1.992h1.303l-1.71-2.088c.8-.15 1.238-.647 1.238-1.405z"/>
        <path fill="#E7772F" d="M144.42 14.032c0 1.427-1.268 2.583-2.833 2.583-1.564 0-2.832-1.156-2.832-2.583 0-1.426 1.268-2.583 2.832-2.583 1.565 0 2.832 1.157 2.832 2.583"/>
        <g transform="translate(180.835)">
            <rect width="40.055" height="30" fill="#0072CE" rx="2"/>
            <path fill="#FFF" d="M37.255 17.333h-1.769c-.176 0-.294.006-.392.073-.103.065-.142.163-.142.29 0 .153.086.257.212.302.102.035.212.046.374.046l.526.014c.53.013.885.104 1.101.325.04.031.063.066.09.1v-1.15zm0 2.666c-.235.343-.695.517-1.317.517h-1.874v-.867h1.867c.185 0 .314-.024.392-.1a.355.355 0 0 0 .115-.264.331.331 0 0 0-.118-.267c-.07-.062-.173-.09-.342-.09-.912-.03-2.049.028-2.049-1.252 0-.586.374-1.204 1.393-1.204h1.933v-.804H35.46c-.542 0-.936.13-1.215.33v-.33h-2.657c-.425 0-.923.105-1.16.33v-.33h-4.744v.33c-.378-.271-1.015-.33-1.309-.33h-3.13v.33c-.298-.288-.962-.33-1.367-.33h-3.503l-.801.863-.751-.863H9.59v5.642h5.133l.826-.877.778.877 3.165.003v-1.327h.31c.42.006.916-.01 1.353-.199v1.523h2.61v-1.47h.126c.16 0 .176.006.176.166v1.304h7.929c.503 0 1.03-.128 1.321-.361v.361h2.515c.523 0 1.034-.073 1.423-.26v-1.051zm-3.871-1.616c.189.195.29.44.29.857 0 .87-.546 1.276-1.525 1.276h-1.89v-.867h1.883c.184 0 .314-.024.396-.1a.358.358 0 0 0 .115-.264.346.346 0 0 0-.119-.267c-.074-.062-.176-.09-.345-.09-.908-.03-2.045.028-2.045-1.252 0-.586.37-1.204 1.388-1.204h1.946v.861h-1.78c-.177 0-.292.007-.39.073-.106.066-.145.163-.145.291 0 .153.09.256.212.301.102.036.212.046.378.046l.522.014c.527.013.889.104 1.109.325zm-8.759-.25c-.13.077-.29.084-.479.084h-1.179v-.908h1.195c.173 0 .346.003.463.073.126.065.201.19.201.363a.436.436 0 0 1-.2.389zm.587.504c.216.08.392.222.475.34.137.197.157.381.16.737v.802h-.974v-.506c0-.243.024-.603-.157-.791-.141-.145-.358-.18-.712-.18h-1.037v1.477h-.975v-4.044h2.24c.492 0 .85.022 1.169.191.306.184.498.437.498.898 0 .646-.432.975-.687 1.076zm1.226-2.165h3.24v.837h-2.274v.735h2.218v.825h-2.218v.804l2.273.004v.84h-3.24v-4.045zm-6.549 1.866h-1.254v-1.03H19.9c.35 0 .594.143.594.496 0 .35-.232.534-.605.534zm-2.221 1.81l-1.49-1.647 1.49-1.595v3.242zm-3.848-.475h-2.387v-.804h2.131v-.825h-2.13v-.735h2.433l1.061 1.178-1.108 1.186zm7.716-1.869c0 1.124-.842 1.356-1.69 1.356h-1.211v1.356h-1.887l-1.195-1.339-1.242 1.34h-3.845v-4.045h3.904l1.194 1.326 1.235-1.326H19.9c.77 0 1.636.213 1.636 1.332zM5.836 11.812L5.17 10.2l-.66 1.612h1.325zm14.635-.642c-.134.08-.292.084-.48.084h-1.18v-.898h1.196c.169 0 .345.007.46.073.126.058.204.184.204.357 0 .177-.075.319-.2.384zm8.411.642l-.671-1.612-.668 1.612h1.34zm-15.68 1.745h-.995l-.003-3.167-1.408 3.167h-.852l-1.411-3.17v3.17H6.559l-.373-.902H4.165l-.377.902H2.734l1.738-4.043h1.442l1.651 3.828V9.514h1.584l1.27 2.742 1.167-2.742h1.616v4.043zm3.966 0h-3.242V9.514h3.242v.842h-2.272v.728h2.218v.83h-2.218v.806h2.272v.837zm4.572-2.954c0 .644-.432.977-.684 1.077.212.08.394.223.48.34.137.202.16.381.16.742v.795h-.978l-.004-.51c0-.243.023-.593-.153-.788-.142-.142-.358-.173-.708-.173h-1.042v1.47h-.97V9.515h2.232c.496 0 .862.013 1.176.193.307.181.49.445.49.896zm1.553 2.954h-.99V9.514h.99v4.043zm11.49 0h-1.376l-1.84-3.035v3.035h-1.976l-.378-.902h-2.016l-.367.902h-1.135c-.472 0-1.07-.104-1.408-.448-.34-.343-.518-.808-.518-1.543 0-.6.106-1.148.523-1.58.314-.323.805-.472 1.474-.472h.94v.866h-.92c-.355 0-.555.052-.747.24-.166.17-.28.492-.28.915 0 .433.087.746.268.95.149.16.42.208.676.208h.436l1.368-3.18h1.454l1.644 3.825V9.514h1.477l1.707 2.816V9.514h.994v4.043zm-32.06.794H4.38l.374-.898h.837l.373.898h3.263v-.687l.291.69h1.694l.292-.7v.697h8.109l-.004-1.474h.157c.11.003.142.014.142.194v1.28h4.194v-.343c.338.18.864.343 1.557.343h1.764l.378-.898h.837l.37.898h3.4v-.853l.514.853h2.725V8.712H32.95v.666l-.377-.666h-2.767v.666l-.347-.666h-3.737c-.626 0-1.176.087-1.62.33v-.33h-2.58v.33c-.282-.25-.667-.33-1.096-.33h-9.422l-.632 1.456-.65-1.456H6.755v.666l-.326-.666H3.9l-1.176 2.681v2.958z"/>
        </g>
        <g transform="translate(60.28)">
            <rect width="40.055" height="30" fill="#006" rx="2"/>
            <path fill="#C00" d="M23.289 15.243c0 5.389-4.31 9.757-9.627 9.757-5.318 0-9.628-4.368-9.628-9.757 0-5.39 4.31-9.758 9.628-9.758 5.317 0 9.627 4.369 9.627 9.758"/>
            <path fill="#F90" d="M26.587 5.485a9.523 9.523 0 0 0-6.463 2.526 9.89 9.89 0 0 0-.972 1.033h1.945c.266.328.51.672.734 1.033h-3.413c-.204.332-.39.676-.555 1.034h4.523c.154.334.29.679.407 1.033h-5.338a9.818 9.818 0 0 0-.28 1.032h5.898a9.956 9.956 0 0 1-.28 5.166h-5.338c.118.354.254.7.408 1.034h4.523c-.166.356-.35.701-.556 1.033h-3.412c.222.36.468.705.734 1.033h1.945a9.697 9.697 0 0 1-.973 1.033A9.521 9.521 0 0 0 26.587 25c5.317 0 9.628-4.368 9.628-9.757 0-5.389-4.31-9.758-9.628-9.758"/>
            <path fill="#006" d="M11.413 16.311a1.774 1.774 0 0 0-.233-.017c-.592 0-.892.206-.892.613 0 .25.146.41.374.41.426 0 .733-.41.751-1.006zm.76 1.793h-.866l.02-.417c-.264.33-.616.487-1.095.487-.566 0-.955-.448-.955-1.1 0-.98.676-1.551 1.835-1.551.119 0 .27.011.426.03.032-.132.041-.188.041-.26 0-.267-.182-.367-.67-.367a3.443 3.443 0 0 0-1.107.182l.145-.905c.521-.156.865-.213 1.251-.213.898 0 1.373.408 1.372 1.18.002.207-.032.461-.084.797-.091.583-.286 1.833-.312 2.137zM8.84 18.104H7.794l.6-3.804-1.338 3.804h-.712l-.088-3.783-.63 3.783h-.978l.818-4.949h1.503l.09 2.77.917-2.77h1.672l-.808 4.95M27.879 16.311a1.766 1.766 0 0 0-.233-.017c-.593 0-.892.206-.892.613 0 .25.145.41.374.41.426 0 .733-.41.75-1.006zm.76 1.793h-.866l.02-.417c-.264.33-.617.487-1.095.487-.567 0-.955-.448-.955-1.1 0-.98.676-1.551 1.835-1.551.119 0 .27.011.426.03a1 1 0 0 0 .04-.26c0-.267-.182-.367-.67-.367a3.45 3.45 0 0 0-1.107.182c.012-.067.146-.905.146-.905.52-.156.864-.213 1.25-.213.899 0 1.374.408 1.373 1.18.002.207-.032.461-.085.797-.09.583-.285 1.833-.312 2.137zM16.819 18.043a2.36 2.36 0 0 1-.751.131c-.534 0-.826-.311-.826-.884-.008-.178.077-.646.143-1.073.06-.376.453-2.747.453-2.747h1.04l-.122.61h.627l-.141.967h-.63c-.12.765-.293 1.719-.295 1.845 0 .208.11.298.358.298a.84.84 0 0 0 .282-.038l-.138.891M20.004 18.01c-.357.111-.7.165-1.066.164-1.163-.002-1.77-.617-1.77-1.796 0-1.375.772-2.388 1.82-2.388.856 0 1.403.567 1.403 1.456 0 .295-.038.583-.128.99h-2.07c-.07.584.3.827.904.827.371 0 .707-.078 1.08-.253l-.173 1zm-.584-2.385c.006-.084.11-.719-.484-.719-.33 0-.567.256-.663.719h1.147zM12.8 15.352c0 .509.244.86.796 1.124.423.202.49.261.49.444 0 .25-.188.364-.601.364-.312 0-.602-.05-.937-.159l-.143.93c.237.052.45.1 1.087.119 1.103 0 1.613-.426 1.613-1.345 0-.553-.213-.878-.737-1.122-.438-.204-.489-.25-.489-.437 0-.218.174-.33.512-.33.205 0 .485.023.75.061l.15-.933a6.965 6.965 0 0 0-.92-.078c-1.17 0-1.574.618-1.57 1.362M25.087 14.096c.29 0 .562.076.934.267l.172-1.074c-.154-.061-.693-.42-1.15-.42-.699 0-1.29.353-1.706.933-.607-.204-.856.208-1.162.618l-.271.064c.02-.135.039-.269.033-.405h-.96c-.131 1.247-.364 2.508-.545 3.755l-.048.27h1.046c.174-1.149.27-1.885.328-2.383l.393-.221c.06-.222.243-.297.613-.288a4.568 4.568 0 0 0-.075.825c0 1.317.702 2.137 1.827 2.137.29 0 .539-.039.924-.145l.183-1.128c-.346.173-.63.254-.887.254-.608 0-.976-.455-.976-1.206 0-1.09.547-1.853 1.327-1.853M33.936 13.155l-.232 1.43c-.285-.381-.592-.657-.997-.657-.528 0-1.008.405-1.322 1.002-.438-.092-.89-.249-.89-.249v.004c.034-.333.05-.536.046-.606h-.96c-.131 1.247-.364 2.508-.545 3.755l-.048.27h1.046c.14-.928.249-1.7.328-2.312.358-.328.537-.613.897-.594a3.49 3.49 0 0 0-.253 1.306c0 1.006.502 1.67 1.262 1.67.383 0 .677-.134.964-.444l-.05.374h.99l.795-4.949h-1.03zm-1.307 4.02c-.355 0-.535-.268-.535-.794 0-.791.336-1.352.81-1.352.36 0 .554.277.554.788 0 .798-.342 1.358-.829 1.358z"/>
            <path fill="#FFF" d="M9.14 17.81H8.095l.6-3.804-1.338 3.805h-.712l-.088-3.783-.63 3.783H4.95l.817-4.95H7.27l.042 3.064 1.015-3.063h1.623L9.14 17.81M11.714 16.018a1.715 1.715 0 0 0-.233-.017c-.592 0-.892.206-.892.613 0 .25.146.41.375.41.425 0 .732-.41.75-1.006zm.76 1.793h-.866l.02-.417c-.264.33-.616.487-1.095.487-.567 0-.955-.45-.955-1.1 0-.98.676-1.551 1.835-1.551.119 0 .27.01.426.03.032-.132.04-.189.04-.26 0-.267-.181-.366-.67-.366a3.43 3.43 0 0 0-1.106.18l.145-.905c.52-.155.864-.213 1.251-.213.898 0 1.373.409 1.372 1.18a5.22 5.22 0 0 1-.084.798c-.091.582-.286 1.833-.313 2.137zM26.493 12.995l-.171 1.074c-.373-.19-.644-.267-.934-.267-.78 0-1.327.764-1.327 1.855 0 .75.368 1.204.975 1.204.258 0 .542-.08.888-.253l-.184 1.127c-.385.107-.634.146-.923.146-1.126 0-1.827-.82-1.827-2.137 0-1.77.97-3.006 2.354-3.006.457 0 .996.196 1.15.257M28.18 16.018a1.702 1.702 0 0 0-.233-.017c-.593 0-.892.206-.892.613 0 .25.146.41.374.41.426 0 .733-.41.75-1.006zm.76 1.793h-.866l.02-.417c-.264.33-.617.487-1.095.487-.567 0-.955-.45-.955-1.1 0-.98.675-1.551 1.835-1.551.118 0 .27.01.425.03.033-.132.041-.189.041-.26 0-.267-.181-.366-.67-.366a3.432 3.432 0 0 0-1.106.18l.145-.905c.52-.155.864-.213 1.25-.213.898 0 1.374.409 1.372 1.18.003.207-.031.463-.084.798-.09.582-.285 1.833-.312 2.137zM17.12 17.75c-.287.091-.51.13-.751.13-.535 0-.826-.31-.826-.883-.008-.179.077-.646.143-1.073.06-.377.453-2.747.453-2.747h1.04l-.122.609h.533l-.142.967h-.535c-.12.766-.293 1.72-.295 1.846 0 .208.11.298.358.298.12 0 .211-.012.282-.038l-.139.89M20.305 17.718c-.357.11-.702.163-1.066.163-1.163-.001-1.77-.617-1.77-1.796 0-1.376.772-2.39 1.818-2.39.858 0 1.405.568 1.405 1.458 0 .295-.038.583-.128.99h-2.07c-.07.584.3.827.904.827.371 0 .707-.078 1.08-.254l-.173 1.002zm-.584-2.387c.006-.084.11-.719-.483-.719-.331 0-.568.257-.664.719h1.147zM13.101 15.058c0 .51.244.86.796 1.124.423.202.489.262.489.445 0 .25-.187.364-.6.364a2.91 2.91 0 0 1-.937-.159l-.143.93c.237.052.449.1 1.087.119 1.103 0 1.613-.426 1.613-1.346 0-.553-.214-.877-.737-1.121-.438-.204-.489-.25-.489-.438 0-.217.174-.33.512-.33.205 0 .485.024.75.062l.15-.933a7.022 7.022 0 0 0-.92-.08c-1.17 0-1.574.62-1.57 1.363M34.472 17.81h-.989l.05-.374c-.287.31-.581.445-.964.445-.76 0-1.262-.664-1.262-1.67 0-1.34.779-2.468 1.7-2.468.406 0 .712.168.998.55l.232-1.431h1.031l-.796 4.949zm-1.542-.93c.487 0 .829-.558.829-1.355 0-.512-.195-.79-.554-.79-.474 0-.81.561-.81 1.353 0 .526.18.793.535.793zM29.881 13.786c-.13 1.246-.363 2.507-.545 3.754l-.047.27h1.045c.374-2.46.464-2.94 1.05-2.88.094-.505.268-.946.397-1.168-.437-.093-.682.158-1.002.634.025-.206.071-.406.063-.61h-.96M21.278 13.786c-.132 1.246-.364 2.507-.546 3.754l-.047.27h1.045c.375-2.46.464-2.94 1.05-2.88.094-.505.268-.946.397-1.168-.437-.093-.682.158-1.002.634.025-.206.072-.406.063-.61h-.96"/>
        </g>
        <g>
            <rect width="40.055" height="30" fill="#26337A" rx="2"/>
            <path fill="#FFF" d="M14.765 19.773l1.54-9.537h2.46l-1.539 9.537h-2.46M26.153 10.47a6.091 6.091 0 0 0-2.205-.4c-2.433 0-4.146 1.295-4.16 3.148-.016 1.37 1.222 2.135 2.155 2.59.959.468 1.281.767 1.277 1.184-.006.639-.765.932-1.473.932-.985 0-1.508-.144-2.318-.5l-.316-.152-.344 2.134c.573.266 1.637.497 2.741.509 2.586 0 4.266-1.279 4.286-3.258.009-1.087-.647-1.91-2.067-2.591-.86-.442-1.388-.735-1.382-1.183 0-.396.446-.82 1.41-.82a4.322 4.322 0 0 1 1.841.366l.221.109.334-2.068M29.43 16.392c.203-.548.98-2.666.98-2.666-.015.026.203-.552.327-.91l.166.823.57 2.753h-2.044zm3.035-6.146h-1.901c-.59 0-1.032.169-1.29.79l-3.655 8.74h2.585s.422-1.175.517-1.433l3.152.005c.074.333.3 1.429.3 1.429h2.284l-1.992-9.53zM12.701 10.244l-2.409 6.502-.258-1.321c-.448-1.523-1.846-3.174-3.409-4l2.204 8.34 2.604-.001 3.876-9.52H12.7"/>
            <path fill="#ED982D" d="M8.056 10.238H4.088l-.033.197c3.088.79 5.131 2.697 5.98 4.99l-.863-4.382c-.149-.605-.581-.784-1.116-.805"/>
        </g>
    </g>
</svg>
