<svg id="Layer_1" data-name="Layer 1" xmlns="http://www.w3.org/2000/svg" viewBox="0 0 40.06 30"><defs><style>.cls-1{fill:#fff;}.cls-2{fill:none;stroke:#e6772f;}.cls-3{fill:#e7772f;}.cls-4{fill:#1a1918;}</style></defs><title>discover-icon</title><rect id="a" class="cls-1" x="0.02" y="0.02" width="40.06" height="30" rx="2" ry="2"/><rect class="cls-2" x="0.52" y="0.52" width="39.06" height="29" rx="2" ry="2"/><path id="b" class="cls-3" d="M12.09,30h26a2,2,0,0,0,2-2h0V20.34S30.19,27,12.1,30Z"/><path class="cls-4" d="M5.85,15.28a2.15,2.15,0,0,1-1.45.39H4.11V12.4H4.4a2.11,2.11,0,0,1,1.45.4A1.61,1.61,0,0,1,6.43,14,1.64,1.64,0,0,1,5.85,15.28ZM4.61,11.56H3.05v5H4.6a3,3,0,0,0,1.94-.57,2.41,2.41,0,0,0,1-1.9c0-1.46-1.2-2.48-2.92-2.48Zm3.41,0H9.07v5H8Zm3.65,1.9c-.64-.21-.82-.35-.82-.62s.33-.55.79-.55a1.14,1.14,0,0,1,.86.4L13,12a2.5,2.5,0,0,0-1.6-.55A1.54,1.54,0,0,0,9.75,12.9c0,.69.34,1,1.34,1.36a4.14,4.14,0,0,1,.73.28.58.58,0,0,1,.32.51.75.75,0,0,1-.82.7,1.27,1.27,0,0,1-1.15-.66l-.68.6a2.17,2.17,0,0,0,1.88.94A1.69,1.69,0,0,0,13.23,15c0-.79-.36-1.15-1.57-1.55m1.9.58a2.7,2.7,0,0,0,2.87,2.59,3.15,3.15,0,0,0,1.33-.29V15.2a1.76,1.76,0,0,1-1.28.54A1.7,1.7,0,0,1,14.65,14a1.72,1.72,0,0,1,1.78-1.7,1.85,1.85,0,0,1,1.33.56V11.75a2.92,2.92,0,0,0-1.3-.3A2.74,2.74,0,0,0,13.56,14m12.78.85-1.45-3.33H23.74L26,16.64h.57L29,11.56H27.81l-1.47,3.33m3.1,1.63h3v-.84H30.5V14.34h1.87V13.5H30.5V12.4h1.94v-.84h-3v5m5.07-2.68H34.2v-1.5h.32c.66,0,1,.25,1,.74s-.35.76-1,.76ZM36.63,13c0-.93-.7-1.46-1.92-1.46H33.14v5H34.2v-2h.14l1.46,2h1.3L35.4,14.43A1.35,1.35,0,0,0,36.63,13Z"/><path class="cls-3" d="M23.89,14.05a2.72,2.72,0,0,1-2.83,2.58,2.72,2.72,0,0,1-2.83-2.58,2.72,2.72,0,0,1,2.83-2.58,2.72,2.72,0,0,1,2.83,2.58"/></svg>