<svg id="Layer_1" data-name="Layer 1" xmlns="http://www.w3.org/2000/svg" viewBox="0 0 40.06 30"><defs><style>.cls-1{fill:#006;}.cls-2{fill:#c00;}.cls-3{fill:#f90;}.cls-4{fill:#fff;}</style></defs><title>mastercard-icon</title><rect class="cls-1" x="0.08" width="40.06" height="30" rx="2" ry="2"/><path class="cls-2" d="M23.37,15.24a9.63,9.63,0,1,1-9.63-9.76,9.69,9.69,0,0,1,9.63,9.76"/><path class="cls-3" d="M26.67,5.49A9.52,9.52,0,0,0,20.21,8a9.89,9.89,0,0,0-1,1h1.94a10,10,0,0,1,.73,1H18.5a9.85,9.85,0,0,0-.56,1h4.52a9.85,9.85,0,0,1,.41,1H17.54a9.82,9.82,0,0,0-.28,1h5.9a10,10,0,0,1-.28,5.17H17.54a10.1,10.1,0,0,0,.41,1h4.52a9.85,9.85,0,0,1-.56,1H18.5a9.85,9.85,0,0,0,.73,1h1.94a9.7,9.7,0,0,1-1,1A9.52,9.52,0,0,0,26.67,25a9.76,9.76,0,0,0,0-19.52"/><path class="cls-1" d="M11.49,16.31l-.23,0c-.59,0-.89.21-.89.61a.37.37,0,0,0,.37.41C11.17,17.32,11.48,16.91,11.49,16.31Zm.76,1.79h-.87l0-.42a1.3,1.3,0,0,1-1.1.49,1,1,0,0,1-1-1.1c0-1,.68-1.55,1.84-1.55l.43,0a1,1,0,0,0,0-.26c0-.27-.18-.37-.67-.37a3.44,3.44,0,0,0-1.11.18l.15-.9A4.08,4.08,0,0,1,11.28,14c.9,0,1.37.41,1.37,1.18a5.25,5.25,0,0,1-.08.8c-.09.58-.29,1.83-.31,2.14Zm-3.33,0h-1l.6-3.8L7.14,18.1H6.43l-.09-3.78L5.71,18.1h-1l.82-4.95h1.5l.09,2.77.92-2.77H9.73L8.92,18.1m19-1.79-.23,0c-.59,0-.89.21-.89.61a.37.37,0,0,0,.37.41c.43,0,.73-.41.75-1Zm.76,1.79h-.87l0-.42a1.3,1.3,0,0,1-1.09.49,1,1,0,0,1-1-1.1c0-1,.68-1.55,1.84-1.55l.43,0a1,1,0,0,0,0-.26c0-.27-.18-.37-.67-.37a3.45,3.45,0,0,0-1.11.18l.15-.9A4.07,4.07,0,0,1,27.74,14c.9,0,1.37.41,1.37,1.18A5.15,5.15,0,0,1,29,16C28.94,16.55,28.75,17.8,28.72,18.1ZM16.9,18a2.36,2.36,0,0,1-.75.13.77.77,0,0,1-.83-.88,9.36,9.36,0,0,1,.14-1.07c.06-.38.45-2.75.45-2.75h1l-.12.61h.63l-.14,1h-.63c-.12.77-.29,1.72-.3,1.84s.11.3.36.3a.84.84,0,0,0,.28,0L16.9,18m3.18,0a3.48,3.48,0,0,1-1.07.16,1.59,1.59,0,0,1-1.77-1.8C17.25,15,18,14,19.07,14a1.34,1.34,0,0,1,1.4,1.46,4.41,4.41,0,0,1-.13,1H18.27c-.07.58.3.83.9.83A2.44,2.44,0,0,0,20.26,17Zm-.58-2.39c0-.08.11-.72-.48-.72-.33,0-.57.26-.66.72Zm-6.62-.27a1.18,1.18,0,0,0,.8,1.12c.42.2.49.26.49.44s-.19.36-.6.36a2.92,2.92,0,0,1-.94-.16l-.14.93a4.86,4.86,0,0,0,1.09.12c1.1,0,1.61-.43,1.61-1.34a1.1,1.1,0,0,0-.74-1.12c-.44-.2-.49-.25-.49-.44s.17-.33.51-.33a5.7,5.7,0,0,1,.75.06l.15-.93a7,7,0,0,0-.92-.08c-1.17,0-1.57.62-1.57,1.36M25.17,14.1a2,2,0,0,1,.93.27l.17-1.07a3,3,0,0,0-1.15-.42,2.08,2.08,0,0,0-1.71.93c-.61-.2-.86.21-1.16.62l-.27.06a2.12,2.12,0,0,0,0-.4h-1c-.13,1.25-.36,2.51-.55,3.76l0,.27h1c.17-1.15.27-1.89.33-2.38l.39-.22c.06-.22.24-.3.61-.29a4.57,4.57,0,0,0-.08.82c0,1.32.7,2.14,1.83,2.14a3.23,3.23,0,0,0,.92-.15l.18-1.13a2,2,0,0,1-.89.25c-.61,0-1-.45-1-1.21,0-1.09.55-1.85,1.33-1.85M34,13.15l-.23,1.43a1.3,1.3,0,0,0-1-.66,1.62,1.62,0,0,0-1.32,1,8.42,8.42,0,0,1-.89-.25h0c0-.33,0-.54,0-.61h-1c-.13,1.25-.36,2.51-.55,3.75l0,.27h1q.21-1.39.33-2.31c.36-.33.54-.61.9-.59a3.49,3.49,0,0,0-.25,1.31c0,1,.5,1.67,1.26,1.67a1.23,1.23,0,0,0,1-.44l0,.37h1L35,13.16H34Zm-1.31,4c-.35,0-.53-.27-.53-.79,0-.79.34-1.35.81-1.35s.55.28.55.79C33.54,16.61,33.2,17.17,32.71,17.17Z"/><path class="cls-4" d="M9.22,17.81h-1l.6-3.8-1.34,3.8H6.73L6.64,14,6,17.81H5l.82-4.95h1.5l0,3.06,1-3.06H10l-.81,4.95M11.8,16l-.23,0c-.59,0-.89.21-.89.61A.37.37,0,0,0,11,17C11.47,17,11.78,16.61,11.8,16Zm.76,1.79h-.87l0-.42a1.3,1.3,0,0,1-1.1.49,1,1,0,0,1-1-1.1c0-1,.68-1.55,1.84-1.55l.43,0A1,1,0,0,0,12,15c0-.27-.18-.37-.67-.37a3.43,3.43,0,0,0-1.11.18l.15-.9a4.1,4.1,0,0,1,1.25-.21c.9,0,1.37.41,1.37,1.18a5.22,5.22,0,0,1-.08.8C12.78,16.26,12.58,17.51,12.56,17.81Zm14-4.82-.17,1.07a2,2,0,0,0-.93-.27c-.78,0-1.33.76-1.33,1.85,0,.75.37,1.2,1,1.2a2,2,0,0,0,.89-.25l-.18,1.13a3.2,3.2,0,0,1-.92.15c-1.13,0-1.83-.82-1.83-2.14,0-1.77,1-3,2.35-3a3.59,3.59,0,0,1,1.15.26m1.69,3L28,16c-.59,0-.89.21-.89.61a.37.37,0,0,0,.37.41c.43,0,.73-.41.75-1ZM29,17.81h-.87l0-.42a1.3,1.3,0,0,1-1.09.49,1,1,0,0,1-1-1.1c0-1,.67-1.55,1.83-1.55l.42,0a1,1,0,0,0,0-.26c0-.27-.18-.37-.67-.37a3.43,3.43,0,0,0-1.11.18l.15-.9A4.1,4.1,0,0,1,28,13.7c.9,0,1.37.41,1.37,1.18a5,5,0,0,1-.08.8C29.24,16.26,29,17.51,29,17.81ZM17.2,17.75a2.37,2.37,0,0,1-.75.13.77.77,0,0,1-.83-.88,9.33,9.33,0,0,1,.14-1.07c.06-.38.45-2.75.45-2.75h1l-.12.61h.53l-.14,1H17c-.12.77-.29,1.72-.3,1.85s.11.3.36.3a.83.83,0,0,0,.28,0l-.14.89m3.19,0a3.55,3.55,0,0,1-1.07.16,1.59,1.59,0,0,1-1.77-1.8c0-1.38.77-2.39,1.82-2.39a1.34,1.34,0,0,1,1.41,1.46,4.41,4.41,0,0,1-.13,1H18.58c-.07.58.3.83.9.83a2.43,2.43,0,0,0,1.08-.25Zm-.58-2.39c0-.08.11-.72-.48-.72-.33,0-.57.26-.66.72Zm-6.62-.27a1.17,1.17,0,0,0,.8,1.12c.42.2.49.26.49.44s-.19.36-.6.36a2.91,2.91,0,0,1-.94-.16l-.14.93a4.85,4.85,0,0,0,1.09.12c1.1,0,1.61-.43,1.61-1.35a1.1,1.1,0,0,0-.74-1.12c-.44-.2-.49-.25-.49-.44s.17-.33.51-.33a5.72,5.72,0,0,1,.75.06l.15-.93a7,7,0,0,0-.92-.08c-1.17,0-1.57.62-1.57,1.36m21.37,2.75h-1l0-.37a1.23,1.23,0,0,1-1,.44c-.76,0-1.26-.66-1.26-1.67,0-1.34.78-2.47,1.7-2.47a1.17,1.17,0,0,1,1,.55l.23-1.43h1l-.8,4.95ZM33,16.88c.49,0,.83-.56.83-1.35,0-.51-.19-.79-.55-.79s-.81.56-.81,1.35c0,.53.18.79.53.79Zm-3-3.09c-.13,1.25-.36,2.51-.55,3.75l0,.27h1c.37-2.46.46-2.94,1-2.88a4,4,0,0,1,.4-1.17c-.44-.09-.68.16-1,.63a3.85,3.85,0,0,0,.06-.61H30m-8.6,0c-.13,1.25-.36,2.51-.55,3.75l0,.27h1c.38-2.46.46-2.94,1-2.88a4,4,0,0,1,.4-1.17c-.44-.09-.68.16-1,.63a3.74,3.74,0,0,0,.06-.61h-1"/></svg>