<svg id="Layer_2" data-name="Layer 2" xmlns="http://www.w3.org/2000/svg" viewBox="0 0 137 52"><defs><style>.cls-1{fill:#029cde;}.cls-2{fill:#fff;}.cls-3{fill:#253b80;}.cls-4{fill:#a0c2dc;}.cls-5{fill:#dce9f1;}.cls-6{fill:#fffffe;}</style></defs><title>paypal-btn</title><rect class="cls-1" width="137" height="52" rx="4.75" ry="4.75"/><path class="cls-2" d="M55.14,19.44H49.8a.74.74,0,0,0-.73.63L46.92,33.74a.44.44,0,0,0,.44.51H49.9a.74.74,0,0,0,.73-.63l.58-3.69a.74.74,0,0,1,.73-.63h1.69c3.51,0,5.54-1.7,6.07-5.07A4.11,4.11,0,0,0,59,20.8,5,5,0,0,0,55.14,19.44Zm.62,5c-.29,1.91-1.75,1.91-3.17,1.91h-.8l.56-3.57a.44.44,0,0,1,.44-.37h.37c1,0,1.87,0,2.34.55A1.78,1.78,0,0,1,55.75,24.43Z"/><path class="cls-2" d="M71.07,24.37H68.52a.44.44,0,0,0-.44.37l-.11.71-.18-.26a3.63,3.63,0,0,0-3-1.07,5.87,5.87,0,0,0-5.7,5.13,4.82,4.82,0,0,0,1,3.92,4,4,0,0,0,3.22,1.3A4.89,4.89,0,0,0,66.77,33l-.11.71a.44.44,0,0,0,.44.51h2.3a.74.74,0,0,0,.73-.63l1.38-8.74A.44.44,0,0,0,71.07,24.37Zm-3.56,5a2.85,2.85,0,0,1-2.88,2.44,2,2,0,0,1-2.12-2.48,2.86,2.86,0,0,1,2.86-2.46,2.15,2.15,0,0,1,1.7.7A2.21,2.21,0,0,1,67.51,29.34Z"/><path class="cls-2" d="M84.67,24.37H82.11a.74.74,0,0,0-.61.33L78,29.91l-1.5-5a.74.74,0,0,0-.71-.53H73.22a.44.44,0,0,0-.42.59l2.83,8.29L73,37a.44.44,0,0,0,.36.7h2.56a.74.74,0,0,0,.61-.32L85,25.07A.44.44,0,0,0,84.67,24.37Z"/><path class="cls-2" d="M93.17,19.44H87.83a.74.74,0,0,0-.73.63L84.95,33.74a.44.44,0,0,0,.44.51h2.74a.52.52,0,0,0,.51-.44l.61-3.88a.74.74,0,0,1,.73-.63h1.69c3.51,0,5.54-1.7,6.07-5.07a4.1,4.1,0,0,0-.68-3.44A4.94,4.94,0,0,0,93.17,19.44Zm.62,5c-.29,1.91-1.75,1.91-3.17,1.91h-.8l.57-3.57a.44.44,0,0,1,.44-.37h.37c1,0,1.87,0,2.34.55A1.78,1.78,0,0,1,93.78,24.43Z"/><path class="cls-2" d="M109.1,24.37h-2.55a.44.44,0,0,0-.44.37l-.11.71-.18-.26a3.63,3.63,0,0,0-3-1.07,5.87,5.87,0,0,0-5.7,5.13,4.82,4.82,0,0,0,1,3.92,4,4,0,0,0,3.22,1.3A4.89,4.89,0,0,0,104.81,33l-.11.71a.44.44,0,0,0,.44.51h2.3a.74.74,0,0,0,.73-.63l1.38-8.74A.45.45,0,0,0,109.1,24.37Zm-3.56,5a2.84,2.84,0,0,1-2.88,2.44,2,2,0,0,1-2.12-2.48,2.86,2.86,0,0,1,2.86-2.46,2.15,2.15,0,0,1,1.7.7A2.2,2.2,0,0,1,105.54,29.34Z"/><path class="cls-2" d="M112.11,19.81l-2.19,13.92a.44.44,0,0,0,.44.51h2.2a.74.74,0,0,0,.73-.63L115.45,20a.44.44,0,0,0-.44-.51h-2.46A.45.45,0,0,0,112.11,19.81Z"/><path class="cls-3" d="M24.77,36.91l.41-2.59-.91,0H19.94l3-19.11A.25.25,0,0,1,23,15,.25.25,0,0,1,23.2,15h7.31c2.43,0,4.1.51,5,1.5a3.43,3.43,0,0,1,.8,1.49,5.4,5.4,0,0,1,0,2.06v.59l.41.23a2.88,2.88,0,0,1,.83.63A3,3,0,0,1,38.19,23a6.39,6.39,0,0,1-.1,2.19,7.72,7.72,0,0,1-.9,2.48,5.1,5.1,0,0,1-1.42,1.56,5.77,5.77,0,0,1-1.92.86,9.56,9.56,0,0,1-2.39.28H30.9a1.71,1.71,0,0,0-1.69,1.44l0,.23-.72,4.56,0,.17a.14.14,0,0,1,0,.1l-.07,0Z"/><path class="cls-4" d="M37.08,20.16h0q0,.21-.07.43c-1,5-4.26,6.66-8.48,6.66H26.38a1,1,0,0,0-1,.88h0l-1.1,7-.31,2a.55.55,0,0,0,.54.63h3.81a.92.92,0,0,0,.9-.77l0-.19.72-4.55,0-.25a.92.92,0,0,1,.9-.77h.57c3.69,0,6.57-1.5,7.42-5.83.35-1.81.17-3.32-.76-4.38A3.64,3.64,0,0,0,37.08,20.16Z"/><path class="cls-5" d="M36.07,19.75l-.46-.12-.48-.09a11.92,11.92,0,0,0-1.89-.14H27.51a.91.91,0,0,0-.9.77L25.39,27.9l0,.23a1,1,0,0,1,1-.88h2.15c4.21,0,7.51-1.71,8.48-6.66,0-.15.05-.29.07-.43a5.14,5.14,0,0,0-.79-.33Z"/><path class="cls-6" d="M26.61,20.18a.91.91,0,0,1,.9-.77h5.73a11.92,11.92,0,0,1,1.89.14l.48.09.46.12.22.07a5.22,5.22,0,0,1,.79.33,4.68,4.68,0,0,0-1-4.2C35,14.71,33,14.18,30.51,14.18H23.2a1,1,0,0,0-1,.88l-3,19.31a.63.63,0,0,0,.62.73h4.51l1.13-7.19Z"/></svg>