<svg id="Layer_1" data-name="Layer 1" xmlns="http://www.w3.org/2000/svg" viewBox="0 0 40.06 30"><defs><style>.cls-1{fill:#26337a;}.cls-2{fill:#fff;}.cls-3{fill:#ed982d;}</style></defs><title>visa-icon</title><rect class="cls-1" width="40.06" height="30" rx="2" ry="2"/><path class="cls-2" d="M14.77,19.77l1.54-9.54h2.46l-1.54,9.54H14.77m11.39-9.3a6.09,6.09,0,0,0-2.2-.4c-2.43,0-4.15,1.3-4.16,3.15,0,1.37,1.22,2.14,2.16,2.59s1.28.77,1.28,1.18c0,.64-.76.93-1.47.93a4.94,4.94,0,0,1-2.32-.5l-.32-.15-.34,2.13a7.42,7.42,0,0,0,2.74.51c2.59,0,4.27-1.28,4.29-3.26,0-1.09-.65-1.91-2.07-2.59-.86-.44-1.39-.73-1.38-1.18s.45-.82,1.41-.82a4.32,4.32,0,0,1,1.84.37l.22.11.33-2.07m3.28,5.92,1-2.67s.2-.55.33-.91l.17.82.57,2.75h-2Zm3-6.15h-1.9a1.22,1.22,0,0,0-1.29.79l-3.66,8.74H28.2l.52-1.43h3.15c.07.33.3,1.43.3,1.43h2.28l-2-9.53Zm-19.76,0-2.41,6.5L10,15.43a7.32,7.32,0,0,0-3.41-4l2.2,8.34h2.6l3.88-9.52H12.7"/><path class="cls-3" d="M8.06,10.24h-4l0,.2a8.26,8.26,0,0,1,6,5L9.17,11a1,1,0,0,0-1.12-.81"/></svg>