<svg id="icon-twitter" class="twitter-svg" data-name="icon" xmlns="http://www.w3.org/2000/svg" viewBox="0 0 36 36">
    <title>Golafa on Twitter</title>
    <g id="_Group_" data-name="&lt;Group&gt;">
        <path id="_Compound_Path_" data-name="&lt;Compound Path&gt;" class="cls-1" d="M18,0a18,18,0,0,1,0,36h0A18,18,0,0,1,18,0ZM34.6,18A16.6,16.6,0,1,0,18,34.6h0A16.56,16.56,0,0,0,34.6,18Z"/></g>
    <g id="twitter">
        <path id="_Path_" data-name="&lt;Path&gt;" class="cls-2" d="M28.3,12.6a9,9,0,0,1-2.2.6A3.8,3.8,0,0,0,27.8,11a7.5,7.5,0,0,1-2.5.9,3.7,3.7,0,0,0-2.9-1.2,3.84,3.84,0,0,0-3.9,3.9,2.77,2.77,0,0,0,.1.9,11.44,11.44,0,0,1-8.1-4.1,4.23,4.23,0,0,0-.5,2,4,4,0,0,0,1.7,3.3,4.07,4.07,0,0,1-1.8-.5h0A3.78,3.78,0,0,0,13,20a3.4,3.4,0,0,1-1,.1,1.48,1.48,0,0,1-.7-.1,3.75,3.75,0,0,0,3.6,2.7A8.06,8.06,0,0,1,10,24.4a2.77,2.77,0,0,1-.9-.1A11.05,11.05,0,0,0,26.2,15v-.5A5.46,5.46,0,0,0,28.3,12.6Z"/>
    </g>
</svg>