<svg id="icon-facebook" class="facebook-svg" data-name="icon" xmlns="http://www.w3.org/2000/svg" viewBox="0 0 36 36">
    <title>Golafa on Facebook</title>
    <path id="fb-circle" data-name="&lt;Compound Path&gt;" class="facebook-svg" d="M34.6,18A16.6,16.6,0,1,0,18,34.6h0A16.56,16.56,0,0,0,34.6,18ZM18,0a18,18,0,0,1,0,36h0A18,18,0,0,1,18,0Z"/>
    <g id="facebook">
        <path id="fb-letter" data-name="&lt;Path&gt;" class="facebook-svg" d="M19.2,29.1V19.5h3.2l.5-3.7H19.2V13.4c0-1.1.3-1.8,1.9-1.8h2V8.2c-.3,0-1.5-.1-2.9-.1-2.9,0-4.8,1.7-4.8,4.9v2.8H12.2v3.7h3.2v9.6Z"/>
    </g>
</svg>