<svg id="icon-vk" class="vk-svg" data-name="icon" xmlns="http://www.w3.org/2000/svg" viewBox="0 0 36 36">
    <defs></defs>
    <title>Golafa on VK</title>
        <path id="_Compound_Path_" data-name="&lt;Compound Path&gt;" class="cls-1" d="M34.6,18A16.6,16.6,0,1,0,18,34.6h0A16.56,16.56,0,0,0,34.6,18ZM18,0a18,18,0,0,1,0,36h0A18,18,0,0,1,18,0Z"/>
    <g id="vk_alt">
        <path id="_Path_" data-name="&lt;Path&gt;" class="cls-1" d="M17.4,24.8h1.3a.78.78,0,0,0,.6-.3,1,1,0,0,0,.2-.6s0-1.8.8-2,1.8,1.7,2.9,2.5a1.82,1.82,0,0,0,1.5.4h2.9s1.5-.1.8-1.3A9.72,9.72,0,0,0,26.2,21c-1.8-1.7-1.6-1.4.6-4.4,1.3-1.8,1.9-2.9,1.7-3.4s-1.2-.3-1.2-.3H24a1,1,0,0,0-.4.1.78.78,0,0,0-.3.4A17.93,17.93,0,0,1,22.1,16c-1.5,2.5-2.1,2.6-2.3,2.5-.6-.4-.4-1.5-.4-2.2,0-2.4.4-3.4-.7-3.7a10.87,10.87,0,0,0-1.5-.2,6.41,6.41,0,0,0-2.7.3c-.4.2-.7.6-.5.6a1.35,1.35,0,0,1,1,.5,3.73,3.73,0,0,1,.3,1.5s.2,2.8-.5,3.2c-.4.2-1.1-.3-2.4-2.5a22.83,22.83,0,0,1-1.2-2.4,1.73,1.73,0,0,0-.3-.4.78.78,0,0,0-.5-.2H7.3s-.5,0-.6.2,0,.6,0,.6,2.5,5.7,5.2,8.6a7.66,7.66,0,0,0,5.5,2.4Z"/>
    </g>
</svg>