<svg xmlns="http://www.w3.org/2000/svg" viewBox="0 0 48 47.954">
  <defs>
    <style>
      .cls-1 {
        fill: #fff;
      }
    </style>
  </defs>
  <path id="symbol" class="cls-1" d="M42,47.954a6.007,6.007,0,0,1-6-6,3,3,0,0,0-6,0v4.5a1.5,1.5,0,0,1-1.5,1.5H1.5a1.5,1.5,0,0,1-1.5-1.5v-4.5a6.007,6.007,0,0,1,6-6h6V1.5A1.5,1.5,0,0,1,13.5,0h33A1.5,1.5,0,0,1,48,1.5V41.953A6.007,6.007,0,0,1,42,47.954Zm-36-9a3,3,0,0,0-3,3v3H27v-3a5.964,5.964,0,0,1,.806-3Zm15-12v3H39v-3Zm0-9v3H39v-3Zm0-9v3H39v-3Z"/>
</svg>
