<svg xmlns="http://www.w3.org/2000/svg" viewBox="0 0 512 512"><path fill="#B6E892" d="M454.7 29c-1-9.7-8-17.7-17.5-20-4-1-101.3-24.5-164.7 39-6 6-11.6 12.7-16.5 19.8-4.7-7-10-13.5-16.5-20C203 11.6 155.5 4 122 4 95.2 4 75.5 9 74.7 9c-9.4 2.5-16.4 10.5-17.5 20 0 1.2-3 27.5 0 59.7 4 45.6 17.5 80 39.6 102 36.3 36.5 84 44 117.6 44 6.5 0 12.6-.2 18-.6v43.3c7.7-1.2 15.5-2 23.4-2s15.7.8 23.3 2V234c5.5.4 11.6.6 18 .6 34.7 0 81.7-8 117.8-44 22.2-22.2 35.6-56.5 39.7-102 3-32.3 0-58.6 0-59.7z"/><path fill="#A78966" d="M377 345.3c-21-36.2-56.8-61-97.7-68-7.6-1.2-15.4-2-23.3-2-8 0-15.7.8-23.3 2-41 7-76.8 31.8-97.7 68C60 347.7 0 409.3 0 485c0 12.7 10.4 23 23.3 23h465.4c13 0 23.3-10.3 23.3-23 0-75.6-60-137.3-135-139.7z"/><path fill="#7ED63E" d="M256 67.8c-4.7-7-10-13.5-16.5-19.8C203 11.5 155.5 4 122 4 95.2 4 75.5 8.6 74.7 9c-9.4 2.3-16.4 10.3-17.5 20 0 1-3 27.3 0 59.5 4 45.6 17.5 80 39.6 102 36.3 36.5 84 44 117.6 44 6.5 0 12.6-.2 18-.6v43.3c7.7-1.2 15.5-2 23.4-2V68z"/><path fill="#806749" d="M232.7 277.3c-41 7-76.8 31.8-97.7 68C60 347.7 0 409.3 0 485c0 12.7 10.4 23 23.3 23H256V275.5c-8 0-15.7.7-23.3 2z"/></svg>