<svg xmlns="http://www.w3.org/2000/svg" viewBox="0 0 512 512"><path fill="#91cc04" d="M412.7 176.8a129 129 0 0 0 9.3-48C422 57.8 364.2 0 293.2 0A129.5 129.5 0 0 0 256 5.4c-25.5 7.7-48 23-64.6 44.5C128 54.4 77.6 108.6 77.6 174.4c0 34.2 13.5 66.3 37.3 89.8 2.7 51.5 45.4 92.5 97.6 92.5 6.8 0 13.6-.7 20-2a97 97 0 0 0 46.4-24h.3c15.5 9 33 13.6 51.2 13.6 57.3 0 104-46.6 104-104 0-23-8-45.5-21.8-63.6z"/><path fill="#a78966" d="M256 346.7a97.2 97.2 0 0 1-23.3 8v134c0 13 10.4 23.3 23.3 23.3s23.3-10.4 23.3-23.3V331s-.2 0-.3-.2a97.2 97.2 0 0 1-23 16z"/><path fill="#317f46" d="M225 186.2c-6.2 0-12.2 2.5-16.5 6.8-4.3 4.3-6.8 10.3-6.8 16.5 0 6 2.5 12 6.8 16.4a23.4 23.4 0 0 0 16.5 6.7c6 0 12-2.5 16.4-6.8 4.4-4.4 6.8-10.4 6.8-16.5 0-6.2-2.4-12.2-6.8-16.5-4.3-4.3-10.3-6.8-16.4-6.8zm93 0c-6 0-12 2.5-16.4 6.8-4.3 4.3-6.8 10.3-6.8 16.5 0 6 2.5 12 6.8 16.4 4.3 4.2 10.3 6.7 16.5 6.7 6.2 0 12.2-2.5 16.5-6.8 4.3-4.4 6.8-10.4 6.8-16.5 0-6.2-2.5-12.2-6.8-16.5-4.3-4.3-10.3-6.8-16.4-6.8zm-30-70.8c-4.4-4.3-10.4-6.8-16.5-6.8-6 0-12 2.5-16.4 6.8-4.3 4.4-6.8 10.3-6.8 16.5 0 6 2.5 12 7 16.3 4.2 4.4 10.2 7 16.3 7 6-.2 12-2.6 16.5-7 4.3-4.3 6.8-10.3 6.8-16.4 0-6.3-2.5-12.2-6.8-16.6z"/><path fill="#79ab03" d="M255 148.3c-4.3-4.3-6.8-10.3-6.8-16.4 0-6.3 2.5-12.2 7-16.6l.8-.8V5.4c-25.5 7.7-48 23-64.6 44.5C128 54.4 77.6 108.6 77.6 174.4c0 34.2 13.5 66.3 37.4 89.8 2.7 51.5 45.4 92.5 97.6 92.5 6.8 0 13.6-.7 20-2a97 97 0 0 0 23.4-8V149l-1-1zM241.5 226c-4.3 4.2-10.3 6.7-16.4 6.7-6.2 0-12.2-2.5-16.5-6.8-4.3-4.4-6.8-10.4-6.8-16.5 0-6.2 2.5-12.2 6.8-16.5 4.3-4.3 10.3-6.8 16.5-6.8 6 0 12 2.5 16.4 6.8 4.4 4.3 6.8 10.3 6.8 16.5 0 6-2.4 12-6.8 16.4z"/></svg>