<svg xmlns="http://www.w3.org/2000/svg" viewBox="0 0 512 512"><path fill="#7ED63E" d="M214.6 234.6c6.5 0 12.6-.3 18-.7v43c7.7-1.8 15.5-2 23.4-2 8 0 15.7.2 23.3 2v-68c3.7-17 18.2-103-39.8-161C203 11 155.5 4 122 4 95 4 75.5 8.6 74.7 9c-9.3 2.2-16.3 10-17.4 20 0 1-3 27.3 0 59.4 4 45.7 17.5 80 39.6 102.2 36 36.4 84 44 117 44z"/><path fill="#A78966" d="M377 345.3c-21-36.2-56.8-61-97.7-68-7.6-1.2-15.4-2-23.3-2-8 0-15.7.8-23.3 2-41 7-76.8 31.8-97.7 68-75 2.4-135 64-135 139.5 0 13 10.4 23.3 23.3 23.3h465.4c13 0 23.3-10 23.3-23 0-75-60-137-135-139z"/><path fill="#806749" d="M232.7 277.3c-41 7-76.8 31.8-97.7 68-75 2.4-135 64-135 139.5 0 13 10.4 23.3 23.3 23.3H256V276c-8 0-15.7.7-23.3 2z"/></svg>