<svg xmlns="http://www.w3.org/2000/svg" viewBox="0 0 512 512"><path fill="#91cc04" d="M412.7 176.8a129 129 0 0 0 9.3-48C422 57.8 364.2 0 293.2 0A129.5 129.5 0 0 0 256 5.4c-25.5 7.7-48 23-64.6 44.5C128 54.3 77.6 108.5 77.6 174.3c0 34.2 13.5 66.3 37.3 89.8 2.6 51.5 45.3 92.5 97.5 92.5 6.8 0 13.6-.7 20-2a97 97 0 0 0 46.4-24h.2c15.5 9 33 13.6 51.2 13.6 57.3 0 104-46.6 104-104 0-23-8-45.5-21.8-63.6z"/><path fill="#a78966" d="M256 346.7a97.2 97.2 0 0 1-23.3 8v134c0 13 10.4 23.3 23.3 23.3s23.3-10.4 23.3-23.3V331s-.2 0-.3-.2a97.2 97.2 0 0 1-23 16z"/><path fill="#79ab03" d="M191.4 50C128 54.4 77.6 108.6 77.6 174.4c0 34.2 13.5 66.3 37.3 89.8 2.6 51.5 45.3 92.5 97.5 92.5 6.8 0 13.6-.7 20-2a97 97 0 0 0 23.4-8V5.3c-25.6 7.7-48 23-64.7 44.5z"/></svg>