<svg xmlns="http://www.w3.org/2000/svg" xmlns:xlink="http://www.w3.org/1999/xlink" viewBox="0 0 308.07 235"><defs><style>.\39 c1135a8-7aa2-4d57-8ece-4a5010eb0434{fill:none;}.a26e4ced-a505-4d74-a095-c4ca7d6954b0{clip-path:url(#2a855aa3-fffb-46ea-af2c-2b18480f7755);}</style><clipPath id="2a855aa3-fffb-46ea-af2c-2b18480f7755" transform="translate(0 0)"><path class="9c1135a8-7aa2-4d57-8ece-4a5010eb0434" d="M308.07,235H73.17V144.7c-1-12-12.4-18.6-22.2-9.1a28.7,28.7,0,1,1,0-36.2c9.8,9.5,21.2,2.9,22.2-9.1V0h234.9"/></clipPath></defs><title>events--puzzle</title><g id="df27bf34-dbed-4681-8c5d-281f68e0d493" data-name="Layer 2"><g id="10278641-6776-4bff-852e-3b91713a8b1f" data-name="Слой 2"><g class="a26e4ced-a505-4d74-a095-c4ca7d6954b0"><path d="M308.07,235H73.17V144.7c-1-12-12.4-18.6-22.2-9.1A28.7,28.7,0,1,1,46.8,95.23,28.34,28.34,0,0,1,51,99.4c9.8,9.5,21.2,2.9,22.2-9.1V0h234.9" transform="translate(0 0)"/><image width="235" height="235" transform="translate(73.07 0)" xlink:href="svg puzzles/events--puzzle.jpg"/></g></g></g></svg>