<svg xmlns="http://www.w3.org/2000/svg" xmlns:xlink="http://www.w3.org/1999/xlink" viewBox="0 0 235 308.07">
    <defs>
        <style>.\39 c5a9ead-e32f-4690-b258-12ccaf4f23ae{fill:none;}.addac9e9-6140-4885-add3-56738ad0c368{clip-path:url(#4dabf902-c4d4-45aa-b30e-2c734c1ebbc6);}
        </style>
        <clipPath id="4dabf902-c4d4-45aa-b30e-2c734c1ebbc6" transform="translate(0 0)">
            <path class="9c5a9ead-e32f-4690-b258-12ccaf4f23ae" d="M235,0V234.9H144.7c-12,1-18.6,12.4-9.1,22.2a28.7,28.7,0,1,1-36.2,0c9.5-9.8,2.9-21.2-9.1-22.2H0V0"/>
        </clipPath>
    </defs>
    <g id="61fb2d9f-9d38-4635-bc4b-26d0e210169c" data-name="Layer 2">
        <g id="29fb40e2-cb77-4d63-ae62-042dd1dfface" data-name="Слой 2">
            <g class="addac9e9-6140-4885-add3-56738ad0c368">
                <path d="M235,0V234.9H144.7c-12,1-18.6,12.4-9.1,22.2a28.7,28.7,0,1,1-40.37,4.17,28.34,28.34,0,0,1,4.17-4.17c9.5-9.8,2.9-21.2-9.1-22.2H0V0" transform="translate(0 0)"/>
                <image width="235" height="308" xlink:href="svg puzzles/entertainment--puzzle.jpg"/>
            </g>
        </g>
    </g>
</svg>