<svg xmlns="http://www.w3.org/2000/svg" viewBox="0 0 512.267 512.267"><g fill="#66c6b9"><path d="M384.133 306.133c55.467-55.467 128-87.467 128-155.733 0-37.333-29.867-68.267-67.2-68.267-26.667 0-50.133 16-60.8 38.4-10.667-22.4-34.133-38.4-60.8-38.4-37.333 0-67.2 30.933-67.2 68.267 0 69.333 75.734 101.333 128 155.733z"/><path d="M408.667 315.733c-13.867 13.867-34.133 13.867-48 0C366 309.333 375.6 304 375.6 295.467h17.067c0 8.533 10.666 12.8 16 20.266z"/></g><path d="M479.067 122.667c7.467 8.533 10.667 19.2 6.4 22.4-4.267 3.2-13.867 0-21.333-9.6-7.467-8.533-10.667-19.2-6.4-22.4 3.199-3.2 12.799 1.066 21.333 9.6z" fill="#fff"/><g fill="#415a6b"><path d="M394.8 301.867h-20.267c-2.133 0-3.2-1.067-3.2-3.2s1.067-3.2 3.2-3.2H394.8c2.133 0 3.2 1.067 3.2 3.2 0 1.066-1.067 3.2-3.2 3.2z"/><path d="M364.933 324.267c-1.067 0-3.2-1.067-3.2-2.133 0-2.133 1.067-3.2 2.133-4.267 3.2-1.067 5.333-2.133 5.333-7.467 1.067-7.467 8.533-12.8 9.6-13.867 1.067-1.067 3.2-1.067 4.267 1.067 1.067 1.067 1.067 3.2-1.067 4.267-2.133 1.067-6.4 5.333-6.4 9.6.001 7.466-3.199 10.666-10.666 12.8z"/><path d="M401.2 369.067c-18.133-30.933-10.667-70.4-10.667-70.4V297.6h-6.4c-1.067 3.2-7.467 41.6 11.733 74.667 17.067 30.933-8.533 86.4-8.533 87.467-1.067 2.133 0 3.2 1.067 4.267h1.067c1.067 0 2.133-1.067 3.2-2.133 1.066-2.135 27.733-58.668 8.533-92.801z"/></g><g fill="#f3705a"><path d="M134.533 234.667c58.667-58.667 134.4-91.733 134.4-163.2 0-39.467-32-71.467-70.4-71.467C170.8 0 146.267 16 135.6 40.533 122.8 16 98.267 0 70.533 0c-38.4 0-70.4 32-70.4 71.467 0 72.533 80 105.6 134.4 163.2z"/><path d="M159.067 244.267c-14.933 13.867-35.2 13.867-50.133 0 5.333-7.467 16-11.733 16-21.333h18.133c0 8.533 10.666 13.866 16 21.333z"/></g><path d="M233.733 41.6c8.533 9.6 10.667 20.267 6.4 23.467-4.267 4.267-14.933 0-22.4-9.6-8.533-9.6-10.667-20.267-6.4-23.467 4.267-4.267 13.867 0 22.4 9.6z" fill="#fff"/><g fill="#415a6b"><path d="M145.2 229.333h-21.333c-2.133 0-3.2-1.067-3.2-3.2s1.067-3.2 3.2-3.2H145.2c2.133 0 3.2 1.067 3.2 3.2 1.067 1.067-1.067 3.2-3.2 3.2z"/><path d="M114.267 252.8c-1.067 0-3.2-1.067-3.2-2.133 0-2.133 1.067-3.2 2.133-4.267 3.2-1.067 5.333-2.133 6.4-7.467 1.067-7.467 8.533-13.867 9.6-14.933 1.067-1.067 3.2-1.067 4.267 1.067 1.067 1.067 1.067 3.2-1.067 4.267-2.133 1.067-6.4 5.333-7.467 9.6 0 8.533-3.2 11.733-10.666 13.866z"/><path d="M151.6 299.733c-18.133-33.067-11.733-73.6-10.667-73.6v-1.067h-6.4c-1.067 3.2-7.467 43.733 11.733 77.867 18.133 32-8.533 90.667-9.6 91.733-1.067 2.133 0 4.267 2.133 4.267h1.067c1.067 0 2.133-1.067 3.2-2.133s28.801-61.867 8.534-97.067z"/></g><g fill="#ffd15c"><path d="M256.133 395.733c53.333-52.267 121.6-83.2 121.6-147.2 0-35.2-28.8-64-64-64-25.6 0-46.933 14.933-57.6 36.267-10.667-21.333-32-36.267-57.6-36.267-35.2 0-64 28.8-64 64 0 65.067 72.534 94.934 121.6 147.2z"/><path d="M278.533 403.2c-12.8 12.8-32 12.8-44.8 0 5.333-6.4 14.933-10.667 14.933-19.2h16c.001 8.533 9.601 12.8 13.867 19.2z"/></g><path d="M345.733 220.8c7.467 8.533 9.6 18.133 6.4 21.333-3.2 3.2-12.8 0-20.267-8.533-7.467-8.533-9.6-18.133-6.4-21.333 3.201-3.2 12.801 0 20.267 8.533z" fill="#fff"/><g fill="#415a6b"><path d="M266.8 390.4h-19.2c-2.133 0-3.2-1.067-3.2-3.2s1.067-3.2 3.2-3.2h19.2c2.133 0 3.2 1.067 3.2 3.2-1.067 2.133-2.133 3.2-3.2 3.2z"/><path d="M238 411.733c-1.067 0-3.2-1.067-3.2-2.133 0-2.133 1.067-3.2 2.133-4.267 3.2-1.067 5.333-2.133 5.333-6.4 1.067-7.467 8.533-12.8 8.533-12.8 1.067-1.067 3.2-1.067 4.267 1.067 1.067 1.067 1.067 3.2-1.067 4.267-2.133 1.067-6.4 5.333-6.4 8.533.001 6.4-3.199 10.667-9.599 11.733z"/><path d="M268.933 509.867c0 3.2 6.4 3.2 6.4 0 4.267-18.133 6.4-39.467-3.2-55.467-17.067-29.867-9.6-66.133-9.6-66.133V387.2h-6.4c-1.067 3.2-6.4 39.467 10.667 70.4 8.533 14.933 6.4 35.2 2.133 52.267z"/></g></svg>