<svg xmlns="http://www.w3.org/2000/svg" viewBox="0 0 512 512"><path d="M268.713 0l-12.716 10.062L268.715.002c8.785 11.101 19.717 24.917 19.717 51.051s-10.931 39.951-19.715 51.053C261.334 111.437 256 118.178 256 133.033c0 14.854 5.334 21.594 12.716 30.925 8.784 11.101 19.716 24.917 19.716 51.05 0 26.135-10.931 39.949-19.715 51.051C261.334 275.39 256 282.131 256 296.986s5.334 21.595 12.717 30.926c8.784 11.101 19.715 24.917 19.715 51.051 0 26.136-10.931 39.953-19.715 51.054C261.334 439.35 256 446.092 256 460.95c0 14.859 5.333 21.6 12.714 30.929L243.28 512c-8.782-11.1-19.711-24.914-19.711-51.051 0-26.136 10.931-39.953 19.715-51.054C250.666 400.562 256 393.82 256 378.962c0-14.855-5.334-21.596-12.717-30.927-8.784-11.101-19.715-24.917-19.715-51.05 0-26.135 10.931-39.95 19.715-51.051 7.383-9.331 12.717-16.072 12.717-30.927s-5.334-21.595-12.717-30.926c-8.784-11.101-19.715-24.916-19.715-51.049 0-26.135 10.931-39.95 19.715-51.051C250.666 72.651 256 65.91 256 51.054c0-14.855-5.335-21.596-12.718-30.927L268.713 0z" fill="#ff709d"/><path d="M109.299 0L96.583 10.062 109.301.002c8.785 11.101 19.716 24.917 19.716 51.051s-10.932 39.951-19.716 51.053c-7.382 9.331-12.716 16.072-12.716 30.927 0 14.854 5.334 21.594 12.716 30.925 8.784 11.101 19.716 24.917 19.716 51.05 0 26.135-10.931 39.949-19.715 51.051-7.383 9.331-12.717 16.072-12.717 30.927s5.332 21.593 12.711 30.919l-25.435 20.124c-8.781-11.097-19.708-24.909-19.708-51.042 0-26.135 10.931-39.949 19.715-51.051 7.383-9.331 12.717-16.072 12.717-30.927s-5.335-21.595-12.717-30.926c-8.784-11.101-19.715-24.916-19.715-51.049s10.931-39.95 19.715-51.051c7.383-9.331 12.717-16.072 12.717-30.928 0-14.855-5.335-21.596-12.718-30.927L109.299 0zm318.828 0l-12.716 10.062L428.129.002c8.785 11.101 19.716 24.917 19.716 51.051s-10.932 39.951-19.716 51.053c-7.382 9.331-12.716 16.072-12.716 30.927 0 14.854 5.334 21.594 12.716 30.925 8.784 11.101 19.716 24.917 19.716 51.05 0 26.135-10.931 39.949-19.715 51.051-7.383 9.331-12.717 16.072-12.717 30.927s5.332 21.593 12.711 30.919l-25.435 20.124c-8.781-11.097-19.708-24.909-19.708-51.042 0-26.135 10.931-39.949 19.715-51.051 7.383-9.331 12.717-16.072 12.717-30.927s-5.335-21.595-12.717-30.926c-8.784-11.101-19.715-24.916-19.715-51.049s10.931-39.95 19.715-51.051c7.383-9.331 12.717-16.072 12.717-30.928 0-14.855-5.335-21.596-12.718-30.927L428.127 0z" fill="#f63e31"/><circle cx="33.094" cy="215.006" r="16.879" fill="#ffd102"/><circle cx="16.879" cy="460.946" r="16.879" fill="#57bab7"/><circle cx="176.297" cy="378.97" r="16.879" fill="#ffd102"/><circle cx="160.082" cy="133.03" r="16.879" fill="#57bab7"/><circle cx="192.512" cy="51.054" r="16.879" fill="#ffd102"/><circle cx="319.488" cy="297.241" r="16.879" fill="#57bab7"/><g fill="#ffd102"><circle cx="319.488" cy="460.946" r="16.879"/><circle cx="351.918" cy="215.006" r="16.879"/></g><circle cx="462.69" cy="460.946" r="16.879" fill="#57bab7"/><circle cx="495.121" cy="378.97" r="16.879" fill="#ffd102"/><circle cx="478.906" cy="133.03" r="16.879" fill="#57bab7"/></svg>