<svg xmlns="http://www.w3.org/2000/svg" viewBox="0 0 512 512"><circle cx="56.772" cy="357.994" r="15.035" fill="#ff4b4e"/><circle cx="126.375" cy="183.603" r="15.035" fill="#ffca54"/><circle cx="332.506" cy="147.388" r="15.035" fill="#00cdb3"/><g fill="#57bae5"><circle cx="459.702" cy="357.994" r="15.035"/><circle cx="185.928" cy="71.301" r="15.035"/></g><path d="M443.892 254.143l-127.414-18.514-56.982-115.457c-5.222-10.59-20.379-10.599-25.61 0l-56.982 115.457L49.49 254.143a14.282 14.282 0 0 0-11.528 9.719 14.283 14.283 0 0 0 3.614 14.639l92.197 89.869-21.765 126.901c-1.994 11.636 10.258 20.553 20.72 15.054l113.964-59.914c123.988 65.185 115.628 61.552 120.606 61.552 8.801 0 15.578-7.933 14.076-16.694L359.609 368.37l92.198-89.869c8.457-8.244 3.783-22.658-7.915-24.358z" fill="#ffca54"/><path d="M109.265 141.74c-8.635-1.65-23.615-12.45-18.518-41.51 1.86-10.611-.432-11.48-12.914-14.315-12.197-2.769-30.628-6.955-31.954-32.751a8.195 8.195 0 0 1 7.763-8.605 8.184 8.184 0 0 1 8.604 7.763c.66 12.832 6.705 14.768 19.215 17.609 11.237 2.552 30.042 6.823 25.429 33.13-3.499 19.943 5.36 22.562 5.451 22.579a8.199 8.199 0 0 1 6.512 9.589c-.852 4.451-5.152 7.361-9.588 6.511z" fill="#f99830"/><circle cx="61.753" cy="162.423" r="10.641" fill="#57bae5"/><circle cx="413.507" cy="379.263" r="10.641" fill="#00cdb3"/><circle cx="71.229" cy="445.389" r="10.642" fill="#ffca54"/><path d="M384.02 148.684a8.196 8.196 0 0 1-.165-11.589l11.386-11.713a8.195 8.195 0 0 1 11.588-.164 8.195 8.195 0 0 1 .165 11.589l-11.385 11.713c-3.162 3.248-8.35 3.314-11.589.164zm-221.549-4.504l-15.141-6.123a8.195 8.195 0 0 1-4.526-10.67 8.195 8.195 0 0 1 10.67-4.526l15.143 6.123a8.195 8.195 0 0 1 4.525 10.67 8.195 8.195 0 0 1-10.671 4.526z" fill="#ff4b4e"/><path d="M87.671 413.274l-15.143-6.123a8.195 8.195 0 0 1-4.525-10.67c1.696-4.197 6.473-6.219 10.67-4.526l15.143 6.124a8.197 8.197 0 0 1 4.525 10.67c-1.705 4.216-6.501 6.213-10.67 4.525z" fill="#00cdb3"/><path d="M433.276 441.265l-15.143-6.123a8.196 8.196 0 0 1 6.145-15.195l15.143 6.122a8.197 8.197 0 0 1-6.145 15.196z" fill="#57bae5"/><path d="M335.957 6.77c-.787-4.457-5.041-7.428-9.497-6.645a8.195 8.195 0 0 0-6.645 9.496c2.235 12.653-3.221 15.894-14.775 21.468-10.379 5.006-27.748 13.386-17.351 37.989 7.905 18.713-.25 23.227-.25 23.227-2.294 1.521-9.545 4.216-6.449 11.592 5.348 12.749 38.535-1.584 21.794-41.197-4.192-9.923-2.154-11.284 9.377-16.847 11.266-5.436 28.289-13.647 23.796-39.083zm124.85 119.413a8.195 8.195 0 0 0-11.409 2.035c-5.995 8.597-7.16 18.827-8.187 27.851-1.77 15.556-2.432 21.382-18.692 20.339-17.906-1.145-31.285 2.693-39.771 11.397-10.456 10.723-10.085 25.514-.229 25.679 8.195.137 8.751-8.596 8.751-8.596s1.694-13.931 30.205-12.122c44.894 2.859 30.547-39.654 41.366-55.174a8.191 8.191 0 0 0-2.034-11.409zm-247.705 92.968l47.622-96.494-1.227-2.486c-5.222-10.59-20.379-10.599-25.61 0l-56.982 115.457 19.289-3.426c1.357-.254 11.709-2.521 16.908-13.051zm-70.333 270.656L162.151 376.8c2.28-13.314-5.822-21.891-5.848-21.917l-83.968-81.848c-6.777-6.605-5.376-17.927 2.92-22.637l-25.766 3.743a14.282 14.282 0 0 0-11.528 9.719 14.283 14.283 0 0 0 3.614 14.639l92.197 89.869-21.764 126.902c-1.994 11.636 10.258 20.553 20.72 15.054l14.455-7.598a14.27 14.27 0 0 1-4.414-12.919z" fill="#f99830"/></svg>