<svg id="iconPuzzle" data-name="Layer 2" xmlns="http://www.w3.org/2000/svg" viewBox="0 0 22 22"><defs><style>.icon--puzzle{fill:#af3be9;}</style></defs><title>icon--puzzle</title><g id="Layer_2-2" data-name="Layer 2"><g id="Слой_1" data-name="Слой 1"><path id="_Path_" data-name=" Path " class="icon--puzzle" d="M21.34,10l-3-3a1.08,1.08,0,0,1-.19-1.52,1.21,1.21,0,0,1,.19-.2,1.33,1.33,0,0,1,.71-.17,2.23,2.23,0,0,0,2.46-2,2.26,2.26,0,0,0-.4-1.53l-.34-.46A2.76,2.76,0,0,0,19.32.69a2.26,2.26,0,0,0-2.21,2.23,2,2,0,0,1-.19,1,1.06,1.06,0,0,1-1.5.18.77.77,0,0,1-.18-.18l-2.6-2.55c-1.05-1-1.48-1.3-2.55-.45L6.72,4.24c-.73,1-.22,1.36,1,1.43A1.88,1.88,0,0,1,8.75,9a1.85,1.85,0,0,1-2.13.08,1.83,1.83,0,0,1-.88-1.48c-.06-1.2-.65-1.66-1.44-1L.93,10v.08c-.65.79-.48,1.54.31,2.3S3.05,14.22,4,15.13a1.2,1.2,0,0,1,.36,1.35c-.2.52-.67.6-1.17.59A2.25,2.25,0,0,0,.76,19.16,2.15,2.15,0,0,0,1,20.3a2.23,2.23,0,0,0,4.21-.88,2.54,2.54,0,0,0,0-.39A1,1,0,0,1,5.8,18a1.15,1.15,0,0,1,1.25.29c.9.88,1.79,1.78,2.68,2.67s1.47,1.22,2.43.49L15.6,18c.72-.81.24-1.38-.94-1.44a1.87,1.87,0,0,1-1.8-1.95A1.87,1.87,0,0,1,16,13.31a1.85,1.85,0,0,1,.57,1.28c.07,1.18.63,1.61,1.43,1l3.47-3.48a1,1,0,0,1,.07-.15A1.38,1.38,0,0,0,21.34,10Z"/></g></g></svg>