<svg id="Layer_2" data-name="Layer 2" xmlns="http://www.w3.org/2000/svg" viewBox="0 0 22 22"><defs><style>.cls-1{fill:#0c0;}</style></defs><title>icon--wallet</title><g id="Layer_2-2" data-name="Layer 2"><g id="Слой_1" data-name="Слой 1"><path class="cls-1" d="M10.32,10.52A4.7,4.7,0,0,1,14.8,5.61h4.86V4.17A2.17,2.17,0,0,0,17.49,2H3.17A2.18,2.18,0,0,0,1,4.16v13a2.18,2.18,0,0,0,2.17,2.17H17.49a2.18,2.18,0,0,0,2.17-2.17V15H14.8A4.69,4.69,0,0,1,10.32,10.52Z"/><path class="cls-1" d="M19.66,7.05H14.8a3.25,3.25,0,1,0,0,6.5h4.86a1.46,1.46,0,0,0,1.44-1.44V8.5A1.45,1.45,0,0,0,19.66,7.05Zm-3.78,3.27a1.09,1.09,0,1,1-1.08-1.1,1.08,1.08,0,0,1,1.08,1.08Z"/></g></g></svg>