<svg id="iconPeople" data-name="Layer 2" xmlns="http://www.w3.org/2000/svg" viewBox="0 0 22 22"><defs><style>.icon--people{fill:#ff8a00;}</style></defs><title>icon--people</title><g id="Layer_2-2" data-name="Layer 2"><g id="Слой_1" data-name="Слой 1"><path id="_Compound_Path_" data-name=" Compound Path " class="icon--people" d="M15.45.5a1.64,1.64,0,0,0-1.63,1.82c0,1.21.76,2.42,1.63,2.42s1.64-1.24,1.64-2.42A1.62,1.62,0,0,0,15.69.51Zm0,20.88h1.11a.61.61,0,0,0,.57-.39,1.12,1.12,0,0,0,.09-.36L18,13.55h0a2.81,2.81,0,0,0,.49-.16.69.69,0,0,0,.42-.62l.41-5.53v-.1a1.31,1.31,0,0,0-.92-1.25,9,9,0,0,0-5.87,0,1.31,1.31,0,0,0-1,1.25v.1L12,12.77a.67.67,0,0,0,.41.62,2.81,2.81,0,0,0,.49.16h0l.82,7.08a1.12,1.12,0,0,0,.09.36.61.61,0,0,0,.57.39Z"/><path id="_Compound_Path_2" data-name=" Compound Path 2" class="icon--people" d="M6.41.5A1.64,1.64,0,0,0,4.78,2.32c0,1.18.78,2.42,1.63,2.42S8.05,3.5,8.05,2.32A1.62,1.62,0,0,0,6.65.51Zm0,20.88H7.47A.61.61,0,0,0,8,21a.91.91,0,0,0,.09-.36L9,13.55H9a2.81,2.81,0,0,0,.49-.16.69.69,0,0,0,.42-.62l.41-5.53v-.1a1.31,1.31,0,0,0-.92-1.25A8.64,8.64,0,0,0,6.41,5.4a8.88,8.88,0,0,0-2.93.49,1.32,1.32,0,0,0-.92,1.25v.1L3,12.77a.67.67,0,0,0,.41.62,2.81,2.81,0,0,0,.49.16h0l.82,7.08a1.12,1.12,0,0,0,.09.36.61.61,0,0,0,.57.39Z"/></g></g></svg>