<svg id="iconCar" data-name="Layer 2" xmlns="http://www.w3.org/2000/svg" viewBox="0 0 22 22"><defs><style>.icon--car{fill:#0173ff;}</style></defs><title>icon--car</title><g id="Layer_2-2" data-name="Layer 2"><g id="Слой_1" data-name="Слой 1"><path class="icon--car" d="M20.1,8.24a1,1,0,1,0,0-2h-.82a10.89,10.89,0,0,0-1.59-2.44A4.85,4.85,0,0,0,14.09,2H7A4.81,4.81,0,0,0,3.43,3.83,10.56,10.56,0,0,0,1.84,6.27H1a1,1,0,0,0,0,2,5,5,0,0,0-.85,2.1A9.87,9.87,0,0,0,0,12.54a14.19,14.19,0,0,0,.23,2.25,7,7,0,0,0,.45,1.54v2.75A1.32,1.32,0,0,0,2,20.4H3.32a1.32,1.32,0,0,0,1.31-1.32v-2H16.46v2a1.32,1.32,0,0,0,1.31,1.32h1.31a1.33,1.33,0,0,0,1.32-1.32V16.33a8.24,8.24,0,0,0,.45-1.54,15.46,15.46,0,0,0,.23-2.25,10.51,10.51,0,0,0-.14-2.17A5.18,5.18,0,0,0,20.1,8.24ZM4.89,5.14A3,3,0,0,1,7,4h7.09A3,3,0,0,1,16.2,5.14,9.59,9.59,0,0,1,17.84,8a5.62,5.62,0,0,0-2,.62H5.29a5.62,5.62,0,0,0-2-.62A9.47,9.47,0,0,1,4.89,5.14ZM6.6,12.19a.67.67,0,0,1-.71.65H3.75a1.37,1.37,0,0,1-1.42-1.31,1.36,1.36,0,0,1,1.42-1.27v-.08c1.43,0,2.85,1.25,2.85,2Zm6.24,3H8.24a.66.66,0,0,1,0-1.31h4.6a.65.65,0,0,1,.66.64h0A.68.68,0,0,1,12.84,15.19Zm4.49-2.3H15.2a.67.67,0,0,1-.71-.65h0c0-.75,1.42-2,2.84-2v0a1.38,1.38,0,0,1,1.43,1.32A1.39,1.39,0,0,1,17.33,12.89Z"/></g></g></svg>