<svg id="iconCalendar" data-name="Layer 1" xmlns="http://www.w3.org/2000/svg" viewBox="0 0 22 22"><defs><style>.icon--calendar{fill:#00a9e1;}</style></defs><title>icon--calendar</title><g id="Layer_2" data-name="Layer 2"><g id="Слой_1" data-name="Слой 1"><path class="icon--calendar" d="M21.12,4.69a1.19,1.19,0,0,0-1.2-1.18h-2.3V4.67a2.15,2.15,0,0,1,0,.8,2,2,0,1,1-3.92-.8V3.51H8.3V4.67a2,2,0,0,1,0,.84,2,2,0,1,1-3.91-.84V3.51H2.11A1.19,1.19,0,0,0,.92,4.7V20h0a1.19,1.19,0,0,0,1.2,1.18H19.93A1.19,1.19,0,0,0,21.12,20V4.7ZM19.18,18.83a.49.49,0,0,1-.49.49H3.31a.49.49,0,0,1-.49-.49V9.32a.5.5,0,0,1,.49-.49H18.69a.51.51,0,0,1,.49.5Z"/><path id="_Path_" data-name=" Path " class="icon--calendar" d="M6.34.83h0A1.39,1.39,0,0,1,7.73,2.22V4.67a1.41,1.41,0,0,1-2.81,0V2.22A1.39,1.39,0,0,1,6.31.83h0"/><path id="_Path_2" data-name=" Path 2" class="icon--calendar" d="M15.66.83h0a1.39,1.39,0,0,1,1.39,1.39V4.67a1.39,1.39,0,1,1-2.78,0V2.22A1.39,1.39,0,0,1,15.66.83h0"/><path id="_Path_3" data-name=" Path 3" class="icon--calendar" d="M5.11,10.46H7.82a.13.13,0,0,1,.1.13V13.3a.13.13,0,0,1-.13.12H5.11A.12.12,0,0,1,5,13.3V10.59a.12.12,0,0,1,.11-.13h0"/><path id="_Path_4" data-name=" Path 4" class="icon--calendar" d="M5.11,14.66H7.82a.11.11,0,0,1,.11.13.06.06,0,0,1,0,0v2.71a.13.13,0,0,1-.13.13H5.11A.12.12,0,0,1,5,17.55H5V14.83a.12.12,0,0,1,.12-.12"/><path id="_Path_5" data-name=" Path 5" class="icon--calendar" d="M9.61,10.46h2.71a.12.12,0,0,1,.12.12h0V13.3a.12.12,0,0,1-.12.12H9.61a.13.13,0,0,1-.13-.12V10.59a.13.13,0,0,1,.13-.13h0"/><path id="_Path_6" data-name=" Path 6" class="icon--calendar" d="M14.18,10.46h2.74a.12.12,0,0,1,.12.12h0V13.3a.12.12,0,0,1-.12.12H14.18a.13.13,0,0,1-.13-.12V10.59a.13.13,0,0,1,.13-.13h0"/><path id="_Path_7" data-name=" Path 7" class="icon--calendar" d="M9.61,14.66h2.71a.12.12,0,0,1,.12.12v2.71a.12.12,0,0,1-.11.13H9.61a.13.13,0,0,1-.13-.13V14.83a.12.12,0,0,1,.12-.12h0"/><path id="_Path_8" data-name=" Path 8" class="icon--calendar" d="M14.18,14.66h2.74a.12.12,0,0,1,.12.12h0v2.71a.12.12,0,0,1-.11.13H14.18a.13.13,0,0,1-.13-.13V14.83a.12.12,0,0,1,.12-.12h0"/></g></g></svg>