<svg id="Layer_1" data-name="Layer 1" xmlns="http://www.w3.org/2000/svg" viewBox="0 0 850 500"><defs><style>.cls-1{fill:#fff}.cls-2{fill:#231f20}.cls-3{fill:#fd0}</style></defs><title>Desperados_logo</title><path class="cls-1" d="M607.22 457.46c-2.77-.11-5.87-3.35-7.07-7.34-1.42-4.71.2-8.27 5.59-12l-4.34-1.69.63.68c-2 1.65-4 3.42-6.08 4.93-4.4 3.13-11.08 2.05-13.82-2.26a26.62 26.62 0 0 1-1.84-4.63 4.74 4.74 0 0 0-.84.25 3.87 3.87 0 0 1-4.26-.55c-2.24-1.78-4.46-3.58-6.64-5.43a14.12 14.12 0 0 1-4.36-7.22 1.67 1.67 0 0 0-1-1c-1.93-.34-3.9-.53-6.13-.81 2.4 7-1.66 10.64-7.26 13.76a10.23 10.23 0 0 0 .66 1.11 6.83 6.83 0 0 1 .39 8.16 3.74 3.74 0 0 0-.29 2.36 39.71 39.71 0 0 0 1.44 5.7c.26.75 1.19 1.9 1.69 1.84 2.58-.32 2.88 1.28 3.05 3.12v2.16c-1.51-1.32-2.65-2.34-3.82-3.33a4.64 4.64 0 0 0-5.21-.71 4.21 4.21 0 0 0-2.93 3.94c-.07 2.49 2 4.22 4.71 4.61 2.38.35 4.89 1 6.26 3.43a5.68 5.68 0 0 1-.59 6.56 14 14 0 0 1-4.22 3.79c-4.42 2.41-9.12 1.86-13.77.59a18.74 18.74 0 0 1-3.59-1.3 92.12 92.12 0 0 0-11.38-5 15.4 15.4 0 0 1-10.2-10.33c-.59-1.9-1.88-3.57-2.88-5.39-2.64 2.38-5.52 2.7-8.7 2.14a8.18 8.18 0 0 0-3.88.24 12.47 12.47 0 0 1-11.34-1.32 26.34 26.34 0 0 0-3.69-1.67c2.87-3.57 2.94-7.15.15-11-3.35-4.68-8.4-7.2-12.66-5.83-2 .65-3.77 2.18-5.58 3.39-.24.16-.23.83-.19 1.25.15 1.33.38 2.65.56 4a3.22 3.22 0 0 1-1.93 3.71c-1.58.72-3.17 1.42-4.71 2.1-2.26-2.78-2.94-2.9-5.93-1.17-2.74 1.58-5.46.78-6.09-1.79-.4-1.65 0-2.17 1.69-2 .41 0 .87.21 1.21.07.66-.27 1.49-.6 1.77-1.15s-.31-1.22-.6-1.81a43.49 43.49 0 0 1-2.41-4.71c-.56-1.59.64-3.15 2.24-3.7a3.74 3.74 0 0 0 1.77-1.38c1.5-2.27 2.94-2.65 5.25-1.22 2.49 1.54 3.85 1.59 5.24.3.83-.77.88-1.41-.26-1.77-2-.63-3.66-1.73-3.58-3.93a5.7 5.7 0 0 1 3.68-5.11c5.41-2.38 8.86-2.23 13.12 2.16 2.53 2.61 5.31 4.66 9.22 4 4.82-.87 10.62-4.54 12-10.12-2.11.62-4.19 1.42-6.35 1.82-6.68 1.24-13.15.81-18.93-3.22-5.17-3.61-6.16-8.35-3-13.82.1-.18.18-.38.43-1-1.53 1.07-2.7 2-3.95 2.75a61.58 61.58 0 0 1-24.2 8.83 67.36 67.36 0 0 1-18.33.67c-9.63-1.19-17.89-5-23.91-12.87a15.3 15.3 0 0 1-1.4-2.39 2.23 2.23 0 0 0-3.38-1.1 31.85 31.85 0 0 0-4 2.56c-1.55 1.26-.86 3-.39 4.46a6.61 6.61 0 0 0 6 4.88 17 17 0 0 1 9.4 3.81c3.68 3.13 4.32 6.89 1.92 11-3.84 6.65-12.72 9.09-18.91 5.06a34.54 34.54 0 0 1-4-3.48c-1.78 1.63-3.32 3.48-5.26 4.69-1.56 1-3.3 1.61-4.86 2.75-3.85 2.83-10.09 2.19-14-1.46a9.28 9.28 0 0 0-4.77-2.17c-6.3-1.33-12.41-3.22-17.55-7.3-1.68-1.33-3.13-2.95-5-4.69l-6.69 4.74a49.9 49.9 0 0 1 1.93 5.78 4.17 4.17 0 0 1-.72 2.95c-1 1.36-.72 2.51-.21 3.89a38.28 38.28 0 0 1 1.34 4.83c.3 1.3 1.16 2.09 2.33 1.88 1.86-.34 2.26.57 2.38 2.05.07.86.2 1.71.38 3.13-1.57-1.32-2.73-2.32-3.91-3.29a4.76 4.76 0 0 0-5.54-.52 4.2 4.2 0 0 0-2.64 4.15 4.64 4.64 0 0 0 4.39 4.19c3.44.17 5.17 3.06 3.61 6.21s-4.06 4.92-7 6.39c-3.73 1.88-7.69 3-11.79 1.74-1.85-.56-3.4-2.06-5.11-3.09-.81-.49-1.75-1.36-2.5-1.25-6 .93-9.83-2-13-6.65s-3.37-10-3-15.46c0-.47.08-.93.09-1.4a3.09 3.09 0 0 0-.15-.64c-1.1.95-2.38 1.47-2.23 3.26a7.36 7.36 0 0 1-.64 2.87c-1.37 3.91-3.11 4.72-7.24 4a6.85 6.85 0 0 0-4 .63c-3.29 1.61-6.58 3-10.34 2.7a2.24 2.24 0 0 0-1.43.4c-3 2.42-6.46 2.18-9.81 1.18-2.19-.65-2.95-2.69-3-4.88 0-3.28.27-6.58-.08-9.82a25.79 25.79 0 0 0-2.1-6.9 3.12 3.12 0 0 0-3.47-1.84c-1.53.22-2 1.4-2.65 2.65-1 1.81-.25 3.39.06 5 .52 2.78 0 4-2.51 5.23l-1.1.54c-2.56 1.27-2.56 1.27-5.07.42-1.59 3.4-4.62 3.92-7.86 3.73-2.63-.15-4.87-4.59-3.53-6.86a2.09 2.09 0 0 1 1.42-.79c.67-.08 1.41.32 2.06.19a4.61 4.61 0 0 0 2.55-1.06c.27-.32-.42-1.57-.8-2.34a47.48 47.48 0 0 1-2.24-4.23 3.21 3.21 0 0 1 2.05-3.86 3.92 3.92 0 0 0 1.78-1.32c1.19-1.79 2.83-3.21 5.37-1.43 1.45 1 3.15 1.67 4.85.37a7.76 7.76 0 0 0 1.11-1.41c-1.2-.73-2.86-.8-2.68-2.65.12-1.26-.17-2.63.24-3.77a44.12 44.12 0 0 1 3-6.59c.43-.78 1.48-1.23 2.26-1.81.53-.39 1.08-.76 1.85-1.3-2.79-1.87-5.23-3.6-5.9-6.9s.24-6 1.84-8.72a11.46 11.46 0 0 1-2.49-7.92 1.66 1.66 0 0 0-.85-1.18c-2.35-1.22-4.35-.78-6.35 1a21.8 21.8 0 0 1-14.5 5.6 4.12 4.12 0 0 0-3.45 1.53 8.31 8.31 0 0 1-6.82 3c-4.13-.07-6.25-2.31-6.61-6.75-.23-2.88-.31-2.9-3.31-3a66.75 66.75 0 0 1-7.68-.43 5.9 5.9 0 0 1-3.14-1.63c-4.51-4.53-4.57-13.15 0-17.62a15.06 15.06 0 0 0 4.26-7.21 15.63 15.63 0 0 1 6-9.13 15.19 15.19 0 0 1 4.19-2 7.26 7.26 0 0 0 4.26-3.5c3.37-5.47 7.59-10.14 14.36-11.27a48.21 48.21 0 0 1 7.34-.23 2.9 2.9 0 0 0 3-2.11 31.6 31.6 0 0 0-4-1.87c-4.9-1.53-9-4.09-11.64-8.62a11 11 0 0 0-.92-1.16c-3.17 4.28-7.67 5.89-12.56 6.86a14.29 14.29 0 0 1-17.21-16.32c.18-1.15.36-2.31.44-3.47.16-2.29-.78-3.34-3.07-3.15-3.89.32-7.77.78-11.65 1.24-5.91.7-11.7.57-16.92-2.71-5.54-3.48-8.2-8.85-9.46-15.08a14.1 14.1 0 0 1 4.59-13.91c2.35-2.19 4.63-4.45 7.09-6.83a13.94 13.94 0 0 0-.76-1.18 18.78 18.78 0 0 1-1.65-2c-1.06-1.86-1.73-4-3.07-5.62s-3.46-2.34-4.88-3.81a8 8 0 0 1 3.48-13.11c1.82-.66 2.23-1.61 2.24-3.32a77.67 77.67 0 0 1 .39-11c.87-5.88 3.43-10.74 9.68-12.69 1.36-.42 2.09-2.59 1.67-4.34a8 8 0 0 0-3.94-4.92c-3.3-2-6.52-2.94-10.12-.25a25.73 25.73 0 0 1-6.87 3.33c-5.88 2.07-10.09.39-13.45-4.84-2.46-3.82-1.89-6.42 1.28-9.58 1-1 1-1.71.12-2.8a44.43 44.43 0 0 1-2.66-4.27c-2.17-3.57-4.69-6.81-8.42-8.93a11.65 11.65 0 0 0-9.44-1.16c-3.68 1.13-7.23 2.73-9.65 5.88-1.82 2.37-1.05 4.54 1.68 5.71 3.16 1.35 5.27 4.92 4.35 7.48a4.27 4.27 0 0 1-1.14 1.7c-1.44 1.27-1.62 2.35-.38 3.82a7.54 7.54 0 0 0 1.46 1.24 9.88 9.88 0 0 1 4.07 5.69c.43 1.64.26 3.15-1 4.15a5.23 5.23 0 0 1-5.31.67 3.66 3.66 0 0 1-2.22-3.48c-.05-1 0-2.1 0-3.16 0-2.38-1-3.42-3.39-3.39-5.13 0-10-.83-14.12-4.16-3.93-3.2-6-7.34-5.39-12.56a7.57 7.57 0 0 1 3.37-5.31 38.41 38.41 0 0 1 4.91-2.93c1.44-.77 2.17-2.37 1.06-3.23-2.07-1.6-1.73-3.65-1.59-5.72.32-4.53 4.24-9.84 8.16-11.12a3.74 3.74 0 0 1 1-.28c1.48 0 1.7-.92 1.2-2-2.47-5.45-1.56-10.28 2-15a16.61 16.61 0 0 1 5.73-4.83c3.79-2 6.93-4.86 6.37-9.69-.59-5.08 3.54-9.08 7.66-9.77 6.52-1.1 12.81-.28 18.34 3.68 3.39 2.43 4.87 6 5.27 10a2.74 2.74 0 0 1-.64 1.69 25.12 25.12 0 0 1-1.84 1.88c-1.24 1.32-2.59 2-4.33.91a3.23 3.23 0 0 0-.83-.28c-1.22-.34-2.43-.25-3.09.91-.52.91.6 3.12 1.65 3.49s2.47.66 3.67 1.08a4.93 4.93 0 0 1 1.75 1.05c1.26 1.23 1.13 2.16-.39 3.08-.69.42-1.47.68-2.17 1.09-1.71 1-2 2.45-.42 3.62a8.89 8.89 0 0 1 3.9 8.11 3 3 0 0 0 .4 1.85 3.8 3.8 0 0 0 2 1.59 2.36 2.36 0 0 0 2-1.23c.68-2.39 1.06-4.86 1.58-7.3a41 41 0 0 1 1.12-4.91c1.63-4.74 5.64-6.39 10.07-7.29a18.49 18.49 0 0 1 4.52-.08c.93 0 1.14-.33 1.58-1.11 2-3.48.24-6.74-.28-10.09-.8-5.11-.75-10.14 1.79-14.82 2.24-4.15 5.92-6.29 10.5-6.94 1.55-.22 3.15-.14 4.71-.34a2.08 2.08 0 0 0 1.44-.89c1.41-2.94 2.48-5.83 2-9.36-.4-2.9.66-5.49 4.44-6.93a4 4 0 0 0 2.76-3.67c.61-3.93 2.79-7.13 5.29-10.21-.16 1.71-.45 3.42-.44 5.13a6 6 0 0 0 .76 3.29 10.79 10.79 0 0 1 1.77 5.21 13.11 13.11 0 0 0 .78 2.39l.52.11c.57-.88 1.16-1.76 1.7-2.65 1.63-2.67 2.23-2.72 4-.4 4.92-2.28 9.79-4.6 14.72-6.79 2.38-1.06 4.91-1.78 7.31-2.82a3.71 3.71 0 0 0 1.78-1.72c.54-1.29 1.16-2.06 2.67-2 .51 0 1.39-.24 1.48-.55a2.42 2.42 0 0 0-.36-1.77 4.84 4.84 0 0 0-5.33-2.17 11.11 11.11 0 0 0-2.84.8c-4.19 2-6.51-1-7.43-4.07a2.84 2.84 0 0 0-1.72-2.12 5.08 5.08 0 0 1-2.63-6.92 11.58 11.58 0 0 1 5-5.7c1.16-.68 2.21-1.49 1.79-3s-1.69-2-3.07-2.17c-1.22-.17-2.45-.21-3.66-.36a2.56 2.56 0 0 1-2.35-2.62c-.23-3.31 2.82-7.65 6-8.43 2.71-.67 5.18.3 7.49 1.62a15.37 15.37 0 0 1 3.26 2.32 4.88 4.88 0 0 1 1.22 2.54c.2 1.23.74 1.74 1.84 1.3 1.82-.72 3.29-.1 4.7 1s2.93 2.13 4.3 3.31c1.72 1.47 2.59 3.31 1.75 5.6s-1.6 4.36-2.53 6.48c-.48 1.1-.42 2 .57 2.58a1.61 1.61 0 0 0 2.3-1c.49-1 .85-2.14 1.44-3.12a55.6 55.6 0 0 1 4.68-7.27c2.21-2.63 2.62-5.07.95-8.11a30 30 0 0 1-2.82-6.5c-1.13-4.18.41-7.75 4.08-10.06a17 17 0 0 1 12.6-2.34c3.79.75 6.46 3.41 8 6.94.91 2.05 0 4.14-2.18 6-.58.48-1.24.86-2 1.35-.27-.37-.5-.67-.71-1-1.67-2.56-3.3-3.13-5.9-2.09a4.91 4.91 0 0 0-3.05 5.82 8.5 8.5 0 0 0 .89 2.45c.7 1.23 1.74 1.9 3.22 1.23a12.73 12.73 0 0 0 2.81-1.35c4.09-3.28 8.82-3.26 13.65-2.88a25.62 25.62 0 0 1 14.17 5.76 2 2 0 0 0 1.08.47 56.58 56.58 0 0 1 22.91 5.05c1.12-2 2.07-4 3.32-5.76 3.69-5.27 9-7.94 15.2-9 3.24-.58 6.49-1.35 9.88-.55.89.21 2.12-.5 3.06-1A28.26 28.26 0 0 1 355 29.41c9.86.36 19.44 8.49 21.29 18.19.78 4.1.38 7.92-2.36 11.21a23.68 23.68 0 0 1-3 2.58c-.34-.81-.56-1.27-.73-1.74-1.08-3.06-2.5-3.83-5.62-3-3.56.92-5.08 2.59-5.16 5.65a7.66 7.66 0 0 0 11.56 6.78c1.48-.82 2.89-1.75 4.38-2.54a6 6 0 0 1 1.73-.33 7.87 7.87 0 0 1 0 1.63 16.57 16.57 0 0 1-.75 2.13c-1.17 3.06-1.18 3.06-4.39 2.42-1.68-.34-2.92.39-3.67 2.18 3.41 1.59 6.86 3.09 10.22 4.78A88.06 88.06 0 0 1 404.51 99c1.95 2.16 3.6 4.58 5.45 6.83.29.36.95.79 1.3.69 10.89-3 19.53.82 26.79 8.76 1.36 1.49 2.41 3.27 3.63 4.9a3.6 3.6 0 0 0 1.17 1.2c2.29 1 2.15.92 3.36-1.41a30.46 30.46 0 0 1 3.41-4.38c-.83-.35-1.79-.79-2.78-1.15a5.51 5.51 0 0 1-3.84-5.8c.23-10.76 6.13-19.21 17.14-21.34a14.48 14.48 0 0 0 1.45-.45 10.19 10.19 0 0 1 .53-8.44 12.9 12.9 0 0 1 5.6-5.44c.41 4.87 3.26 7.67 7.49 9.24 3.21 1.2 6.7-.85 6.81-4.06a3.78 3.78 0 0 0-1.33-2.91c-.77-.48-2.12-.06-3.21.06-.29 0-.54.4-.83.63-1.34-4.48-.47-6.26 3.82-7.91.87-.33 1.73-.68 2.59-1.05a4.55 4.55 0 0 0 2.83-3.88c.35-2.78.84-3.24 3.57-3.9 1.69-.41 3.4-.78 5-1.32 3.35-1.1 4-2.47 2.45-5.85a12.66 12.66 0 0 1 2.6.71c6.51 3.48 9.67 9.5 9.45 16.67-.06 2.16-2.39 5.09-3.92 5.52.15-1.94.73-4.08.36-6-.69-3.61-3.85-6.27-6.63-6.23a8.46 8.46 0 0 0-7.77 5.85c-.84 3.3.69 6 2.78 8.24a51.05 51.05 0 0 0 5 4.36 3.12 3.12 0 0 0 1.06.58c.67.21 1.89.2 2 .5a20 20 0 0 1 .38 4.1c0 1.18-.39 2.45-.09 3.54 1.3 4.83 3.76 8.87 8.8 10.49 6.26 2 13.84-2.55 15.73-9.36.8-2.87 1.05-5.82-1-8.32a7.65 7.65 0 0 0-10.7-.62c-.3.27-.61.51-.94.79a5 5 0 0 1 2.54-6.6 20 20 0 0 1 16.42-1.17c8 2.76 13.74 8 16 16.41 1.56 5.86 0 11.21-3.58 15.94a9.23 9.23 0 0 1-7.29 3.47c-.27-3-.57-6-3.49-7.73a6 6 0 0 0-4.84-.74c-4.17 1.1-6.15 3.73-5.33 7.44 2.11-.51 4.21-.67 6.19.5s2.41 2.46 1.82 5.37l8 .73c4.51.42 8.36 5.42 8.27 10.25-.05 2.9-.49 5.8-.76 8.7-.25 2.67.94 4 3.56 4a2.37 2.37 0 0 0 2.61-2.06c1.12-5.2 3-4.2 6.37-3.12 5.47 1.73 10.21 4.72 11.1 10.84.45 3.11 2 4.29 4.41 5.34.84.36 2.13.64 1.85 2.23l-5.7-2.4a63 63 0 0 1-2.42 5.85 12.6 12.6 0 0 1-7 6.49c-1.86.64-3.67.56-5.06-.84-2.87-2.89-6-2.63-9.25-1a14 14 0 0 0-3.08 2c-1.53 1.39-1.45 2.89 0 4.41a5.1 5.1 0 0 0 .64.6c1.48 1.08 2.16 2.37 1.33 4.22-1 2.16-2.16 3.07-4.43 2.89-2.82-.23-5.53-.86-7.6-3a5.06 5.06 0 0 1-1-6.23 4.22 4.22 0 0 1 .53-1.09c3.49-3.89 1.61-7.12-1.89-10.36a38.44 38.44 0 0 0-6.3-4.37c-2.61-1.58-3.77-1.35-5.79.89a31.53 31.53 0 0 0-2 2.78c.27.13.33.18.37.17 2.43-.47 4.77-.35 6.19 2s.58 4.64-.82 6.68a2.91 2.91 0 0 0-.31 3.12c1.36 3.51 2.49 7.12 3.81 11 .93-.14 2-.26 3-.46a15.3 15.3 0 0 1 12.23 2.77c1.12.81 2.1 1.84 3.22 2.66a17.65 17.65 0 0 0 3.63 2.32 30 30 0 0 1 10.29 6.26c3 3 4.55 6.52 3.35 10.78-1 3.41 1 5.83 2.53 8.86-.13-5.55 3.16-8.12 8.18-6.71-1.37-2.58-2.79-5.06-4-7.63-2.54-5.27-4.08-10.82-3.5-16.71.85-8.51 4.43-13.58 12.28-15.37 2-.46 4.24-.07 6.55-.07.1-.49.32-1.26.42-2 .54-3.89 2.74-6.46 6.49-7.22a3.1 3.1 0 0 0 2.49-2.09c.91-2.11 2-4.15 2.85-5.9l-1.58-1.94 3-.91a15.89 15.89 0 0 0-1.72-2.09 1.57 1.57 0 0 1-.26-2.52c.89-1.1 1.7-2.27 2.54-3.41l.53.13a15.77 15.77 0 0 1 .39 1.89c.11 1.22 0 2.47.22 3.67.58 3.52 2.39 5.3 5.89 6a5.61 5.61 0 0 0 5.53-2.91 6.26 6.26 0 0 0-1.12-6.5c-2.29-2.32-2.18-3 .71-4.62 8.67-4.77 21.21-1.26 26 7.41a14.53 14.53 0 0 1 1.42 5.13 9.36 9.36 0 0 0 1.6 3.85 29.13 29.13 0 0 1 3.77 8.53c1.17 5.35 1.37 10.77-2.6 15.39-1.29 1.5-2.44 3.12-3.61 4.71-.78 1.07-1.49 2.2-2.36 3.48 2.37-.41 4.45-.88 6.56-1.12a8.05 8.05 0 0 1 8.6 4.29c.77 1.33 2.37 2.25 3.72 3.17 2.83 1.92 6 3.44 8.57 5.63s2.47 5.31 1.63 8.43a35.36 35.36 0 0 0-.89 5.14c-.35 3 1.18 5 3.59 6.68a62.45 62.45 0 0 1 5.72 4.48c1.33 1.15.93 2.73.32 4a48 48 0 0 1-3.11 5.59c-1 1.6-1.4 3.33-.5 3.73 1.78.79 2.1-.92 2.82-1.85.89-1.15 1.6-2.43 2.55-3.53 1.61-1.86 5.94-2 7.66-.32a1.22 1.22 0 0 1 .24.79c0 2.14 1.45 3.11 3.21 3.62s3.54.67 5.28 1.12a8.18 8.18 0 0 1 6.07 7.3c.09 1.42-.19 2.64-2 2.91a9.59 9.59 0 0 0-2.43 1.24c-.54-.61-1.24-1.41-1.95-2.19-.43-.47-.8-1.12-1.33-1.33a3.49 3.49 0 0 0-2.4-.26 2.52 2.52 0 0 0-.91 2 11 11 0 0 1-2 6.91 3.19 3.19 0 0 1-5.38.1c-1.37-1.82-3.22-2-4.23-.15-.84 1.52-1.82 1.12-2.68.46a5.8 5.8 0 0 1-1.46-2.26c-.52-1.16-.8-2.42-1.33-3.57a3.55 3.55 0 0 0-3.57-2c-1.46 0-1.87.62-1.12 1.83a2.28 2.28 0 0 1-.19 2.84c-2.71 4.08-6.9 5.49-11.32 6.56a7.1 7.1 0 0 1-5.59-.52 1.8 1.8 0 0 0-1.51-.13c-1.55.89-3 1.91-4.5 2.89a.44.44 0 0 0-.12.13c-1.7 2.65.65 4.73 1 7.09.2 1.29 1.38 1.33 2.46 1.47 5 .65 9.52 2.11 12.77 6.33 1.21 1.57 3.92 1.39 5.73 0a9.57 9.57 0 0 1 2-1.4 2.07 2.07 0 0 1 3.13 2c0 .75-.06 1.5-.1 2.53a7.75 7.75 0 0 0 1.83-.41 12.51 12.51 0 0 1 5.14-1.44c1.17-.07 2.3-1.19 3.4-1.92a16.84 16.84 0 0 0 1.76-1.55l.54.39c-1.34 2.4-2.59 4.85-4 7.17a25 25 0 0 1-9.07 8.77c-4.75 2.66-7.2 8.54-6.31 13.95a26.92 26.92 0 0 0 3.95 10.53 5.48 5.48 0 0 1-.31 7.18c-1.29 1.62-.77 3.38 1.17 3.87.81.2 1.78-.27 2.78-.45 2.3 4.14 1 7.9-3.61 9.76a13 13 0 0 1-8.55.67 25.16 25.16 0 0 1-2.73-1.41c-.55-.24-1.34-.51-1.77-.28a1.89 1.89 0 0 0-.67 1.62c.27 1.53.91 3 1.13 4.54a10.82 10.82 0 0 1-.31 3.2c-.27 1.64-.63 3.27-.94 4.91-.09.45 0 1.06-.25 1.34a7.49 7.49 0 0 0-1.7 5.37c0 1.64.1 3.27.16 5.25a15 15 0 0 0 1.87-.9 7.31 7.31 0 0 1 6.35-.86c2.2.55 3.14-.28 2.91-2.49-.34-3.15.11-3.54 3.22-2.59l.68-3.49 1.84-.19c.08-.11.19-.19.21-.29.7-4.69 2.39-5.9 7.18-5a16 16 0 0 1 10.81 7.28c1 1.55 1.88 3.21 2.79 4.83a6.33 6.33 0 0 1-.13 6.47 3.12 3.12 0 0 0-.12 2c.16.72.74 1.34.9 2.06a13.68 13.68 0 0 0 6.23 8.91c1.18.75.74 1.73.15 2.72a17.52 17.52 0 0 0-1 2.28 8.75 8.75 0 0 0 2.78.39 31.35 31.35 0 0 0 5.23-1.65 2.84 2.84 0 0 0 1.73-3.71c-.45-1.56.08-2.11 1.49-3a15.35 15.35 0 0 0 6.33-8.08c1-2.93-2.75-7.2-6.32-7.84a18.48 18.48 0 0 0-2.07-.32c-3.53-.22-6-2-4.68-6.74a26.72 26.72 0 0 1 6.19-10.81c2.63-2.88 6.15-3.05 9.72-1.94 2.21.69 4.38 1.55 6.57 2.29s2.8.42 2.92-2c.14-2.76 2.5-5 6.15-5.41a12.49 12.49 0 0 1 10.76 3.48 4.67 4.67 0 0 1 1.31 5.26 6.73 6.73 0 0 0 1.76 7.65 4.08 4.08 0 0 1 .8 5 7.62 7.62 0 0 0-.85 4.95c.35 2.24.13 4.58.67 6.76a9.15 9.15 0 0 0 2.49 3.8c1.21 1.24 2.32 4 1.76 5.71a26.52 26.52 0 0 1-7.7 12.08 10.72 10.72 0 0 1-2.7 1.45 5.66 5.66 0 0 0-3.33 4 4.13 4.13 0 0 0 1.48 4.4 7.37 7.37 0 0 0 5.79 1.92c2.44-.34 4-2.33 4.55-5.51.13-.75.22-1.5.31-2.25.53-4.33 3-6.76 7.29-6.74 10.14.05 17.56 5.49 19 16a2.08 2.08 0 0 1-1.39 2.56 5.3 5.3 0 0 0-2.12 7.8 12.33 12.33 0 0 1 1 1.62c1.82 3.66-.09 6.79-4.16 6.8-2.88 0-2.74-.52-3.32 2.74-.92 5.09-4.26 6.35-8.63 6a5.92 5.92 0 0 1-2.65-1.46c2.46-.1 4.24-1.41 5.85-2.9s2-3.61 1.54-5.93c-.85-4.56-4.14-8.4-8.36-9.32a12.48 12.48 0 0 0-14.54 9.25c-1 3.81-.12 7.38 1.26 10.89a2.08 2.08 0 0 0 1.21 1.15c3.71.87 5 3.91 6.26 6.93a31.2 31.2 0 0 1 1 3.52c.25.87.37 2.08 1.66 1.74s2.34-.78 2.38-2.37a7.92 7.92 0 0 1 .38-2.89c.91-2.11 3.25-2.84 5.65-1.95 6.24 2.3 9.63 10.38 6.83 16.41-1 2.2-2.59 3.53-5.25 3.07a3.61 3.61 0 0 0-2.42.87 18.82 18.82 0 0 0-2.06 2.36c-2.36 2.57-4.3 2.76-7.17.71-.37-.26-.72-.56-1.13-.88-.29.21-.59.39-.85.61-3.54 2.89-7.62 1.83-9.45-2.46-2-4.66-7.68-5.54-10.79-1.66a12.1 12.1 0 0 0-.85 1.11c-1.94 3.1-4.61 5.07-8.35 5.3-2.83.18-5.71.64-8.49.29-3.82-.48-5.64-2.9-5.95-6.8a10.18 10.18 0 0 0-.08-1.58 5.09 5.09 0 0 1 1.83-5.54c1.21-1 1.12-2.37.22-3.6a13.94 13.94 0 0 0-1.94-2.24c-2-1.75-3-1.73-5 0-1.19 1-2.27 1.23-3.48-.07a3.59 3.59 0 0 0-5.4-.14 17.67 17.67 0 0 0-2.27 3.07c-1.29 2-2.37 2.46-4.69 2a11.49 11.49 0 0 0-3.78-.39c-4.81.72-6.18 2-6.48 7.86s-3.76 7.86-8.08 9a14.48 14.48 0 0 1-10.54-1c-4.19-2.13-5.94-5.9-6.44-10.36a2.4 2.4 0 0 0-1.56-2.22 6.34 6.34 0 0 1-2.59-2.18c-1.55-2.46-3.88-4.65-3.25-8.12-3-.54-5.86.14-8.65.89a15.63 15.63 0 0 0-8.11 4.55c-2.45 2.81-2.43 6-1.09 9.17 1.2 2.84 3.73 3.88 6.7 3.85a11.58 11.58 0 0 0 2.93-.33c4.1-1.14 5.55-3.27 5.13-7.39 2.62.83 3.3 2.85 2 5.17a7.22 7.22 0 0 0-.74 3.59 2.26 2.26 0 0 1-1 2.18c-1.25 1-2.34 2.19-3.5 3.31a19.51 19.51 0 0 1-3 2.83c-3.1 1.89-5.32 1.23-7.18-1.86-.68-1.13-1.4-2.23-2.22-3.52a10 10 0 0 0-1 1c-1.38 1.89-2.71 2.25-4.8 1.19a8.44 8.44 0 0 1-1.9-1.23c-1.22-1.11-2.52-1.55-3.95-.55s-1 2.22-.54 3.47c.02.21.08.47.16.74zm-102.47-34.84c1 .54 2 1.06 3 1.65a6.87 6.87 0 0 1 3.67 5.81 10.83 10.83 0 0 0 4.62 8.44c6.3 4.89 14 5.7 20.09 2 7.18-4.41 8.25-12.46 2.2-18.29a39.23 39.23 0 0 0-7.26-5.11c-2.35-1.4-3.36-1.59-4.65 1.42-1.59 3.69-6.3 4.92-9.78 2.93-1.57-.9-3.09-1.9-4.72-2.67-3.69-1.8-6.26-.36-7.17 3.82zM128.43 169.18c-1.56.07-3 .26-3.64 1.78a4.66 4.66 0 0 0 1.44 5.22c2.52 2.1 3.91 2.3 6 1 .5-.31 1.62-.52 1.78-.29a2.76 2.76 0 0 1 .43 2 22.66 22.66 0 0 1-1.31 3 5.85 5.85 0 0 0 1.05 6.22c1.41 1.76 3.2 3 5.59 2.62a30.28 30.28 0 0 0 4.4-1.12c2.61-.81 2.92-1.55 2.71-4.25a7.65 7.65 0 0 1 .75-3.78c.69-1.41.59-2.72-.48-3.48-1.58-1.11-3.48-2.53-5.22-2.5-3.45.07-5.74-1.47-7.91-3.73a8.51 8.51 0 0 0-5.59-2.69zm72.67 130.73c2.91-.31 5.15-1.42 6.62-3.78.95-1.52 1.62-3.22 2.48-4.8.58-1.06 1.35-2 1.89-3.11.33-.64.76-1.72.48-2.07a3.05 3.05 0 0 0-2.19-.86c-1.27 0-2.58.68-3.78.49-2.73-.44-5.4-1.27-8.1-1.88-.55-.12-1.44-.22-1.69.07a30.15 30.15 0 0 0-4.24 5.66c-1.35 2.73-.08 7.12 2.14 8.14a60.92 60.92 0 0 0 6.39 2.14zm359.8-90.46c-1.05-.93-2.19-1.91-3.29-2.91a11 11 0 0 0-9.72-2.69 37.91 37.91 0 0 1-6.74 0c-1.12 0-2.24-.16-3.36-.25v.31l16.58 9z"/><path class="cls-1" d="M91.4 218.66a11.94 11.94 0 0 0 3.6 10.16c3.26 3.3 7.27 3.65 11.07 1.06 3.34-2.27 5.73-1.85 8 1.42 3.54 5.13 2.4 10.4-3.35 13.67-2.09 1.19-4.71 1.44-7.06 2.19a7.09 7.09 0 0 0-2.66 1.24c-1.66 1.53-3.36 3-5.67 3.2a8.87 8.87 0 0 1-7.54-2.89 4.29 4.29 0 0 1-.94-2.88 1.74 1.74 0 0 0-1.45-2c-4-1.34-5.43-1.55-5.19-8 .16-4.43 2.17-8.18 4.89-11.51 1.74-2.14 3.82-4 5.75-6zm81.27-160.13c-2.93 5.2-5.43 10.08-8.37 14.68a13.06 13.06 0 0 0-2.3 8.72 10.84 10.84 0 0 0 .65 2.65c1.47 3.9-.17 6.44-4.35 6.67h-.7c-3.12 0-3.67.31-4.39 3.37-.55 2.36-1.23 4.86-1 7.21.52 4.79-4 6.45-7.52 4.93a6.14 6.14 0 0 1-3.75-6.29 18.15 18.15 0 0 1 .93-3.52 3.06 3.06 0 0 1 3.34-2.22c3.27.08 4.5-2.15 3.11-5.08a16.65 16.65 0 0 1-1-13c.59-1.7 1.24-3.38 2-5A8.08 8.08 0 0 1 151 69a56.8 56.8 0 0 1 5.11-4.14c1.35-1 2.19-.65 3 1 1.1 2.15 1.76 2 3.41.26A96.72 96.72 0 0 1 170 59c.52-.45 1.55-.3 2.67-.47zm548.78 259.39c-1.42 1.59-2.83 1.54-4.31 1.5a49.19 49.19 0 0 0-7.13.14 4 4 0 0 0-3.47 3.47c-.2 1.15-.82 2-2 1.75-5.92-1.24-8.82 2.77-11.82 6.64-1.91 2.47-5.06 2.48-6.33 0-.61-1.19-.36-2.13.87-2.51 1.94-.61 3.09-1.56 2.48-3.8a1.55 1.55 0 0 1 .38-1.09 10.59 10.59 0 0 1 11.66-4c2.51.68 3 .49 4.49-1.62a17.82 17.82 0 0 0 1.07-1.6c.78-1.42 1.91-1.91 3.33-1.11s2.67.79 3.82-.63a2 2 0 0 1 1.86-.34c1.74.96 3.3 2.06 5.1 3.2zm-543.6 8.3c5.28.18 7.51 4.73 7.3 8.64-.1 1.88-3.16 4.78-5.61 3.3-2.6-1.57-5-3.44-5.75-6.63a4.07 4.07 0 0 1 4.06-5.31zm476.4-68.3a83.7 83.7 0 0 1 7.94-4 4.92 4.92 0 0 1 3.86.4c1.29.81 1.33 2.57.79 4a13.41 13.41 0 0 1-2 3.56 2.66 2.66 0 0 1-3.5.48c-1.48-.74-3-1.47-4.4-2.3a28.43 28.43 0 0 1-2.69-2.14zm-548.52-68.27a7.94 7.94 0 0 1 .39-1.62c.81-1.93 2-2.29 3.57-.93a12.88 12.88 0 0 1 4.64 7.53c.14.83 1.13 1.49 1.62 2.3.28.46.6 1.25.4 1.54a1.66 1.66 0 0 1-1.55.47 52.48 52.48 0 0 1-6.21-3.42 6.54 6.54 0 0 1-2.86-5.87zm449.14-81.21a4.72 4.72 0 0 1 4.26 3.29c.49 1.55.8 3.18-.9 4.17-.7.4-2.05.73-2.49.36a14.2 14.2 0 0 1-3.69-4.2c-.92-1.86.72-3.69 2.82-3.62zm3.13 12.89a16.07 16.07 0 0 1 1.78 2.38c.08.15-1 1.17-1.15 1.1a6.24 6.24 0 0 1-1.83-1.75c-.13-.18.6-.9 1.2-1.73zM681.28 260.1c-1.6-1.53-1.5-2.5.19-3.58z"/><path class="cls-2" d="M289.39 181.22a7 7 0 0 0 0-3.23s-7.83 6.46-6.49 7.83 6.04-3.16 6.49-4.6zm30.04 4.6c1.34-1.37-6.49-7.83-6.49-7.83a7 7 0 0 0 0 3.23c.44 1.44 5.14 5.97 6.49 4.6z"/><path class="cls-2" d="M339.7 198.15h.09a16 16 0 0 1 1.52 2.52 2.76 2.76 0 0 0 2.52 1.79h.1a2.79 2.79 0 0 0 2.49-2.07 13.49 13.49 0 0 0-3.42-12.85c-3-2.8-6-3.13-8.92-3.46-2.66-.29-5.17-.57-8.07-2.71-1.44-1.06-2.81-2.28-4.27-3.56-5-4.39-10.58-9.35-20.25-9h-.59c-9.65-.33-15.3 4.65-20.24 9-1.45 1.28-2.83 2.5-4.27 3.56-2.89 2.14-5.41 2.42-8.07 2.71-2.93.32-6 .66-8.92 3.46a13.5 13.5 0 0 0-3.46 12.82 2.66 2.66 0 0 0 5.11.28 15.93 15.93 0 0 1 1.52-2.52h.09a30.83 30.83 0 0 1 13.42 3.88c7.7 4.65 18.7 5.17 23.27 5.17h3.62c4.57 0 15.57-.52 23.27-5.17a30.82 30.82 0 0 1 13.46-3.85zm-77.35-7.46c1.9-1.79 3.79-2 6.41-2.29a19 19 0 0 0 10.17-3.53c1.59-1.18 3.1-2.51 4.56-3.8 4.62-4.08 9-7.94 16.58-7.94h1.44c8-.24 12.53 3.71 17.31 7.93 1.46 1.29 3 2.62 4.56 3.8a19 19 0 0 0 10.17 3.53c2.62.29 4.51.5 6.41 2.3a7.85 7.85 0 0 1 2 3.18c-6.61-7-16.75-4.59-25.87-2.42-4.66 1.11-9.46 2.25-13.89 2.32a1.94 1.94 0 0 0-.46 0h-1.16a1.83 1.83 0 0 0-.46 0c-4.43-.07-9.23-1.21-13.89-2.32-9.12-2.17-19.27-4.59-25.88 2.42a7.87 7.87 0 0 1 2-3.18zm38.91 12.11h-.32c-1.95.06-14.67.28-22.62-4.52a32.3 32.3 0 0 0-11.06-3.94c4.4-1.67 10.28-.49 18 1.34 5.26 1.25 10.7 2.54 15.94 2.43 5.27.11 10.68-1.18 15.94-2.43 7.68-1.83 13.56-3 18-1.34a32.31 32.31 0 0 0-11.14 3.94c-8.16 4.93-21.33 4.57-22.74 4.52z"/><path class="cls-2" d="M334.29 224.52c46.92-8.23 81.32-35 81.32-66.69S389 96.7 338.27 89.78a43.59 43.59 0 0 0-74.55 0c-50.76 6.92-77.35 36.3-77.35 68s34.58 58.59 81.67 66.75a36.9 36.9 0 0 1 1.2 3.83c4.29 16.86 3.07 83.41 2.73 98.53a20.22 20.22 0 0 0-13.19 7.42c-3.35 4.24-4.63 9.63-3.7 15.58l.16 1 .06.38c-1.73 2.39-6.3 9.82-4.42 19.26 1.94 9.7 10 18.27 24 25.45a44.45 44.45 0 0 0 20.53 4.77c13.21 0 25-5 30.6-8.06a23.9 23.9 0 0 0 3.74 6.38c7.5 9.18 29.84 10.5 30.78 10.56h.12a2.17 2.17 0 0 0 1.75-.88c.4-.55 9.24-12.76 5.55-23.43a98.2 98.2 0 0 0 9-4.63 2.17 2.17 0 0 0 .91-2.68c-.23-.58-5.78-13.71-23.61-15.32a24.92 24.92 0 0 0-.58-8.43c1.63-1.72 2.41-4.11.74-7.77a15.07 15.07 0 0 0-1.17-2.1v-.06a14.2 14.2 0 0 0-7.57-5.46c-.31-.11-.7-.25-1-.38a11.15 11.15 0 0 0 .59-1.62 5.41 5.41 0 0 0 .38-1.85 11 11 0 0 0-1-6.21 8.83 8.83 0 0 0-6.3-4.79c-2.4-.46-5 .32-8 2.36-.35-16.07-1.5-81.35 2.74-98a36.87 36.87 0 0 1 1.21-3.86zm-57.44 167.67c-12.7-6.53-20-14.06-21.68-22.38a19.81 19.81 0 0 1 1.31-11.63 28.11 28.11 0 0 0 2.82 8.41c.13.29 12.59 27 45 29.07-8.5 1.47-18.3 1.23-27.45-3.47zm35-.79c-15 .84-25.94-3.68-33.6-9.21a65.57 65.57 0 0 0 25.16 4.72c9.34 0 18-1.71 24.15-4.21 7.76-3.18 12.13-7.63 12.31-12.54.31-8.2 4.82-10.51 9.18-12.74l.8-.41c.87 5.58-.53 10.95-4.2 16-8.11 11.09-25.15 17.92-33.83 18.39zm47.72 13.88c-6.71-.53-21.54-2.88-26.44-8.88a19.67 19.67 0 0 1-3.3-5.81 62.8 62.8 0 0 0 7.78-4.38 24.07 24.07 0 0 0 5.34 3.22 14.85 14.85 0 0 0 6 1.1c4.75 0 10.19-1.56 15-3.45 2.16 6.98-2.62 15.39-4.42 18.2zM353.41 367c12 .92 17.59 7.77 19.56 11-7 3.8-21.53 10.39-28.32 7.42a20 20 0 0 1-3.38-1.9 41.36 41.36 0 0 0 7.86-8 28 28 0 0 0 4.28-8.52zm-9.27-24l.48.18c-3 1.19-5.74 3.6-8.2 5.74-4.27 3.72-7.24 6.07-9.71 4.92l-.27-.14c.75-1.47 5.13-4.57 7.82-6.47a82.4 82.4 0 0 0 7.24-5.51 9.51 9.51 0 0 0 2.65 1.28zm-6.66-14.66a4.51 4.51 0 0 1 3.25 2.48 6.74 6.74 0 0 1 .27 5c-1.23 2.15-6.14 5.62-9.24 7.82-5.61 4-10 7.1-9.74 10.56a4.32 4.32 0 0 0 2.86 3.54 7.34 7.34 0 0 0 3.14.71c4 0 7.83-3.31 11.26-6.29 4.66-4.06 7.75-6.44 10.61-4.94a11.07 11.07 0 0 1 .58 1.09c1.19 2.62.68 3.09-3.44 5.2-4.43 2.27-11.14 5.7-11.54 16.44-.11 3-3.71 6.26-9.62 8.69-12.57 5.16-36.79 6.72-53.24-4.35 3.65 1 19.3 5 31 1 4.1-1.41 8.33-3.31 8.58-6.69.23-3.14-3.17-5.27-5.74-6.6-4.3-2.22-9.62.26-15.79 3.14-5.65 2.64-12.05 5.62-17.79 4.76-10.5-1.62-11.25-6.51-13.27-19.57l-.16-1c-.74-4.8.21-8.91 2.82-12.22a15.84 15.84 0 0 1 10.09-5.77c1.18-.14 1-.58 1.59 1 1.67 2 3.78 6.53 5.17 9.55 2.66 5.77 5.41 11.73 9.18 14.65 8.47 6.56 24.93-3.93 33-14.34 7.49-9.85 12.95-14.48 16.18-13.85zm-52.43 43.96c2.57-1 5.07-2.12 7.44-3.23 4.91-2.29 9.55-4.47 12-3.22 2.6 1.34 3.23 2.18 3.37 2.43-.19.29-1.17 1.35-5.63 2.89-5.31 1.83-11.72 1.75-17.18 1.13zm43.81-145c-4.93 19.36-2.92 97.88-2.79 102.66a89.33 89.33 0 0 0-8.26 9.44c-7.5 9.68-21.39 17.84-26.9 13.57-2.93-2.27-5.57-8-7.89-13-2.21-4.79-4.23-9.1-6.71-11.37.29-11.8 1.83-83-2.83-101.26-4.09-16.06-13.38-18.56-21.58-20.77-5.87-1.58-10.95-3-13.93-9.14-2.48-5.15 2.37-12.11 6.23-15.59a19 19 0 0 0 10.5 3.31 18.84 18.84 0 0 0 6.87-1.34 28.66 28.66 0 0 0 5.37-3.15c2.3-1.57 5.17-3.53 6.66-3.11a2.17 2.17 0 0 0 1.19-4.18c-3.46-1-6.93 1.39-10.3 3.7l-.16.11a23.55 23.55 0 0 0 2.62-4.13c3.92-1.12 4.45-2.56 4.45-3.71 0-1.82-1.64-2.65-4.24-3.13a16.76 16.76 0 0 0-3.58-7.36 27 27 0 0 1 2.44 1.77s0 .05.07.08c.29.21.64.49 1.06.82 2.45 1.94 7.61 6 13.64 6a14 14 0 0 0 9.35-3.74 2.17 2.17 0 1 0-2.84-3.29c-6.06 5.24-12 1.94-17.45-2.4-.43-.34-.79-.62-1.1-.85-7.84-6.38-17.21-7.94-24.45-4.07a2.16 2.16 0 0 0-.3.24c-.18.1-.4.15-.58.26a22.27 22.27 0 0 0-6.41 6.1c-2.34-.36-4.86-1.76-2.94-2 2.74-.36 7.95-5.94 3.56-4.47s-8.22-3.94-3.84-2.84 11.51-4.66 6-3.29-10.17-8.85-6.58-5.06 14.86-1.15 12.16-1.48c-5.08-.63-9.4-9.07-3.23-5 4.83 3.17 21.39-2.39 14.48-.6s-10.53-7.58-7.51-5.28 19.46 1.54 14.77 0-12.85-6.41-6-3.94c5.47 2 15.29 2.37 18.05 2.59-2.17-1.12-6.2-8.59-5.45-8.34s9.87 5.75 16.44 6 1.64 0 1.64 0-7.12-6.3-3-4.39 9.87 4.39 9.87 4.39-1.92-8.77 0-6a42.25 42.25 0 0 0 3.79 4.67l2.19-6.06 1.63 6.06a42.26 42.26 0 0 0 3.79-4.67c1.92-2.73 0 6 0 6s5.76-2.47 9.87-4.39-3 4.39-3 4.39-4.93.27 1.64 0 15.62-5.76 16.44-6-3.28 7.22-5.45 8.34c2.77-.22 12.58-.62 18.06-2.59 6.85-2.47-1.31 2.4-6 3.94s11.76 2.3 14.77 0-.61 7.07-7.51 5.28 9.65 3.77 14.48.6c6.17-4.06 1.85 4.38-3.23 5-2.7.33 8.56 5.28 12.16 1.48s-1.1 6.43-6.58 5.06 1.64 4.39 6 3.29.55 4.31-3.84 2.84.82 4.11 3.56 4.47c1.92.26-.6 1.65-2.94 2a22.27 22.27 0 0 0-6.41-6.1c-.18-.11-.4-.16-.58-.26a2.12 2.12 0 0 0-.29-.24c-7.25-3.87-16.62-2.32-24.45 4.07-.32.23-.67.51-1.1.85-5.48 4.33-11.39 7.62-17.45 2.39a2.17 2.17 0 1 0-2.84 3.29 14 14 0 0 0 9.35 3.74c6 0 11.19-4.08 13.64-6 .42-.33.77-.61 1.06-.82 0 0 0-.05.07-.08a27.16 27.16 0 0 1 2.44-1.77 16.77 16.77 0 0 0-3.58 7.36c-2.6.49-4.24 1.31-4.24 3.13 0 1.15.53 2.59 4.45 3.71a23.55 23.55 0 0 0 2.62 4.13l-.16-.11c-3.37-2.3-6.84-4.68-10.3-3.7a2.17 2.17 0 0 0 1.19 4.18c1.49-.42 4.36 1.53 6.66 3.11a28.65 28.65 0 0 0 5.37 3.15 18.82 18.82 0 0 0 6.87 1.33 19 19 0 0 0 10.5-3.3c3.86 3.48 8.71 10.45 6.23 15.59-3 6.19-8.06 7.56-13.93 9.14-8.14 2.21-17.43 4.72-21.52 20.78zm-78.76-47.39a12.57 12.57 0 0 1-1-24.38 29.77 29.77 0 0 0 1 24.38zm103.08-24.38a12.57 12.57 0 0 1-1 24.38 29.77 29.77 0 0 0 1-24.38z"/><path class="cls-2" d="M342.81 315.51c.44-4.93 1.08-9.85 1.26-14.79.28-7.75.33-15.51.34-23.27 0-5.4-.36-10.8-.32-16.2 0-5.79.4-11.57.53-17.35 0-1.31-.41-2.63-.38-3.94s.28-3.3.67-3.36c1.56-.23 3.87-.44 4.73.46 7.18 7.46 12.8 15.9 14.64 26.36a96.76 96.76 0 0 1 .25 32.57 117.49 117.49 0 0 1-2.81 14c-1.45 5-5.14 8.33-9.58 10.91-3.13 1.81-6.21 1.35-9.35.17zm6.67-69.78c0 11.58.07 23.16 0 34.75-.07 9.08-.3 18.16-.55 27.24-.07 2.64-.54 5.27-.66 7.92-.1 2.28 1.24 2.8 2.91 1.59a15.2 15.2 0 0 0 3.55-3.75 30.8 30.8 0 0 0 5.14-17.06c.13-10-.18-20-.68-29.95-.42-8.02-4.36-14.69-9.71-20.74zm229.4 53.75a16.2 16.2 0 0 1-1.61 6.46c-1.73 4-9.35 7.52-16.62 7.7-1.76 0-4.15-.5-4.94-1.25-1.84-1.74-3.59-3.67-4.12-5.7-1.87-7.23-3-14.56-4.81-21.81a24.71 24.71 0 0 1 1.09-14.88c2.15-5.72 8.92-6.35 16.57-6.79a7 7 0 0 1 2.21.38c4.93 1.38 7.74 3.79 8.51 6.76 5.06 12.17 3.67 24.98 3.72 29.13zm-7.06-17c-.82-4.15-.58-5.59-1.54-8.87a8.47 8.47 0 0 0-5.25-5.7c-4-1.69-8.18-.89-10.21 2a5 5 0 0 0-1.15 2.31c-.18 4.37-1.26 6.85-.82 11.16.53 5.22 1.77 10.36 2.82 15.53a43.35 43.35 0 0 0 1.86 6.62 23.38 23.38 0 0 0 2.53 4.54c.66 1 1.93 1.12 3.84.43 4.8-1.72 8.6-3.72 8.81-7a46.81 46.81 0 0 0 .49-6c-.35-5.28-.95-10.5-1.38-14.99zm-100.48-30.96c.4 2.89.73 5.53 1.13 8.16 1.67 11.08 7.48 53.19 9 60.66.37 1.8 0 2.7-1.67 3s-3.37.47-3.75-1.81c-1.47-8.92-5.91-41.86-6.74-46.94l-3.28-20.19a12.74 12.74 0 0 0-.38-1.31l-4 1c-.12 8.32-.65 35.92-.52 44a51.67 51.67 0 0 1-.26 7.86c-.85 4.4-2.91 2.35-3.67.69-.55-1.22-.84-7.15-.88-8.48-.19-7.13-.69-43.35-.75-48.82-.06-5.7.11-11.4.28-17.1a2.6 2.6 0 0 1 1-1.9c5-3.13 19.73-.16 23.43 4.63 4.54 5.89 1.08 14.57-6.42 16.09-.68.17-1.38.27-2.52.46zm-9.65-.64c4.07-1.7 7.88-3 11.34-4.83 2.81-1.51 3.78-4.36 3.15-7.45a6.6 6.6 0 0 0-5.25-5.2 41.33 41.33 0 0 0-7.15-1.29 2.94 2.94 0 0 0-2.18 1.88c-.13 5.31.02 10.62.09 16.89zm82.45 53.9c-.28 8.51-6.55 15.64-14.19 18.49-1.53.57-3.56.06-5.34-.29-.46-.09-1.14-1.51-1.23-2.31-1.56-13.87-3-27.75-4.57-41.62-.81-7-2-14-2.89-21-.72-5.68-4-21.66-1-21.66 1.37 0 3.42-.62 4.31.26 9.43 9.29 18.64 16.91 21.2 30.46.91 4.84 4.8 23.66 3.71 37.67zM519 243c1.68 12.26 3.49 24.51 5 36.77 1.32 10.77 2.3 21.55 3.43 32.32.16 1.51.23 3 .51 4.52.14.78.58 2 1 2.18a2.62 2.62 0 0 0 2.24-.55 8.89 8.89 0 0 0 1.89-2.55c3.17-5.77 7.36-6.57 6.5-19.48-1.28-10.76-2.85-21.56-5-32.26-1.72-4.69-9.69-15.04-15.57-20.95zm-94.91-2.58c0 9.75-.08 19.45 0 29.15.1 9.15.4 42.72.6 51.87.06 2.87-1.08 4.67-4.59 4.68a10.38 10.38 0 0 1-.78-2.55c-.68-13.56-1.33-51.54-1.91-65.1-.47-11.14-.72-22.3-1.28-33.44-.35-7 .21-7.92 8.17-9.61 7.44-1.57 14.64-1.18 21.17 3.32 5.94 4.09 5.54 13.14-.92 16.26a54.84 54.84 0 0 1-10.09 3.45c-3.39.89-6.95 1.34-10.37 1.97zm-1.09-5.23c5.64 1.14 10.44-.63 15.27-2.18 2.63-.84 5-2.14 5.44-5.18.42-2.75-1.73-6-4.83-7.54-4.85-2.36-9.92-1.9-14.94-.7-.68.16-1.49 1.63-1.48 2.48.05 4.34.34 8.67.54 13.12zM385.47 318c7 2.43 12.22-.56 17.22-4.18a3.34 3.34 0 0 0 1.12-1.49c4.58-12.43 5-17.13.17-29.64-1.69-4.35-4.54-6.88-10-7.12-1.93-.09-3.83-.52-5.76-.7a6.49 6.49 0 0 1-5.84-4.09c-2.84-6.92 1.36-16.4 10.88-18.11a24.78 24.78 0 0 1 14.35 1.15c-1.25 1.9-3 1.4-4.6 1-5.85-1.37-12 .84-14.15 5.28a11.64 11.64 0 0 0-.55 9.76c.41 1 2.24 1.84 3.6 2.13 2.85.6 5.83.72 8.73 1.17a9.8 9.8 0 0 1 7.59 5.55c4.59 8.83 6 10.39 4.57 19.9a65.58 65.58 0 0 1-3.21 12.81c-2.81 7.7-14.07 12.6-23.07 10.41-1.68-.36-4.29-4.93-1.05-3.83z"/><path class="cls-2" d="M586.49 235.08c-1.25 2.2-3 1.62-4.6 1.19-5.85-1.58-12 1-14.15 6.11a15.4 15.4 0 0 0-.55 11.31c.41 1.13 2.25 2.13 3.61 2.47 2.85.7 5.83.84 8.73 1.35 3.74.66 6.07 3.07 7.58 6.43a58.55 58.55 0 0 1 4.57 32 86 86 0 0 1-3.21 14.83c-2.81 8.92-14.07 14.58-23.08 12.05-1.73-.49-3.53-.73-5.39-1.11.44-2.78 1.07-4.67 4.3-3.37 7 2.81 12.22-.65 17.22-4.85a3.87 3.87 0 0 0 1.12-1.72c4.58-14.39 5-28.76.17-43.24-1.69-5-4.54-8-10-8.25-1.93-.1-3.83-.6-5.76-.81a6.64 6.64 0 0 1-5.83-4.74c-2.84-8 1.37-19 10.88-21 4.99-1.01 9.62-.92 14.39 1.35zM397 219.73c-4.31.58-8.63 1.09-12.92 1.77a34.14 34.14 0 0 0-6.21 1.58 2.77 2.77 0 0 0-1.09 2.19c0 3.32 1 10 1.19 13.82l8.1-.83c2-.2 4.08-.32 6.1-.59s3.34.5 3.62 3.18c-1 1.3-11.6 1.53-17.66 2.33 0 3.6-2.28 47.82-1.87 53.13s4 9.51 9.06 9a64.07 64.07 0 0 1 7.64-.57c.78 0 .73 4.08-.18 4.23-2.57.43-5.24.22-7.83.58-7.6 1.08-12-2.11-12.3-10.19-.45-10.9-.19-21.82-.32-32.74-.13-11.67.36-20 .16-31.68a79.68 79.68 0 0 0-1-9.73 4.27 4.27 0 0 1 3.25-5.41c6.56-1.43 13.23-2.33 19.89-3.18.82-.07 5.1.89 2.37 3.11zm55.83 34.96c-4.31.58-8.63 1.09-12.92 1.77a34.14 34.14 0 0 0-6.21 1.54 2.77 2.77 0 0 0-1.09 2.19c0 3.32.28 11.68.48 15.54l8.1-.83c2-.2 4.08-.32 6.1-.59s3.34.5 3.62 3.18l-17.66 2.33c0 3.6-.77 24.61-.35 29.92s3.16 6.18 8.25 5.7c2.55-.24 16.38-2.83 18.92-2.76.78 0 .73 4.08-.18 4.23-2.57.43-16.52 2.4-19.1 2.77-7.6 1.08-12-2.11-12.3-10.19-.45-10.9-.19-6.75-.32-17.67-.13-11.67-.35-8.54-.54-20.21 0-2.14.14-9.4-.29-11.46a4.27 4.27 0 0 1 3.25-5.41c6.56-1.43 13.23-2.33 19.89-3.18.77-.04 4.14.6 2.35 3.13zm50.27-23.74c.81 3 1.85 6 2.38 9.13 1.94 11.36 3.6 22.76 5.56 34.11 2.4 14 5 27.87 7.51 41.81a8.34 8.34 0 0 0 .59 1.73c.93 2.19.38 4-1.85 4.7s-3.29-1-3.71-2.94c-1.47-6.95-2.94-13.89-4.3-20.86s-2.54-13.82-3.86-21.1l-8.06.71c-1.25 7.44-2.17 14.54-3.7 21.5s-3.66 13.76-5.56 20.67c-3.47.64-5.19-1-4.5-4.39 2.74-13.49 5.69-26.94 8.16-40.48 2.4-13.13 4.32-26.35 6.43-39.53.34-2.12.7-4.18 3.06-5.06zm-1.68 24.58h-.62l-2.75 18.67 6.72-.87zm51.77 11.05c-.32-.17-.53-1.73-1.2-2-.37-.13-3.25-3.81-5.14-4.47a2.79 2.79 0 0 0-3.66 1.6c-.17.52 7.52 5.47 9.34 6.44.98.57 1.64-1.05.66-1.57z"/><path class="cls-2" d="M551.35 265.54c0-.37-1.31-1.25-1.22-2 .05-.39-1.94-4.61-1.68-6.6.2-1.54 1.56-3.08 3.08-2.55 3.67 1.28 1.51 9.18 1.56 11.24.03 1.17-1.71 1.03-1.74-.09z"/><path class="cls-3" d="M326.45 353.71l.27.14c2.47 1.15 5.45-1.2 9.71-4.92 2.45-2.14 5.23-4.55 8.19-5.74l-.48-.18a9.53 9.53 0 0 1-2.63-1.29 81.82 81.82 0 0 1-7.24 5.51c-2.68 1.9-7.07 5.01-7.82 6.48zm-67.13 12.92a28.13 28.13 0 0 1-2.82-8.41 19.8 19.8 0 0 0-1.31 11.63c1.68 8.32 9 15.85 21.68 22.38 9.12 4.69 18.95 4.93 27.44 3.5-32.4-2.14-44.86-28.81-44.99-29.1zM348 390.45c-.3 0-.61.08-.9.08a12.34 12.34 0 0 1-5.4-1.1 21.46 21.46 0 0 1-4.51-3 62.9 62.9 0 0 1-7.36 4.12 19.67 19.67 0 0 0 3.3 5.81c4.33 5.31 16.4 7.75 23.78 8.61 1.63-2.86 5.28-10.29 4-16.85a38.94 38.94 0 0 1-12 2.36c-.35.05-.63-.02-.91-.03zm5.41-20.95a23.34 23.34 0 0 1-4.28 7.43 38.72 38.72 0 0 1-7.61 6.77 19.87 19.87 0 0 0 3.13 1.75c6.62 2.89 20.6-3.29 27.74-7.12-2.39-3.01-7.9-8.09-18.98-8.83zm-51.21 1.67c4.45-1.53 5.43-2.6 5.62-2.89-.14-.25-.78-1.09-3.37-2.43-2.4-1.25-7 .92-12 3.22-2.37 1.11-4.87 2.28-7.44 3.23 5.5.62 11.91.7 17.19-1.13z"/><path class="cls-3" d="M343.47 374.18a21 21 0 0 0 4.2-16l-.8.41-.56.29c-3.35 2-6.23 4.78-6.47 11.26-.16 4.34-3.62 8.33-9.78 11.39a34.69 34.69 0 0 1-4.68 2.34c-6.12 2.51-14.81 4.21-24.15 4.21a70.59 70.59 0 0 1-16.63-2c7 3.56 16 5.94 27.22 5.31 4.33-.24 10.74-2.06 17.07-5.19 5.61-3.05 10.99-7.08 14.58-12.02z"/><path class="cls-3" d="M321.24 342.1c-6 7.68-16.46 15.38-25 16.27-4.53 1.41-8.8 1.33-12-1.11-3.77-2.92-6.52-8.88-9.18-14.65-1.71-3.71-4.48-9.67-6.22-10.41a16 16 0 0 0-6.71 4.85c-2.62 3.31-3.57 7.42-2.82 12.22l.16 1c2 13.05 2.77 17.94 13.27 19.57a15.43 15.43 0 0 0 4 0 69 69 0 0 0 9.81-4c4.2-2 8-3.7 11.35-3.93 3.09-1 5.9-1.3 8.36 0s6 3.46 5.74 6.6c-.25 3.38-4.47 5.28-8.58 6.69a30.94 30.94 0 0 1-5.56 1.3c-6.86 1.89-14.77 1.36-20.77.41 11.9 6 26.49 6.61 37.93 4.63a47 47 0 0 0 6.98-2.04c5.91-2.42 9.51-5.67 9.62-8.69.4-10.74 7.1-14.17 11.54-16.44 4.12-2.11 4.63-2.58 3.44-5.2a10.47 10.47 0 0 0-.58-1.09 3.87 3.87 0 0 0-.89-.32 38 38 0 0 0-5.8 4.44c-3.43 3-7.22 6.29-11.26 6.29h-.3a9.15 9.15 0 0 1-3.63.85 7.31 7.31 0 0 1-3.14-.71 4.32 4.32 0 0 1-2.86-3.54c-.31-3.46 4.12-6.59 9.74-10.56 3.1-2.19 8-5.66 9.24-7.82a6.74 6.74 0 0 0-.27-5 4.56 4.56 0 0 0-2.9-2.36c-3.22 1.71-7.44 5.95-12.71 12.75z"/><path class="cls-2" d="M361.74 335.34a.47.47 0 0 1 .47-.47H368a5.53 5.53 0 1 1 0 11.06h-3v5.83a.49.49 0 0 1-.47.47h-2.28a.47.47 0 0 1-.47-.47zm6.1 7.57a2.56 2.56 0 0 0 2.55-2.58 2.47 2.47 0 0 0-2.55-2.41H365v5zm8.42-7.57a.47.47 0 0 1 .47-.47h7.09a5.37 5.37 0 0 1 5.41 5.33 5.47 5.47 0 0 1-3.67 5l3.4 6.3a.47.47 0 0 1-.42.72h-2.6a.42.42 0 0 1-.4-.22l-3.3-6.57h-2.75v6.32a.49.49 0 0 1-.47.47h-2.28a.47.47 0 0 1-.47-.47zm7.29 7.44a2.53 2.53 0 0 0 2.46-2.53 2.47 2.47 0 0 0-2.46-2.4h-4v4.94zm9.22-7.44a.47.47 0 0 1 .47-.47h10.1a.47.47 0 0 1 .47.47v2a.47.47 0 0 1-.47.47H396v4.07h6.13a.49.49 0 0 1 .47.47v2.06a.47.47 0 0 1-.47.47H396v4.34h7.34a.47.47 0 0 1 .47.47v2a.47.47 0 0 1-.47.47h-10.1a.47.47 0 0 1-.47-.47zm16.36-.34a.42.42 0 0 1 .45-.37h.4a.45.45 0 0 1 .42.25l5.46 11.71h.08l5.46-11.71a.43.43 0 0 1 .42-.25h.4a.42.42 0 0 1 .45.37l2.93 16.67a.43.43 0 0 1-.45.57h-2.26a.54.54 0 0 1-.47-.37l-1.46-9.4h-.08l-4.34 9.75a.42.42 0 0 1-.42.27h-.45a.45.45 0 0 1-.42-.27l-4.39-9.75h-.07l-1.44 9.4a.48.48 0 0 1-.45.37h-2.23a.45.45 0 0 1-.47-.57zm19.81.34a.49.49 0 0 1 .47-.47h2.31a.49.49 0 0 1 .47.47v16.42a.49.49 0 0 1-.47.47h-2.31a.49.49 0 0 1-.47-.47zm7.5 0a.49.49 0 0 1 .47-.47h2.36a.47.47 0 0 1 .47.47v10.15a3.61 3.61 0 1 0 7.22 0v-10.15a.47.47 0 0 1 .47-.47h2.36a.49.49 0 0 1 .47.47v10.32a6.91 6.91 0 0 1-13.81 0zm19.67-.34a.42.42 0 0 1 .44-.37h.4a.45.45 0 0 1 .42.25l5.46 11.71h.07l5.46-11.71a.43.43 0 0 1 .42-.25h.4a.42.42 0 0 1 .44.37l2.93 16.67a.43.43 0 0 1-.45.57h-2.26a.53.53 0 0 1-.47-.37l-1.46-9.4h-.08l-4.34 9.75a.42.42 0 0 1-.42.27h-.44a.45.45 0 0 1-.42-.27l-4.39-9.75h-.08l-1.44 9.4a.48.48 0 0 1-.44.37h-2.23a.46.46 0 0 1-.47-.57zm25.61.34a.47.47 0 0 1 .47-.47h10.09a.47.47 0 0 1 .47.47v2a.47.47 0 0 1-.47.47h-7.34v4.07h6.13a.49.49 0 0 1 .47.47v2.06a.47.47 0 0 1-.47.47h-6.13v4.34h7.34a.47.47 0 0 1 .47.47v2a.47.47 0 0 1-.47.47h-10.09a.47.47 0 0 1-.47-.47zm13.37 9.45v-1.66a.46.46 0 0 1 .47-.47h5.53a.46.46 0 0 1 .47.47v1.66a.45.45 0 0 1-.47.45h-5.53a.45.45 0 0 1-.47-.45zm10.22-9.45a.47.47 0 0 1 .47-.47h2.28a.49.49 0 0 1 .47.47v13.92h6.32a.47.47 0 0 1 .47.47v2a.47.47 0 0 1-.47.47h-9.08a.47.47 0 0 1-.47-.47zm12.44 0a.49.49 0 0 1 .47-.47h2.31a.49.49 0 0 1 .47.47v16.42a.49.49 0 0 1-.47.47h-2.31a.49.49 0 0 1-.47-.47zm15.43-.72a8.91 8.91 0 0 1 8.93 9 9.14 9.14 0 0 1-4.84 7.94l3.1 4.89a.47.47 0 0 1-.4.74h-2.63a.55.55 0 0 1-.4-.25l-2.65-4.49a9.56 9.56 0 0 1-1.12.08 8.93 8.93 0 0 1 0-17.86zm0 14.63a5.7 5.7 0 1 0-5.68-5.68 5.72 5.72 0 0 0 5.68 5.68zm12.01-13.91a.49.49 0 0 1 .47-.47H548a.47.47 0 0 1 .47.47v10.15a3.61 3.61 0 1 0 7.22 0v-10.15a.47.47 0 0 1 .47-.47h2.36a.49.49 0 0 1 .47.47v10.32a6.91 6.91 0 0 1-13.81 0zm18.11 0a.49.49 0 0 1 .47-.47h2.31a.49.49 0 0 1 .47.47v16.42a.49.49 0 0 1-.47.47h-2.31a.49.49 0 0 1-.47-.47zm7.7 0a.47.47 0 0 1 .44-.47h5.88a8.68 8.68 0 1 1 0 17.36h-5.88a.47.47 0 0 1-.44-.47zm6 13.86a5.67 5.67 0 0 0 0-11.34h-2.83v11.34z"/></svg>