<svg id="Layer_1" xmlns="http://www.w3.org/2000/svg" viewBox="0 0 591 318"><style>.st0{enable-background:new}.st1{fill:#fff}.st2{fill:none;stroke:#fff;stroke-width:2}</style><g class="st0"><path class="st1" d="M165.9 35.8h22.6c13.6 0 20.6 5.5 20.6 17.3v59.2c0 10.3-7 17.3-20.6 17.3h-12.6V217h-10V35.8zm20.8 86.3c7.3 0 12.3-3.5 12.3-10.8V54.6c0-7.8-4.5-11.3-12.3-11.3h-10.8v78.8h10.8zm32.9 4.8v-24.1c0-9.8 7-12.8 17.3-12.8 9.8 0 16.6 3 16.6 12.8V217h-9v-6.3h-.5c-1.8 3.8-4.5 7.3-11.8 7.3-6.8 0-12.6-2.5-12.6-11.3v-47.9c0-11 4.8-17.6 20.8-17.6h4v-36.4c0-4-1.8-7.3-7.5-7.3-6.5 0-8.3 3.3-8.3 7.3v22.1h-9zm9 77.8c0 3.5 1.8 5.8 6.8 5.8 5.3 0 9-6 9-13.8v-47.9h-2.5c-8.5 0-13.3 2-13.3 11.5v44.4zM268 91h9v6.8h.5c1.5-3.3 6-7.8 12.6-7.8v7.5c-8 0-13.1 4.5-13.1 13.8V217h-9V91zm30.6-46.7h11v13.1h-11V44.3zm1 46.7h9v126h-9V91zm23.6-55.2h9V217h-9V35.8zm24.6 0h9V217h-9V35.8zm9.1 108.9L375.7 91h9l-18.3 53 19.1 73h-9l-19.6-72.3zm35.4-17.8v-24.1c0-9.8 7-12.8 17.3-12.8 9.8 0 16.6 3 16.6 12.8V217h-9v-6.3h-.5c-1.8 3.8-4.5 7.3-11.8 7.3-6.8 0-12.5-2.5-12.5-11.3v-47.9c0-11 4.8-17.6 20.8-17.6h4v-36.4c0-4-1.8-7.3-7.5-7.3-6.5 0-8.3 3.3-8.3 7.3v22.1h-9.1zm9 77.8c0 3.5 1.8 5.8 6.8 5.8 5.3 0 9-6 9-13.8v-47.9h-2.5c-8.5 0-13.3 2-13.3 11.5v44.4z"/></g><g class="st0"><path class="st1" d="M234.1 247.7h4.2l4.4 24.1h.1l4.4-24.1h4.2l-6.2 30.3h-4.9l-6.2-30.3zm22.2 0h4.9l6.2 30.3h-4.2l-1.4-7.7h-6.6l-1.4 7.7h-4.2l6.7-30.3zm-.5 19h5.3l-2.6-14.6h-.1l-2.6 14.6zm13.5-19h6.9c5.7 0 6.8 1.6 6.8 8.6s-1.1 8.6-6.8 8.6h-2.7V278h-4.2v-30.3zm4.2 13.6h2.2c2.9 0 3.2-.5 3.2-5s-.3-5-3.2-5h-2.2v10zm12.2-13.6h11.4v3.5h-7.2v9.5h6.8v3.5h-6.8v10.3h7.2v3.5h-11.4v-30.3zm21 0h7.3c5.2 0 6 1.8 6 7.4 0 6-1 6.9-3.8 7.3v.1c3.4.6 4 1.8 4 6.9 0 6.6-.8 8.7-7 8.7h-6.6v-30.4zm4.2 13h2.4c2.5 0 2.8-.5 2.8-5.5 0-3.4-.5-4.3-3.2-4.3h-2v9.8zm0 14h2.6c2.4 0 2.8-.7 2.8-5.5 0-4.6-.4-5.3-2.7-5.3h-2.7v10.8zm17.5-27h4.9l6.2 30.3h-4.2l-1.4-7.7h-6.6l-1.4 7.7h-4.2l6.7-30.3zm-.5 19h5.3l-2.6-14.6h-.1l-2.6 14.6zm13.5-19h6.5c6.1 0 6.8 1.6 6.8 8.3 0 4.1-.5 5.8-4 6.9v.1c2.9.3 3.8 1.8 3.8 4.6v6.6c0 1.1 0 2.6.3 3.9h-3.9c-.4-.8-.5-1.5-.5-2.7v-6.8c0-2.9-.5-3.6-3.3-3.6h-1.4v13h-4.2v-30.3zm4.3 13.6h1.1c3.3 0 3.8-.6 3.8-5.2 0-4.5-.3-4.9-2.9-4.9h-2v10.1z"/></g><path class="st2" d="M208 261.5H0m591 0H383"/></svg>