<svg id="Layer_1" data-name="Layer 1" xmlns="http://www.w3.org/2000/svg" viewBox="0 0 850 500"><defs><style>.cls-1{opacity:.85}.cls-2{fill:#0a99e0}</style></defs><title>NicVape_logo</title><g class="cls-1"><path class="cls-2" d="M719.54 364.34H130.46c-30.59 0-55.46-22.86-55.46-51v-93.67c0-28 24.29-50.85 55.3-52.11h281.6v8.23H130.46c-26.41 1.07-47.22 20.33-47.22 43.87v93.74c0 23.55 21.19 42.71 47.22 42.71h589.08c26 0 47.22-19.16 47.22-42.71v-93.73c0-23.53-20.81-42.8-47.39-43.87H472v-8.23h247.54c31.18 1.25 55.46 24.14 55.46 52.11v93.72c0 28.07-24.88 50.94-55.46 50.94z"/><path class="cls-2" d="M623.25 218.73h-53.5l-1.54 8.68q12.23.82 11 7.56l-1.47 10.87-9.59 54.33-2.26 10.83c-.57 3.21-2.63 5.41-6.13 6.59q-5.3-2.59-7.33-11.59l-20.84-90.55h-8.47l-51.32 90.44q-6.69 11.76-12.3 12.35l-3.18.4-1.53 8.69h26.92l1.53-8.69c-5.09 0-7.41-1.11-7.09-3.18q.37-2.06 4.7-9.47l5.42-9.52h35.3L524 307c1 4.77 1.43 7.68 1.25 8.74q-.51 2.85-9.65 2.86l-1.56 8.69h91l1.54-8.73c-.9 0-3.13-.17-6.64-.55-3.29-.32-5.3-1.33-5.93-3s-.21-6.66 1.23-14.89l2.89-16.3h5.42q51.76 0 58.11-36 5.12-29.09-38.41-29.09zm-132 69l20-35.21 8.28 35.21zm143.1-38.43q-4.55 25.85-30 25.85h-4.67l8.44-47.79h6.67q23.39.02 19.52 21.96z"/><path class="cls-2" d="M644.35 327.29l1.53-8.69q12.35 0 13.72-7.62l2.3-10.82 9.57-54.33 1.53-10.91q1.33-7.56-11-7.56l1.52-8.63h84.26l-4.2 23.81h-8.68l.3-2.14 1.08-6.1q1.21-6.88-10.62-6.9h-23.85l-6.59 37.45h13.12l7-.25c3.29 0 5.28-2.06 6-6.18l.54-3h8.67l-4.78 27.11H717l.6-3.44c.69-3.89-.62-5.83-3.88-5.83l-6.88-.24-13.1-.08-4.8 27.2q-2 11.22-1.28 14.82c.45 2.39 4.68 3.62 12.7 3.62h6.24l10.24-.31c3.14 0 5.13-.82 6-2.42s1.71-5.24 2.71-10.87l.47-2.71h9.74l-4.4 25zM467.42 195.33a16.74 16.74 0 0 1-4.42 10.05c-4.4 4.85-11.58 7.63-19.68 7.63s-15.29-2.78-19.67-7.63a16.7 16.7 0 0 1-4.38-9.88H133.56c-24.69 0-29.78 8.83-29.78 33.5v82.8c0 24.69 16.28 26.05 41 26.05h276.39c24.89 0 27.22-11.86 35.68-28.54l38.79-69.14c16.09-27.35 17.64-43.66-28.22-44.84zm-200.61 44.09h20.63v84.85h-20.63zm125.33 4.12q4.53 4.12 4.54 16v8.23l-20.08 3v-15.66H323v53h53.6V290l20.08 4.21v10q0 11.81-4.54 15.9t-16.87 4.12h-50.9q-12.35 0-16.78-4.21t-4.44-15.85v-44.7q0-11.84 4.44-15.94t16.78-4.12h50.92q12.33.01 16.85 4.13zm-165-35.72H250v116.45h-17.32l-80.08-72a80 80 0 0 1-9.05-9.47q1.09 11.29 1.1 18.5v63h-22.9V207.82H139l76.7 68.6a122.76 122.76 0 0 1 12.46 12.65q-1.09-16.26-1.09-20.13zm242 59L459 282.48l-7.36 11.6q-.63 1-4.4 7.55l-4.12 7.28c-.59 1-1.76 3.45-3.51 7.28l-15.7 15.45a556 556 0 0 0-12.67-64.77Q403.46 236 399.15 227T388 217.84q-11.78 0-17 17.88c-2.21-.47-3.29-1.65-3.14-3.57q.26-5.56 6.83-16 7.94-12.59 20.2-12.59 10.08 0 15.64 9.11t12.86 37.52q8.05 31.9 12.75 56.86 39.2-55 39.16-76.63 0-8.45-6.78-12.31l13.17-14.56q9 5 9 15.54.07 13.32-21.55 47.73z"/><path class="cls-2" d="M443.34 155a77.66 77.66 0 0 0 6.41 13.76c1.16 1.9 2.62 3.93 4.12 6.07 3.75 5.24 8.87 12.4 9.39 17.8a12.69 12.69 0 0 1-3.29 10c-3.61 4-9.67 6.26-16.63 6.26s-13-2.29-16.63-6.27a12.69 12.69 0 0 1-3.29-10c.54-5.39 5.66-12.56 9.4-17.8 1.54-2.14 3-4.17 4.12-6.06a77.52 77.52 0 0 0 6.39-13.76m0-33.3s-4.38 28.1-13.4 42.75c-4.12 6.7-13.74 17.29-14.73 27.37-1.39 14.08 10.7 25.33 28.14 25.33s29.53-11.24 28.14-25.33c-1-10.05-10.59-20.67-14.71-27.39-9.05-14.64-13.44-42.75-13.44-42.75z"/></g></svg>