<svg id="Layer_1" xmlns="http://www.w3.org/2000/svg" xmlns:xlink="http://www.w3.org/1999/xlink" viewBox="0 0 850 500"><style>.st0{opacity:.85}.st1{fill:#1582c5}.st2{fill:#fff}.st3{fill:#231f20}.st4{fill:#fd0}.st5{clip-path:url(#SVGID_3_)}.st6{clip-path:url(#SVGID_4_)}.st7{clip-path:url(#SVGID_9_)}.st8{clip-path:url(#SVGID_13_)}.st9{clip-path:url(#SVGID_17_)}.st10{clip-path:url(#SVGID_18_)}.st11{clip-path:url(#SVGID_23_)}.st12{clip-path:url(#SVGID_27_)}.st13{clip-path:url(#SVGID_31_)}.st14{clip-path:url(#SVGID_36_)}.st15{clip-path:url(#SVGID_37_)}.st16{clip-path:url(#SVGID_42_)}.st17{clip-path:url(#SVGID_43_)}.st18{clip-path:url(#SVGID_47_)}.st19{clip-path:url(#SVGID_51_)}.st20{clip-path:url(#SVGID_55_)}.st21{clip-path:url(#SVGID_59_)}.st22{fill:#ac206b}.st23{fill:#2c469c}.st24{fill:#775a3c}.st25{fill:#e3087f}.st26{fill:#a88a69}.st27{fill:#604530}.st28{fill:#e3cae2}.st29{fill:#60422c}.st30{fill:#ba9c80}</style><title>Artboard 2</title><g class="st0"><path class="st1" d="M-1115 364.3h-589.1c-30.6 0-55.5-22.9-55.5-51v-93.7c0-28 24.3-50.9 55.3-52.1h281.6v8.2h-281.4c-26.4 1.1-47.2 20.3-47.2 43.9v93.7c0 23.6 21.2 42.7 47.2 42.7h589.1c26 0 47.2-19.2 47.2-42.7v-93.7c0-23.5-20.8-42.8-47.4-43.9h-247.3v-8.2h247.5c31.2 1.3 55.5 24.1 55.5 52.1v93.7c0 28.2-24.9 51-55.5 51z"/><path class="st1" d="M-1211.3 218.7h-53.5l-1.5 8.7c8.2.5 11.8 3.1 11 7.6l-1.5 10.9-9.6 54.3-2.3 10.8c-.6 3.2-2.6 5.4-6.1 6.6-3.5-1.7-6-5.6-7.3-11.6l-20.8-90.6h-8.5l-51.3 90.4c-4.5 7.8-8.6 12-12.3 12.3l-3.2.4-1.5 8.7h26.9l1.5-8.7c-5.1 0-7.4-1.1-7.1-3.2.2-1.4 1.8-4.5 4.7-9.5l5.4-9.5h35.3l2.5 10.6c1 4.8 1.4 7.7 1.3 8.7-.3 1.9-3.6 2.9-9.6 2.9l-1.6 8.7h91l1.5-8.7c-.9 0-3.1-.2-6.6-.6-3.3-.3-5.3-1.3-5.9-3-.6-1.7-.2-6.7 1.2-14.9l2.9-16.3h5.4c34.5 0 53.9-12 58.1-36 3.4-19.2-9.4-29-38.5-29zm-132 69.1l20-35.2 8.3 35.2h-28.3zm143.1-38.5c-3 17.2-13 25.8-30 25.8h-4.7l8.4-47.8h6.7c15.7.1 22.2 7.4 19.6 22z"/><path class="st1" d="M-1190.2 327.3l1.5-8.7c8.2 0 12.8-2.5 13.7-7.6l2.3-10.8 9.6-54.3 1.5-10.9c.9-5-2.8-7.6-11-7.6l1.5-8.6h84.3l-4.2 23.8h-8.7l.3-2.1 1.1-6.1c.8-4.6-2.7-6.9-10.6-6.9h-23.8l-6.6 37.5h13.1l7-.2c3.3 0 5.3-2.1 6-6.2l.5-3h8.7l-4.8 27.1h-8.7l.6-3.4c.7-3.9-.6-5.8-3.9-5.8l-6.9-.2-13.1-.1-4.8 27.2c-1.3 7.5-1.7 12.4-1.3 14.8.5 2.4 4.7 3.6 12.7 3.6h6.2l10.2-.3c3.1 0 5.1-.8 6-2.4s1.7-5.2 2.7-10.9l.5-2.7h9.7l-4.4 25-86.9-.2zm-176.9-132c-.3 3.7-1.8 7.3-4.4 10.1-4.4 4.8-11.6 7.6-19.7 7.6s-15.3-2.8-19.7-7.6c-2.5-2.7-4.1-6.2-4.4-9.9H-1701c-24.7 0-29.8 8.8-29.8 33.5v82.8c0 24.7 16.3 26.1 41 26.1h276.4c24.9 0 27.2-11.9 35.7-28.5l38.8-69.1c16.1-27.5 17.7-43.8-28.2-45zm-200.6 44.1h20.6v84.9h-20.6v-84.9zm125.3 4.1c3 2.7 4.5 8.1 4.5 16v8.2l-20.1 3v-15.6h-53.6v53h53.6V290l20.1 4.2v10c0 7.9-1.5 13.2-4.5 15.9-3 2.7-8.6 4.1-16.9 4.1h-50.9c-8.2 0-13.8-1.4-16.8-4.2s-4.4-8.1-4.4-15.9v-44.7c0-7.9 1.5-13.2 4.4-15.9 3-2.7 8.5-4.1 16.8-4.1h50.9c8.3 0 13.9 1.4 16.9 4.1zm-165-35.7h22.9v116.5h-17.3l-80.1-72c-3.3-2.9-6.3-6.1-9.1-9.5.7 7.5 1.1 13.7 1.1 18.5v63h-22.9V207.8h17.3l76.7 68.6c4.5 3.9 8.6 8.1 12.5 12.7-.7-10.8-1.1-17.5-1.1-20.1v-61.2zm242 59l-10.1 15.6-7.4 11.6c-.4.6-1.9 3.2-4.4 7.5l-4.1 7.3c-.6 1-1.8 3.4-3.5 7.3l-15.7 15.5c-2.4-19-6.6-40.6-12.7-64.8-5.2-20.6-9.2-33.9-12.1-39.9s-6.6-9.1-11.1-9.1c-7.9 0-13.5 6-17 17.9-2.2-.5-3.3-1.6-3.1-3.6.2-3.7 2.5-9 6.8-16 5.3-8.4 12-12.6 20.2-12.6 6.7 0 11.9 3 15.6 9.1s8 18.6 12.9 37.5c5.4 21.3 9.6 40.2 12.8 56.9 26.1-36.6 39.2-62.2 39.2-76.6 0-5.6-2.3-9.7-6.8-12.3l13.2-14.6c6 3.4 9 8.5 9 15.5 0 9-7.2 24.9-21.7 47.8z"/><path class="st1" d="M-1391.2 155c1.7 4.8 3.8 9.4 6.4 13.8 1.2 1.9 2.6 3.9 4.1 6.1 3.7 5.2 8.9 12.4 9.4 17.8.4 3.7-.8 7.3-3.3 10-3.6 4-9.7 6.3-16.6 6.3-7 0-13-2.3-16.6-6.3-2.5-2.7-3.7-6.4-3.3-10 .5-5.4 5.7-12.6 9.4-17.8 1.5-2.1 3-4.2 4.1-6.1 2.6-4.4 4.7-9 6.4-13.8m0-33.3s-4.4 28.1-13.4 42.7c-4.1 6.7-13.7 17.3-14.7 27.4-1.4 14.1 10.7 25.3 28.1 25.3 17.4 0 29.5-11.2 28.1-25.3-1-10.1-10.6-20.7-14.7-27.4-9-14.6-13.4-42.7-13.4-42.7z"/></g><path class="st2" d="M-298 472.6c-3-.1-6.3-3.6-7.6-7.9-1.5-5 .2-8.9 6-12.9-1.7-.6-3.2-1.2-4.7-1.8.2.2.4.5.7.7-2.2 1.8-4.3 3.7-6.5 5.3-4.7 3.4-11.9 2.2-14.8-2.4-.9-1.4-1.3-3.2-2-5-.1 0-.5.1-.9.3-1.7.7-3.2.5-4.6-.6-2.4-1.9-4.8-3.8-7.1-5.8-2.4-2.1-3.8-4.7-4.7-7.7-.1-.5-.7-1-1.1-1.1-2.1-.4-4.2-.6-6.6-.9 2.6 7.5-1.8 11.4-7.8 14.8.2.3.4.8.7 1.2 2.1 2.8 2.2 5.7.4 8.8-.4.7-.5 1.7-.3 2.5.4 2.1.9 4.1 1.5 6.1.3.8 1.3 2 1.8 2 2.8-.3 3.1 1.4 3.3 3.4.1.6 0 1.2 0 2.3-1.6-1.4-2.8-2.5-4.1-3.6-1.7-1.4-3.6-1.6-5.6-.8-1.8.8-3.1 2-3.1 4.2-.1 2.7 2.1 4.5 5.1 4.9 2.6.4 5.2 1.1 6.7 3.7 1.4 2.5 1 5-.6 7-1.2 1.6-2.8 3.1-4.5 4.1-4.7 2.6-9.8 2-14.8.6-1.3-.4-2.6-.8-3.9-1.4-4-2-8-3.8-12.2-5.3-5.2-1.8-9.1-5.5-10.8-11.1-.6-2-2-3.8-3.1-5.8-2.8 2.5-5.9 2.9-9.3 2.3-1.3-.2-2.9-.2-4.2.3-4.3 1.5-8.3 1.1-12.2-1.4-1.2-.8-2.7-1.2-4-1.8 3.1-3.8 3.2-7.7.2-11.8-3.6-5-9-7.7-13.6-6.3-2.2.7-4 2.3-6 3.6-.3.2-.3.9-.2 1.3.2 1.4.4 2.8.6 4.3.2 1.8-.4 3.2-2.1 4-1.7.8-3.4 1.5-5.1 2.3-2.4-3-3.2-3.1-6.4-1.3-2.9 1.7-5.9.8-6.5-1.9-.4-1.8 0-2.3 1.8-2.2.4 0 .9.2 1.3.1.7-.3 1.6-.6 1.9-1.2.2-.4-.3-1.3-.6-1.9-.8-1.7-2-3.3-2.6-5.1-.6-1.7.7-3.4 2.4-4 .7-.2 1.5-.8 1.9-1.5 1.6-2.4 3.2-2.8 5.6-1.3 2.7 1.6 4.1 1.7 5.6.3.9-.8.9-1.5-.3-1.9-2.1-.7-3.9-1.9-3.8-4.2.1-2.5 1.6-4.4 3.9-5.5 5.8-2.6 9.5-2.4 14.1 2.3 2.7 2.8 5.7 5 9.9 4.2 5.2-.9 11.4-4.9 12.9-10.9-2.3.7-4.5 1.5-6.8 2-7.2 1.3-14.1.9-20.3-3.5-5.6-3.9-6.6-9-3.3-14.8l.5-1c-1.6 1.1-2.9 2.1-4.2 2.9-8 5.1-16.7 8.1-26 9.5-6.5 1-13.1 1.5-19.7.7-10.3-1.3-19.2-5.3-25.7-13.8-.6-.8-1.1-1.7-1.5-2.6-.8-1.6-2.1-2.1-3.6-1.2-1.4.9-2.9 1.7-4.2 2.7-1.7 1.4-.9 3.3-.4 4.8 1 3 3 4.9 6.4 5.2 3.7.4 7.2 1.6 10.1 4.1 3.9 3.4 4.6 7.4 2.1 11.9-4.1 7.1-13.7 9.7-20.3 5.4-1.7-1.1-3.1-2.7-4.3-3.7-1.9 1.7-3.6 3.7-5.6 5-1.7 1-3.5 1.7-5.2 3-4.1 3-10.8 2.3-15.1-1.6-1.6-1.4-3.2-1.9-5.1-2.3-6.8-1.4-13.3-3.5-18.8-7.8-1.8-1.4-3.4-3.2-5.3-5-2.4 1.7-4.9 3.5-7.2 5.1.7 2.1 1.6 4.1 2.1 6.2.2 1-.2 2.3-.8 3.2-1 1.5-.8 2.7-.2 4.2.6 1.7 1 3.4 1.4 5.2.3 1.4 1.2 2.2 2.5 2 2-.4 2.4.6 2.5 2.2.1.9.2 1.8.4 3.4-1.7-1.4-2.9-2.5-4.2-3.5-1.8-1.5-3.8-1.6-5.9-.6-1.8.9-2.9 2.3-2.8 4.5.1 2.3 2.2 4.4 4.7 4.5 3.7.2 5.5 3.3 3.9 6.7-1.6 3.2-4.4 5.3-7.5 6.9-4 2-8.3 3.2-12.7 1.9-2-.6-3.7-2.2-5.5-3.3-.9-.5-1.9-1.5-2.7-1.3-6.4 1-10.5-2.2-13.9-7.1-3.5-5.1-3.6-10.8-3.2-16.6 0-.5.1-1 .1-1.5 0-.2-.1-.3-.2-.7-1.2 1-2.6 1.6-2.4 3.5.1 1-.3 2.1-.7 3.1-1.5 4.2-3.3 5.1-7.8 4.2-1.4-.3-3 .1-4.3.7-3.5 1.7-7.1 3.2-11.1 2.9-.5 0-1.1.1-1.5.4-3.3 2.6-6.9 2.3-10.5 1.3-2.4-.7-3.2-2.9-3.2-5.2 0-3.5.3-7.1-.1-10.5-.3-2.5-1.3-5-2.3-7.4-.6-1.4-2-2.2-3.7-2-1.6.2-2.1 1.5-2.8 2.8-1 1.9-.3 3.6.1 5.4.6 3 0 4.3-2.7 5.6l-1.2.6c-2.7 1.4-2.7 1.4-5.4.5-1.7 3.6-5 4.2-8.4 4-2.8-.2-5.2-4.9-3.8-7.4.3-.4 1-.8 1.5-.8.7-.1 1.5.3 2.2.2 1-.2 2.2-.5 2.7-1.1.3-.3-.4-1.7-.9-2.5-.8-1.5-1.8-3-2.4-4.5-.6-1.7.6-3.5 2.2-4.1.7-.3 1.5-.8 1.9-1.4 1.3-1.9 3-3.4 5.8-1.5 1.6 1.1 3.4 1.8 5.2.4.5-.3.7-.9 1.2-1.5-1.3-.8-3.1-.9-2.9-2.8.1-1.3-.2-2.8.3-4 .9-2.4 2-4.8 3.3-7.1.5-.8 1.6-1.3 2.4-1.9.6-.4 1.2-.8 2-1.4-3-2-5.6-3.9-6.3-7.4-.7-3.4.3-6.4 2-9.4-1.9-2.5-2.9-5.3-2.7-8.5 0-.4-.5-1-.9-1.3-2.5-1.3-4.7-.8-6.8 1.1-4.4 4-9.7 5.9-15.6 6-1.6 0-2.7.4-3.7 1.6-1.9 2.3-4.4 3.2-7.3 3.2-4.4-.1-6.7-2.5-7.1-7.2-.3-3.1-.3-3.1-3.6-3.2-2.8 0-5.5-.1-8.2-.5-1.2-.2-2.5-.9-3.4-1.8-4.8-4.9-4.9-14.1 0-18.9 2.3-2.2 3.8-4.7 4.6-7.7 1-4 3.1-7.4 6.5-9.8 1.3-.9 2.9-1.7 4.5-2.1 2.1-.7 3.4-1.9 4.6-3.8 3.6-5.9 8.1-10.9 15.4-12.1 2.6-.4 5.2-.2 7.9-.2 1.4 0 2.5-.5 3.3-2.3-1.4-.7-2.8-1.5-4.3-2-5.3-1.6-9.6-4.4-12.5-9.3-.2-.4-.6-.8-1-1.2-3.4 4.6-8.2 6.3-13.5 7.4-10.8 2.2-20.1-6.6-18.5-17.5.2-1.2.4-2.5.5-3.7.2-2.5-.8-3.6-3.3-3.4-4.2.3-8.3.8-12.5 1.3-6.3.8-12.6.6-18.2-2.9-5.9-3.7-8.8-9.5-10.1-16.2-1.2-5.9.5-10.8 4.9-14.9 2.5-2.4 5-4.8 7.6-7.3-.2-.4-.5-.9-.8-1.3-.6-.7-1.3-1.4-1.8-2.2-1.1-2-1.9-4.3-3.3-6-1.4-1.7-3.7-2.5-5.2-4.1-4.3-4.5-2.6-11.9 3.4-14.1 2-.7 2.4-1.7 2.4-3.6 0-3.9-.2-7.9.4-11.8.9-6.3 3.7-11.5 10.4-13.6 1.5-.5 2.2-2.8 1.8-4.7-.6-2.4-2.2-4-4.2-5.3-3.5-2.2-7-3.2-10.9-.3-2.1 1.6-4.8 2.7-7.4 3.6-6.3 2.2-10.8.4-14.4-5.2-2.6-4.1-2-6.9 1.4-10.3 1.1-1.1 1-1.8.1-3-1.1-1.4-1.9-3-2.9-4.6-2.3-3.8-5-7.3-9-9.6-3.2-1.8-6.7-2.3-10.1-1.2-3.9 1.2-7.8 2.9-10.4 6.3-2 2.5-1.1 4.9 1.8 6.1 3.4 1.4 5.7 5.3 4.7 8-.2.7-.7 1.4-1.2 1.8-1.5 1.4-1.7 2.5-.4 4.1.4.5 1 .9 1.6 1.3 2.2 1.5 3.7 3.5 4.4 6.1.5 1.8.3 3.4-1.1 4.5-1.6 1.3-3.7 1.5-5.7.7-1.6-.6-2.3-2.1-2.4-3.7-.1-1.1 0-2.3 0-3.4 0-2.6-1.1-3.7-3.6-3.6-5.5.1-10.8-.9-15.1-4.5-4.2-3.4-6.4-7.9-5.8-13.5.3-2.5 1.7-4.3 3.6-5.7 1.6-1.2 3.5-2.2 5.3-3.1 1.5-.8 2.3-2.5 1.1-3.5-2.2-1.7-1.9-3.9-1.7-6.1.3-4.9 4.6-10.6 8.8-11.9.4-.1.7-.3 1.1-.3 1.6 0 1.8-1 1.3-2.2-2.6-5.8-1.7-11 2.2-16.1 1.7-2.3 3.7-3.9 6.2-5.2 4.1-2.2 7.4-5.2 6.8-10.4-.6-5.5 3.8-9.7 8.2-10.5 7-1.2 13.7-.3 19.7 3.9 3.6 2.6 5.2 6.4 5.7 10.8.1.6-.3 1.3-.7 1.8-.6.7-1.3 1.3-2 2-1.3 1.4-2.8 2.1-4.6 1-.3-.2-.6-.2-.9-.3-1.3-.4-2.6-.3-3.3 1-.6 1 .6 3.3 1.8 3.7 1.3.5 2.6.7 3.9 1.2.7.2 1.4.6 1.9 1.1 1.4 1.3 1.2 2.3-.4 3.3-.7.4-1.6.7-2.3 1.2-1.8 1.1-2.1 2.6-.4 3.9 2.9 2.2 4.4 5 4.2 8.7 0 .7.1 1.5.4 2 .6.7 1.4 1.6 2.1 1.7.7.1 1.9-.7 2.1-1.3.7-2.6 1.1-5.2 1.7-7.8.4-1.8.6-3.6 1.2-5.3 1.8-5.1 6.1-6.9 10.8-7.8 1.6-.3 3.2-.2 4.9-.1 1 .1 1.2-.4 1.7-1.2 2.1-3.7.3-7.2-.3-10.8-.9-5.5-.8-10.9 1.9-15.9 2.4-4.5 6.4-6.7 11.3-7.5 1.7-.2 3.4-.2 5-.4.6-.1 1.3-.5 1.5-1 1.5-3.2 2.7-6.3 2.1-10-.4-3.1.7-5.9 4.8-7.4 2-.8 2.7-2 3-3.9.7-4.2 3-7.7 5.7-11-.2 1.8-.5 3.7-.5 5.5 0 1.2.2 2.6.8 3.5 1.2 1.7 1.6 3.6 1.9 5.6.1.9.5 1.7.8 2.6.2 0 .4.1.6.1.6-.9 1.2-1.9 1.8-2.8 1.8-2.9 2.4-2.9 4.2-.4 5.3-2.4 10.5-4.9 15.8-7.3 2.6-1.1 5.3-1.9 7.8-3 .8-.3 1.6-1.1 2-1.9.6-1.4 1.2-2.2 2.9-2.1.5 0 1.5-.3 1.6-.6.2-.6-.1-1.4-.4-1.9-1.3-2.1-3.3-2.8-5.7-2.3-1 .2-2.1.4-3.1.9-4.5 2.2-7-1-8-4.4-.3-1.1-.8-1.8-1.8-2.3-3-1.3-4.1-4.4-2.8-7.4 1.1-2.6 2.8-4.7 5.3-6.1 1.2-.7 2.4-1.6 1.9-3.3-.4-1.6-1.8-2.1-3.3-2.3-1.3-.2-2.6-.2-3.9-.4-1.6-.2-2.4-1.3-2.5-2.8-.2-3.5 3-8.2 6.4-9 2.9-.7 5.6.3 8 1.7 1.2.7 2.5 1.5 3.5 2.5.7.7 1.1 1.8 1.3 2.7.2 1.3.8 1.9 2 1.4 2-.8 3.5-.1 5 1 1.5 1.2 3.1 2.3 4.6 3.6 1.8 1.6 2.8 3.6 1.9 6-.9 2.3-1.7 4.7-2.7 7-.5 1.2-.4 2.2.6 2.8 1 .6 2 0 2.5-1 .5-1.1.9-2.3 1.5-3.3 1.6-2.7 3-5.5 5-7.8 2.4-2.8 2.8-5.4 1-8.7-1.2-2.2-2.4-4.6-3-7-1.2-4.5.4-8.3 4.4-10.8 4.2-2.6 8.8-3.5 13.5-2.5 4.1.8 6.9 3.7 8.6 7.4 1 2.2 0 4.4-2.3 6.4-.6.5-1.3.9-2.1 1.4-.3-.4-.5-.7-.8-1.1-1.8-2.7-3.5-3.4-6.3-2.2-2.6 1-3.9 3.4-3.3 6.2.2.9.5 1.8 1 2.6.8 1.3 1.9 2 3.5 1.3 1-.5 2.2-.8 3-1.4 4.4-3.5 9.5-3.5 14.6-3.1 5.7.5 10.7 2.6 15.2 6.2.3.3.8.5 1.2.5 8.6.1 16.7 1.9 24.6 5.4 1.2-2.1 2.2-4.3 3.6-6.2 4-5.7 9.7-8.5 16.3-9.7 3.5-.6 7-1.5 10.6-.6 1 .2 2.3-.5 3.3-1.1 5.1-2.9 10.4-4.6 16.4-4.4 10.6.4 20.9 9.1 22.8 19.5.8 4.4.4 8.5-2.5 12-.8 1-2 1.7-3.3 2.8-.4-.9-.6-1.4-.8-1.9-1.2-3.3-2.7-4.1-6-3.2-3.8 1-5.5 2.8-5.5 6.1-.1 3.9 2.1 6.8 5.9 8.1 2.3.8 4.4.3 6.5-.8 1.6-.9 3.1-1.9 4.7-2.7.5-.3 1.2-.2 1.9-.4 0 .6.1 1.2-.1 1.7-.2.8-.5 1.5-.8 2.3-1.3 3.3-1.3 3.3-4.7 2.6-1.8-.4-3.1.4-3.9 2.3 3.7 1.7 7.4 3.3 11 5.1 10.6 5.3 20 12.3 28 21.1 2.1 2.3 3.9 4.9 5.8 7.3.3.4 1 .8 1.4.7 11.7-3.2 21 .9 28.7 9.4 1.5 1.6 2.6 3.5 3.9 5.3.4.5.7 1.1 1.3 1.3 2.5 1.1 2.3 1 3.6-1.5.9-1.7 2.3-3 3.7-4.7-.9-.4-1.9-.8-3-1.2-2.9-1.1-4.2-3.2-4.1-6.2.2-11.5 6.6-20.6 18.4-22.9.5-.1.9-.3 1.6-.5-1.1-3.1-.9-6.2.6-9.1 1.3-2.6 3.4-4.4 6-5.8.4 5.2 3.5 8.2 8 9.9 3.4 1.3 7.2-.9 7.3-4.4 0-1.1-.6-2.6-1.4-3.1-.8-.5-2.3-.1-3.4.1-.3 0-.6.4-.9.7-1.4-4.8-.5-6.7 4.1-8.5.9-.4 1.9-.7 2.8-1.1 1.8-.8 2.8-2.2 3-4.2.4-3 .9-3.5 3.8-4.2 1.8-.4 3.6-.8 5.4-1.4 3.6-1.2 4.2-2.7 2.6-6.3 1.1.3 2 .3 2.8.8 7 3.7 10.4 10.2 10.1 17.9-.1 2.3-2.6 5.5-4.2 5.9.2-2.1.8-4.4.4-6.5-.7-3.9-4.1-6.7-7.1-6.7-3.8.1-7.5 2.8-8.4 6.3-.9 3.5.7 6.4 3 8.8 1.6 1.7 3.6 3.1 5.4 4.7.3.3.7.5 1.1.6.7.2 2 .2 2.1.5.3 1.4.4 2.9.4 4.4 0 1.3-.4 2.6-.1 3.8 1.4 5.2 4 9.5 9.4 11.3 6.7 2.2 14.9-2.7 16.9-10 .9-3.1 1.1-6.2-1.1-8.9-2.8-3.3-8.2-3.6-11.5-.7-.3.3-.7.5-1 .8-1.1-2.8-.1-5.6 2.7-7.1 5.7-3 11.6-3.3 17.6-1.3 8.6 3 14.7 8.6 17.1 17.6 1.7 6.3 0 12-3.8 17.1-1.9 2.5-4.6 3.6-7.8 3.7-.3-3.2-.6-6.4-3.7-8.3-1.6-1-3.3-1.3-5.2-.8-4.5 1.2-6.6 4-5.7 8 2.3-.5 4.5-.7 6.6.5 2.1 1.3 2.6 2.6 2 5.8 2.9.3 5.8.5 8.6.8 4.8.5 9 5.8 8.9 11-.1 3.1-.5 6.2-.8 9.3-.3 2.9 1 4.2 3.8 4.3 1.6 0 2.5-.8 2.8-2.2 1.2-5.6 3.2-4.5 6.8-3.4 5.9 1.9 11 5.1 11.9 11.6.5 3.3 2.1 4.6 4.7 5.7.9.4 2.3.7 2 2.4-2.1-.9-4.1-1.7-6.1-2.6-.9 2.2-1.6 4.3-2.6 6.3-1.7 3.2-4 5.7-7.5 7-2 .7-3.9.6-5.4-.9-3.1-3.1-6.4-2.8-9.9-1-1.2.6-2.4 1.2-3.3 2.1-1.6 1.5-1.6 3.1 0 4.7.2.2.4.5.7.6 1.6 1.2 2.3 2.5 1.4 4.5-1 2.3-2.3 3.3-4.7 3.1-3-.2-5.9-.9-8.2-3.3-1.9-2-2.3-4.1-1.1-6.7.2-.4.3-.9.6-1.2 3.7-4.2 1.7-7.6-2-11.1-2-1.8-4.4-3.3-6.8-4.7-2.8-1.7-4-1.5-6.2 1-.8.9-1.4 2-2.2 3 .3.1.4.2.4.2 2.6-.5 5.1-.4 6.6 2.1s.6 5-.9 7.2c-.8 1.2-.8 2-.3 3.3 1.5 3.8 2.7 7.6 4.1 11.8 1-.1 2.1-.3 3.3-.5 4.8-.9 9.2.1 13.1 3 1.2.9 2.3 2 3.5 2.9 1.2.9 2.5 1.9 3.9 2.5 4.1 1.7 8 3.6 11.1 6.8 3.2 3.2 4.9 7 3.6 11.6-1 3.7 1 6.3 2.7 9.5-.1-6 3.4-8.7 8.8-7.2-1.5-2.8-3-5.4-4.3-8.2-2.7-5.7-4.4-11.6-3.8-17.9.9-9.1 4.8-14.6 13.2-16.5 2.2-.5 4.5-.1 7-.1.1-.5.3-1.3.5-2.2.6-4.2 2.9-6.9 7-7.8 1.4-.3 2.1-1 2.7-2.2 1-2.3 2.1-4.4 3.1-6.3-.6-.7-1.1-1.4-1.7-2.1 1-.3 2-.6 3.2-1-.5-.6-1.1-1.5-1.9-2.2-1-.9-1.1-1.7-.3-2.7 1-1.2 1.8-2.4 2.7-3.7.2 0 .4.1.6.1.1.7.4 1.3.4 2 .1 1.3 0 2.6.2 3.9.6 3.8 2.6 5.7 6.3 6.4 2.1.4 4.8-1 5.9-3.1 1-2 .5-5.3-1.2-7-2.5-2.5-2.3-3.3.8-5 9.3-5.1 22.8-1.4 27.9 8 .9 1.6 1.3 3.6 1.5 5.5.2 1.6.9 2.8 1.7 4.1 1.7 2.8 3.3 5.9 4 9.2 1.3 5.7 1.5 11.6-2.8 16.5-1.4 1.6-2.6 3.3-3.9 5.1-.8 1.1-1.6 2.4-2.5 3.7 2.5-.4 4.8-.9 7-1.2 4-.4 7.1.9 9.2 4.6.8 1.4 2.5 2.4 4 3.4 3 2.1 6.4 3.7 9.2 6 2.8 2.3 2.7 5.7 1.7 9.1-.5 1.8-.7 3.7-1 5.5-.4 3.2 1.3 5.4 3.9 7.2 2.1 1.5 4.2 3.1 6.1 4.8 1.4 1.2 1 2.9.3 4.3-1 2.1-2.1 4.1-3.3 6-1.1 1.7-1.5 3.6-.5 4 1.9.8 2.3-1 3-2 1-1.2 1.7-2.6 2.7-3.8 1.7-2 6.4-2.2 8.2-.3.2.2.3.6.3.9 0 2.3 1.6 3.3 3.4 3.9 1.8.5 3.8.7 5.7 1.2 3.6.9 6.3 4.2 6.5 7.8.1 1.5-.2 2.8-2.1 3.1-.8.1-1.5.8-2.6 1.3-.6-.7-1.3-1.5-2.1-2.4-.5-.5-.9-1.2-1.4-1.4-.8-.3-1.9-.6-2.6-.3-.6.3-1 1.4-1 2.2.1 2.7-.6 5.2-2.2 7.4-1.5 2.1-4.2 2.2-5.8.1-1.5-2-3.5-2.1-4.5-.2-.9 1.6-2 1.2-2.9.5-.7-.6-1.2-1.5-1.6-2.4-.6-1.2-.9-2.6-1.4-3.8-.7-1.6-2.1-2.2-3.8-2.2-1.6 0-2 .7-1.2 2 .7 1.1.5 2-.2 3-2.9 4.4-7.4 5.9-12.1 7-2.1.5-4.1.6-6-.6-.4-.3-1.2-.4-1.6-.1-1.7 1-3.2 2.1-4.8 3.1-.1 0-.1.1-.1.1-1.8 2.8.7 5.1 1.1 7.6.2 1.4 1.5 1.4 2.6 1.6 5.3.7 10.2 2.3 13.7 6.8 1.3 1.7 4.2 1.5 6.1 0 .7-.5 1.3-1.2 2.1-1.5 1.8-.8 3.3.2 3.4 2.1 0 .8-.1 1.6-.1 2.7.7-.2 1.4-.2 2-.4 1.7-.9 3.5-1.4 5.5-1.5 1.3-.1 2.5-1.3 3.6-2.1.7-.5 1.3-1.1 1.9-1.7.2.1.4.3.6.4-1.4 2.6-2.8 5.2-4.3 7.7-2.5 3.9-5.6 7.1-9.7 9.4-5.1 2.9-7.7 9.2-6.8 15 .7 4.1 2 7.9 4.2 11.3 1.8 2.8 1.7 5.2-.3 7.7-1.4 1.7-.8 3.6 1.3 4.1.9.2 1.9-.3 3-.5 2.5 4.4 1.1 8.5-3.9 10.5-3 1.2-6.1 1.6-9.2.7-1-.3-1.9-1.1-2.9-1.5-.6-.3-1.4-.5-1.9-.3-.4.2-.8 1.2-.7 1.7.3 1.6 1 3.2 1.2 4.9.2 1.1-.1 2.3-.3 3.4-.3 1.8-.7 3.5-1 5.3-.1.5 0 1.1-.3 1.4-1.5 1.7-1.8 3.7-1.8 5.8 0 1.8.1 3.5.2 5.6 1-.5 1.6-.6 2-1 2.1-1.5 4.4-1.5 6.8-.9 2.4.6 3.4-.3 3.1-2.7-.4-3.4.1-3.8 3.5-2.8.2-1.2.5-2.4.7-3.7.7-.1 1.3-.1 2-.2.1-.1.2-.2.2-.3.8-5 2.6-6.3 7.7-5.4 5 .9 8.8 3.6 11.6 7.8 1.1 1.7 2 3.4 3 5.2 1.3 2.3 1.1 4.6-.1 6.9-.3.6-.3 1.4-.1 2.1.2.8.8 1.4 1 2.2.9 4.1 3.1 7.3 6.7 9.6 1.3.8.8 1.9.2 2.9-.5.8-.7 1.6-1.1 2.5 1 .2 2.1.6 3 .4 1.9-.4 3.9-1 5.7-1.7 1.7-.7 2.4-2.2 1.9-4-.5-1.7.1-2.3 1.6-3.2 3.2-2 5.6-5.1 6.8-8.7 1-3.1-2.9-7.7-6.8-8.4-.7-.1-1.5-.3-2.2-.3-3.8-.2-6.4-2.1-5-7.2 1.2-4.4 3.6-8.3 6.6-11.6 2.8-3.1 6.6-3.3 10.4-2.1 2.4.7 4.7 1.7 7.1 2.5 2.5.8 3 .4 3.1-2.1.1-3 2.7-5.3 6.6-5.8 4.4-.5 8.3.5 11.5 3.7 1.7 1.7 2.2 3.6 1.4 5.6-1.2 3.2-.5 5.8 1.9 8.2 1.5 1.6 1.8 3.5.9 5.4-.9 1.7-1.2 3.4-.9 5.3.4 2.4.1 4.9.7 7.2.4 1.5 1.5 2.9 2.7 4.1 1.3 1.3 2.5 4.3 1.9 6.1-1.7 5-4.2 9.5-8.3 13-.8.7-1.9 1.1-2.9 1.6-1.9.9-3.1 2.3-3.6 4.3-.5 1.8.1 3.5 1.6 4.7 1.8 1.5 3.9 2.4 6.2 2.1 2.6-.4 4.3-2.5 4.9-5.9l.3-2.4c.6-4.6 3.2-7.3 7.8-7.2 10.9.1 18.8 5.9 20.4 17.1.2 1.3-.1 2.1-1.5 2.7-3.2 1.4-4.3 5.6-2.3 8.4.4.6.8 1.1 1.1 1.7 1.9 3.9-.1 7.3-4.5 7.3-3.1 0-2.9-.6-3.6 2.9-1 5.5-4.6 6.8-9.3 6.4-1-.1-1.9-.9-2.8-1.6 2.6-.1 4.5-1.5 6.3-3.1 1.9-1.7 2.1-3.9 1.7-6.4-.9-4.9-4.4-9-9-10-6.9-1.5-13.9 3-15.6 9.9-1 4.1-.1 7.9 1.4 11.7.2.5.8 1.1 1.3 1.2 4 .9 5.4 4.2 6.7 7.4.5 1.2.7 2.5 1 3.8.3.9.4 2.2 1.8 1.9 1.2-.3 2.5-.8 2.6-2.5 0-1 0-2.2.4-3.1 1-2.3 3.5-3 6.1-2.1 6.7 2.5 10.3 11.1 7.3 17.6-1.1 2.4-2.8 3.8-5.6 3.3-.8-.1-1.9.4-2.6.9-.9.7-1.4 1.7-2.2 2.5-2.5 2.8-4.6 3-7.7.8l-1.2-.9c-.3.2-.6.4-.9.7-3.8 3.1-8.2 2-10.1-2.6-2.1-5-8.2-5.9-11.6-1.8l-.9 1.2c-2.1 3.3-4.9 5.4-9 5.7-3 .2-6.1.7-9.1.3-4.1-.5-6.1-3.1-6.4-7.3 0-.6 0-1.2-.1-1.7-.6-2.4 0-4.3 2-5.9 1.3-1.1 1.2-2.5.2-3.9-.6-.9-1.3-1.7-2.1-2.4-2.1-1.9-3.2-1.9-5.4 0-1.3 1.1-2.4 1.3-3.7-.1-1.7-1.8-4.1-1.9-5.8-.2-1 .9-1.7 2.1-2.4 3.3-1.4 2.2-2.5 2.6-5 2.1-1.3-.3-2.8-.6-4.1-.4-5.2.8-6.6 2.1-7 8.4-.3 6.2-4 8.4-8.7 9.7-3.9 1-7.7.8-11.3-1.1-4.5-2.3-6.4-6.3-6.9-11.1-.1-1.2-.5-1.8-1.7-2.4-1.1-.5-2.2-1.3-2.8-2.3-1.7-2.6-4.2-5-3.5-8.7-3.3-.6-6.3.2-9.3 1-3.3.9-6.4 2.2-8.7 4.9-2.6 3-2.6 6.4-1.2 9.8 1.3 3 4 4.2 7.2 4.1 1.1 0 2.1-.1 3.1-.4 4.4-1.2 6-3.5 5.5-7.9 2.8.9 3.5 3.1 2.2 5.5-.6 1.1-.8 2.6-.8 3.9 0 1.1-.2 1.7-1 2.3-1.3 1.1-2.5 2.4-3.8 3.5-1.1 1-2 2.3-3.2 3-3.3 2-5.7 1.3-7.7-2-.7-1.2-1.5-2.4-2.4-3.8-.6.5-.9.8-1.1 1.1-1.5 2-2.9 2.4-5.1 1.3-.7-.4-1.4-.8-2-1.3-1.3-1.2-2.7-1.7-4.2-.6-1.4 1-1 2.4-.6 3.7-.4.8-.3 1.1-.2 1.4zm-110-37.4c1.1.6 2.2 1.1 3.3 1.8 2.4 1.4 3.8 3.5 3.9 6.2.2 3.9 1.9 6.7 5 9.1 6.8 5.2 15 6.1 21.6 2.1 7.7-4.7 8.9-13.4 2.4-19.6-2.3-2.2-5.1-3.9-7.8-5.5-2.5-1.5-3.6-1.7-5 1.5-1.7 4-6.8 5.3-10.5 3.1-1.7-1-3.3-2-5.1-2.9-4.1-1.8-6.8-.3-7.8 4.2zm-403.8-271.9c-1.7.1-3.2.3-3.9 1.9-.8 1.8-.1 4.2 1.5 5.6 2.7 2.3 4.2 2.5 6.4 1.1.5-.3 1.7-.6 1.9-.3.4.6.6 1.5.5 2.2-.3 1.1-1 2.2-1.4 3.3-1 2.4-.5 4.7 1.1 6.7 1.5 1.9 3.4 3.2 6 2.8 1.6-.2 3.2-.7 4.7-1.2 2.8-.9 3.1-1.7 2.9-4.6-.1-1.3.2-2.9.8-4.1.7-1.5.6-2.9-.5-3.7-1.7-1.2-3.7-2.7-5.6-2.7-3.7.1-6.2-1.6-8.5-4-1.6-1.7-3.6-2.9-5.9-3zm78 140.2c3.1-.3 5.5-1.5 7.1-4.1 1-1.6 1.7-3.5 2.7-5.2.6-1.1 1.4-2.2 2-3.3.3-.7.8-1.8.5-2.2-.5-.6-1.5-.9-2.4-.9-1.4 0-2.8.7-4.1.5-2.9-.5-5.8-1.4-8.7-2-.6-.1-1.5-.2-1.8.1-1.6 1.9-3.4 3.8-4.5 6.1-1.4 2.9-.1 7.6 2.3 8.7 2.2 1 4.6 1.6 6.9 2.3zm386-97c-1.1-1-2.3-2-3.5-3.1-3-2.7-6.4-3.5-10.4-2.9-2.4.4-4.8.1-7.2 0-1.2 0-2.4-.2-3.6-.3v.3c6 3.2 12 6.5 17.8 9.6l6.9-3.6z"/><path class="st2" d="M-851.5 216.4c-.5 4.3.9 7.9 3.9 10.9 3.5 3.5 7.8 3.9 11.9 1.1 3.6-2.4 6.1-2 8.6 1.5 3.8 5.5 2.6 11.2-3.6 14.7-2.2 1.3-5.1 1.5-7.6 2.4-1 .3-2.1.6-2.9 1.3-1.8 1.6-3.6 3.2-6.1 3.4-3.2.3-5.9-.8-8.1-3.1-.7-.7-1.1-2.1-1-3.1.1-1.3-.5-1.8-1.6-2.1-4.3-1.4-5.8-1.7-5.6-8.6.2-4.8 2.3-8.8 5.2-12.3 1.9-2.3 4.1-4.3 6.2-6.4.2 0 .4.1.7.3zm87.2-171.9c-3.1 5.6-5.8 10.8-9 15.8-1.9 3-2.8 5.9-2.4 9.4.1 1 .4 1.9.7 2.8 1.6 4.2-.2 6.9-4.7 7.2h-.8c-3.3 0-3.9.3-4.7 3.6-.6 2.5-1.3 5.2-1 7.7.6 5.1-4.2 6.9-8.1 5.3-2.6-1.1-4.4-3.9-4-6.7.2-1.3.6-2.5 1-3.8.6-1.7 1.7-2.4 3.6-2.4 3.5.1 4.8-2.3 3.3-5.4-2.1-4.5-2.7-9.2-1.1-14 .6-1.8 1.3-3.6 2.1-5.4.5-1 1-2.1 1.8-2.8 1.7-1.6 3.6-3.1 5.5-4.4 1.5-1.1 2.4-.7 3.2 1 1.2 2.3 1.9 2.2 3.7.3 2.5-2.7 5.2-5.2 8-7.6.6-.5 1.7-.4 2.9-.6zm588.8 278.4c-1.5 1.7-3 1.6-4.6 1.6-2.5-.1-5.1-.2-7.6.2-2 .2-3.4 1.6-3.7 3.7-.2 1.2-.9 2.1-2.1 1.9-6.4-1.3-9.5 3-12.7 7.1-2 2.6-5.4 2.7-6.8 0-.7-1.3-.4-2.3.9-2.7 2.1-.7 3.3-1.7 2.7-4.1-.1-.3.2-.9.4-1.2 3.1-4 7.6-5.6 12.5-4.2 2.7.7 3.2.5 4.8-1.7.4-.6.8-1.1 1.2-1.7.8-1.5 2.1-2 3.6-1.2 1.6.9 2.9.8 4.1-.7.3-.4 1.5-.6 2-.4 1.7 1 3.4 2.1 5.3 3.4zm-583.3 8.9c5.7.2 8.1 5.1 7.8 9.3-.1 2-3.4 5.1-6 3.5-2.8-1.7-5.4-3.7-6.2-7.1-.7-3.2 1.3-5.8 4.4-5.7zm511.2-73.3c3.1-1.6 5.7-3.2 8.5-4.3 1.2-.5 3.1-.3 4.1.4 1.4.9 1.4 2.8.8 4.3-.5 1.4-1.2 2.7-2.1 3.8-1 1.2-2.4 1.2-3.8.5-1.6-.8-3.2-1.6-4.7-2.5-.7-.5-1.5-1.2-2.8-2.2zm-588.6-73.3c.1-.3.1-1.1.4-1.7.9-2.1 2.2-2.5 3.8-1 2.4 2.2 4.4 4.7 5 8.1.2.9 1.2 1.6 1.7 2.5.3.5.6 1.3.4 1.7-.3.4-1.3.7-1.7.5-2.3-1.1-4.6-2.3-6.7-3.7-1.8-1.4-2.9-3.4-2.9-6.4zm482-87.1c2 .1 3.9 1.5 4.6 3.5.5 1.7.9 3.4-1 4.5-.8.4-2.2.8-2.7.4-1.5-1.3-3.1-2.8-4-4.5-.9-2 .8-4 3.1-3.9zm3.3 13.8c.8 1 1.5 1.7 1.9 2.6.1.2-1.1 1.3-1.2 1.2-.8-.5-1.5-1.1-2-1.9-.1-.2.7-1 1.3-1.9zm132.3 148.9c-1.7-1.6-1.6-2.7.2-3.8-.1 1.4-.1 2.6-.2 3.8z"/><path class="st3" d="M-639.1 176.2c.5-1.5 0-3.5 0-3.5s-8.4 6.9-7 8.4c1.5 1.5 6.5-3.4 7-4.9zm32.2 4.9c1.4-1.5-7-8.4-7-8.4s-.5 1.9 0 3.5c.6 1.5 5.6 6.4 7 4.9z"/><path class="st3" d="M-585.1 194.3s.1 0 0 0c.7.8 1.2 1.6 1.7 2.7.8 1.7 2.1 1.9 2.7 1.9h.1c.6 0 2-.3 2.7-2.2 1-2.6.9-9.4-3.7-13.8-3.2-3-6.4-3.4-9.6-3.7-2.9-.3-5.6-.6-8.7-2.9-1.5-1.1-3-2.4-4.6-3.8-5.3-4.7-11.4-10-21.7-9.7h-.6c-10.4-.3-16.4 5-21.7 9.7-1.6 1.4-3 2.7-4.6 3.8-3.1 2.3-5.8 2.6-8.7 2.9-3.1.3-6.4.7-9.6 3.7-4.6 4.3-4.7 11.2-3.7 13.8.7 1.9 2.1 2.2 2.7 2.2.5 0 1.9-.1 2.8-1.9.5-1 1.1-1.9 1.6-2.7h.1c3.2.2 9.2 1 14.4 4.1 8.3 5 20.1 5.5 25 5.5h3.8c4.9 0 16.7-.6 25-5.5 5.3-3 11.4-3.9 14.6-4.1zm-83-8c2-1.9 4.1-2.2 6.9-2.5 3-.3 6.8-.7 10.9-3.8 1.7-1.3 3.3-2.7 4.9-4.1 5-4.4 9.7-8.5 17.8-8.5h1.6c8.6-.3 13.4 4 18.6 8.5 1.6 1.4 3.2 2.8 4.9 4.1 4.1 3 7.9 3.5 10.9 3.8 2.8.3 4.8.5 6.9 2.5 1 1 1.7 2.2 2.1 3.4-7.1-7.5-18-4.9-27.8-2.6-5 1.2-10.1 2.4-14.9 2.5h-2.2c-4.8-.1-9.9-1.3-14.9-2.5-9.8-2.3-20.7-4.9-27.8 2.6.4-1.1 1-2.4 2.1-3.4zm41.7 13h-.3c-2.1.1-15.7.3-24.3-4.8-4-2.4-8.3-3.6-11.9-4.2 4.7-1.8 11-.5 19.3 1.4 5.6 1.3 11.5 2.7 17.1 2.6 5.7.1 11.5-1.3 17.1-2.6 8.2-2 14.5-3.2 19.3-1.4-3.5.6-7.9 1.8-11.9 4.2-8.7 5.3-22.8 4.9-24.4 4.8z"/><path class="st3" d="M-590.9 222.6c50.3-8.8 87.3-37.5 87.3-71.6 0-34.1-28.5-65.6-83-73-8.2-13.5-23-22.5-40-22.5s-31.8 9-40 22.5c-54.5 7.4-83 39-83 73 0 34.1 37.1 62.9 87.6 71.6.5 1.3.9 2.6 1.3 4.1 4.6 18.1 3.3 89.5 2.9 105.7-4.2.4-10.2 3-14.1 8-3.6 4.5-5 10.3-4 16.7l.2 1.1c0 .1 0 .3.1.4-1.9 2.6-6.8 10.5-4.7 20.7 2.1 10.4 10.7 19.6 25.7 27.3 7.3 3.7 14.8 5.1 22 5.1 14.2 0 26.8-5.4 32.8-8.7 1 2.4 2.3 4.8 4 6.8 8 9.9 32 11.3 33 11.3h.1c.7 0 1.4-.4 1.9-.9.4-.6 9.9-13.7 6-25.1 5-2.2 8.8-4.4 9.7-5 1-.6 1.4-1.8 1-2.9-.3-.6-6.2-14.7-25.3-16.4.3-3 .1-6-.6-9 1.7-1.8 2.6-4.4.8-8.3-.4-.8-.8-1.6-1.3-2.3v-.1c-2.6-3.8-6-5.1-8.1-5.9-.3-.1-.7-.3-1.1-.4.3-.6.5-1.1.6-1.7.3-.7.4-1.3.4-2 .3-2.3-.1-4.7-1.1-6.7-1.4-2.7-3.8-4.6-6.8-5.1-2.6-.5-5.4.3-8.6 2.5-.4-17.2-1.6-87.3 2.9-105.2.5-1.3.9-2.7 1.4-4zm-61.6 180c-13.6-7-21.5-15.1-23.3-24-1-4.9.1-9.3 1.4-12.5.7 3.5 1.6 6.5 3 9 .1.3 13.5 28.9 48.3 31.2-9.1 1.6-19.7 1.3-29.4-3.7zm37.5-.9c-16.1.9-27.8-3.9-36.1-9.9 8.6 3.6 18.1 5.1 27 5.1 10 0 19.4-1.8 25.9-4.5 8.3-3.4 13-8.2 13.2-13.5.3-8.8 5.2-11.3 9.8-13.7.3-.1.6-.3.9-.4.9 6-.6 11.7-4.5 17.2-8.6 11.9-26.9 19.2-36.2 19.7zm51.2 14.9c-7.2-.6-23.1-3.1-28.4-9.5-1.6-1.9-2.7-4-3.5-6.2 2.8-1.3 5.7-2.9 8.4-4.7 1.7 1.4 3.6 2.5 5.7 3.5 1.9.8 4.1 1.2 6.4 1.2 5.1 0 10.9-1.7 16.1-3.7 2.3 7.4-2.8 16.4-4.7 19.4zm-6.6-41.1c12.9 1 18.9 8.3 21 11.8-7.5 4.1-23.1 11.1-30.4 8-1.3-.6-2.5-1.3-3.6-2 3.2-2.5 6.1-5.4 8.4-8.6 2.2-3 3.7-6 4.6-9.2zm-9.9-25.7c.2.1.3.1.5.2-3.2 1.3-6.2 3.9-8.8 6.2-4.6 4-7.8 6.5-10.4 5.3-.1-.1-.2-.1-.3-.2.8-1.6 5.5-4.9 8.4-6.9 2.8-2 5.6-4 7.8-5.9.7.5 1.8.9 2.8 1.3zm-7.2-15.7c2 .4 3 1.7 3.5 2.7.8 1.6.9 3.6.3 5.4-1.3 2.3-6.6 6-9.9 8.4-6 4.3-10.8 7.6-10.4 11.3.1 1.1.7 2.7 3.1 3.8 1.1.5 2.3.8 3.4.8 4.3 0 8.4-3.5 12.1-6.8 5-4.4 8.3-6.9 11.4-5.3.2.4.4.7.6 1.2 1.3 2.8.7 3.3-3.7 5.6-4.8 2.4-12 6.1-12.4 17.6-.1 3.2-4 6.7-10.3 9.3-13.5 5.5-39.5 7.2-57.1-4.7 3.9 1.1 20.7 5.3 33.2 1 4.4-1.5 8.9-3.6 9.2-7.2.2-3.4-3.4-5.7-6.2-7.1-4.6-2.4-10.3.3-16.9 3.4-6.1 2.8-12.9 6-19.1 5.1h-.1c-11.3-1.7-12.1-7-14.2-21l-.2-1.1c-.8-5.1.2-9.6 3-13.1 3.1-3.9 7.7-5.9 10.8-6.2 1.3-.2 1-.6 1.7 1 1.8 2.1 4.1 7 5.5 10.2 2.9 6.2 5.8 12.6 9.8 15.7 9.1 7 26.8-4.2 35.4-15.4 8.2-10.4 14.1-15.3 17.5-14.6zm-56.2 47.1c2.8-1 5.4-2.3 8-3.5 5.3-2.5 10.2-4.8 12.8-3.5 2.8 1.4 3.5 2.3 3.6 2.6-.2.3-1.3 1.5-6 3.1-5.7 2-12.6 2-18.4 1.3zm47-155.5c-5.3 20.8-3.1 105-3 110.2-2.7 2.6-5.6 5.9-8.9 10.1-8 10.4-23 19.1-28.9 14.6-3.1-2.4-6-8.6-8.5-14-2.4-5.1-4.5-9.8-7.2-12.2.3-12.7 2-89-3-108.7-4.4-17.2-14.4-19.9-23.2-22.3-6.3-1.7-11.7-3.2-14.9-9.8-2.7-5.5 2.5-13 6.7-16.7 2.5 1.7 6.4 3.5 11.3 3.5 2.3 0 4.7-.4 7.4-1.4 1.9-.7 3.9-2.1 5.8-3.4 2.5-1.7 5.5-3.8 7.1-3.3 1.2.4 2.5-.4 2.9-1.6.4-1.2-.4-2.5-1.6-2.9-3.7-1.1-7.4 1.5-11.1 4-.1 0-.1.1-.2.1 1.4-1.7 2.3-3.4 2.8-4.4 4.2-1.2 4.8-2.7 4.8-4 0-2-1.8-2.8-4.5-3.4-.6-3-2-5.7-3.8-7.9.9.6 1.8 1.2 2.6 1.9 0 0 0 .1.1.1.3.2.7.5 1.1.9 2.6 2.1 8.2 6.5 14.6 6.5 3.2 0 6.6-1.1 10-4 1-.8 1.1-2.3.2-3.3-.8-1-2.3-1.1-3.3-.2-6.5 5.6-12.8 2.1-18.7-2.6-.5-.4-.8-.7-1.2-.9-8.4-6.8-18.5-8.5-26.2-4.4l-.3.3-.6.3c-3 1.9-5.3 4.2-6.9 6.5-2.5-.4-5.2-1.9-3.2-2.2 2.9-.4 8.5-6.4 3.8-4.8-4.7 1.6-8.8-4.2-4.1-3 4.7 1.2 12.4-5 6.5-3.5s-10.9-9.5-7.1-5.4c3.9 4.1 15.9-1.2 13-1.6-5.5-.7-10.1-9.7-3.5-5.4 5.2 3.4 22.9-2.6 15.5-.6-7.4 1.9-11.3-8.1-8.1-5.7 3.2 2.5 20.9 1.7 15.9 0-5-1.7-13.8-6.9-6.4-4.2 5.9 2.1 16.4 2.5 19.4 2.8-2.3-1.2-6.7-9.2-5.8-8.9.9.3 10.6 6.2 17.6 6.5 7.1.3 1.8 0 1.8 0s-7.6-6.8-3.2-4.7c4.4 2.1 10.6 4.7 10.6 4.7s-2.1-9.4 0-6.5c2.1 2.9 4.1 5 4.1 5l2.4-6.5 1.7 6.5s2-2.1 4.1-5c2.1-2.9 0 6.5 0 6.5s6.2-2.6 10.6-4.7c4.4-2.1-3.2 4.7-3.2 4.7s-5.3.3 1.8 0 16.8-6.2 17.6-6.5c.8-.3-3.5 7.7-5.8 8.9 3-.2 13.5-.7 19.4-2.8 7.4-2.6-1.4 2.6-6.4 4.2-5 1.7 12.6 2.5 15.9 0 3.2-2.5-.7 7.6-8.1 5.7-7.4-1.9 10.4 4.1 15.5.6 6.6-4.4 2 4.7-3.5 5.4-2.9.4 9.2 5.7 13 1.6 3.9-4.1-1.2 6.9-7.1 5.4-5.9-1.5 1.8 4.7 6.5 3.5 4.7-1.2.6 4.6-4.1 3-4.7-1.6.9 4.4 3.8 4.8 2.1.3-.6 1.8-3.2 2.2-1.6-2.4-3.9-4.6-6.9-6.5l-.6-.3-.3-.3c-7.8-4.2-17.8-2.5-26.2 4.4-.3.2-.7.5-1.2.9-5.9 4.6-12.2 8.2-18.7 2.6-1-.8-2.5-.7-3.3.2-.8 1-.7 2.4.2 3.3 3.4 2.9 6.8 4 10 4 6.5 0 12-4.4 14.6-6.5.4-.4.8-.7 1.1-.9 0 0 0-.1.1-.1.9-.7 1.7-1.3 2.6-1.9-1.8 2.2-3.2 4.9-3.8 7.9-2.8.5-4.5 1.4-4.5 3.4 0 1.2.6 2.8 4.8 4 .5 1.1 1.4 2.7 2.8 4.4-.1 0-.1-.1-.2-.1-3.6-2.5-7.3-5-11.1-4-1.2.4-2 1.6-1.6 2.9.4 1.2 1.6 2 2.9 1.6 1.6-.5 4.7 1.6 7.1 3.3 1.9 1.3 3.9 2.6 5.8 3.4 2.6 1 5.1 1.4 7.4 1.4 4.9 0 8.7-1.9 11.3-3.5 4.1 3.7 9.3 11.2 6.7 16.7-3.2 6.6-8.6 8.1-14.9 9.8-8.9 2.3-18.9 5-23.2 22.3zm-84.5-50.9c-6.1-1.3-10.8-6.7-10.8-13.2 0-6.1 4.1-11.3 9.7-12.9-1.5 3.7-2.3 7.7-2.3 11.9 0 5.1 1.2 9.9 3.4 14.2zm110.6-26.2c5.6 1.6 9.7 6.8 9.7 12.9 0 6.5-4.6 11.9-10.8 13.2 2.1-4.3 3.3-9.1 3.3-14.2.1-4.2-.8-8.2-2.2-11.9z"/><path class="st3" d="M-581.8 320.3c.5-5.3 1.2-10.6 1.4-15.9.3-8.3.4-16.6.4-25 0-5.8-.4-11.6-.3-17.4 0-6.2.4-12.4.6-18.6 0-1.4-.4-2.8-.4-4.2 0-1.3.3-3.5.7-3.6 1.7-.2 4.1-.5 5.1.5 7.7 8 13.7 17.1 15.7 28.3 2.1 11.6 2.2 23.3.3 34.9-.8 5-1.6 10.1-3 15-1.6 5.3-5.5 8.9-10.3 11.7-3.4 1.9-6.7 1.5-10 .2-.2-2-.2-3.9-.2-5.9zm7.2-74.9c0 12.4.1 24.9 0 37.3-.1 9.7-.3 19.5-.6 29.2-.1 2.8-.6 5.7-.7 8.5-.1 2.5 1.3 3 3.1 1.7 1.5-1.1 2.8-2.5 3.8-4 3.7-5.5 5.4-11.8 5.5-18.3.1-10.7-.2-21.4-.7-32.1-.4-8.7-4.7-15.8-10.4-22.3zm246.1 57.7c0 2.3-.7 4.6-1.7 6.9-1.9 4.3-10 8.1-17.8 8.3-1.9 0-4.5-.5-5.3-1.3-2-1.9-3.9-3.9-4.4-6.1-2-7.8-3.3-15.6-5.2-23.4-1.3-5.3-.9-10.6 1.2-15.9 2.3-6.1 9.6-6.8 17.8-7.3.8 0 1.6.2 2.4.4 5.3 1.5 8.3 4.1 9.1 7.3 5.4 12.9 3.9 26.6 3.9 31.1zm-7.5-18.2c-.9-4.5-.6-6-1.7-9.5-.7-2.4-2.1-4.6-5.6-6.1-4.2-1.8-8.8-1-11 2.1-.6.8-1.2 1.7-1.2 2.5-.2 4.7-1.4 7.3-.9 12 .6 5.6 1.9 11.1 3 16.7.5 2.4 1.1 4.8 2 7.1.6 1.7 1.7 3.3 2.7 4.9.7 1.1 2.1 1.2 4.1.5 5.1-1.8 9.2-4 9.5-7.5.1-2.1.7-4.3.5-6.4-.3-5.9-1-11.6-1.4-16.3zm-107.9-33.3c.4 3.1.8 5.9 1.2 8.8 1.8 11.9 8 57.1 9.7 65.1.4 1.9 0 2.9-1.8 3.3-1.8.4-3.6.5-4-1.9-1.6-9.6-6.3-44.9-7.2-50.4-1.2-7.2-2.3-14.4-3.5-21.7-.1-.4-.2-.8-.4-1.4-1.5.3-2.8.7-4.3 1-.1 8.9-.7 38.5-.6 47.3.1 3.2 0 6.8-.3 8.4-.9 4.7-3.1 2.5-3.9.7-.6-1.3-.9-7.7-.9-9.1-.2-7.6-.7-46.5-.8-52.4-.1-6.1.1-12.2.3-18.4 0-.7.5-1.7 1.1-2 5.4-3.4 21.2-.2 25.1 5 4.9 6.3 1.2 15.6-6.9 17.3-.8.1-1.5.2-2.8.4zm-10.3-.7c4.4-1.8 8.5-3.2 12.2-5.2 3-1.6 4.1-4.7 3.4-8-.6-3-2.7-4.8-5.6-5.6-2.5-.6-5.1-1.2-7.7-1.4-.8-.1-2.3 1.3-2.3 2-.2 5.8-.1 11.5 0 18.2zm88.5 57.9c-.3 9.1-7 16.8-15.2 19.8-1.6.6-3.8.1-5.7-.3-.5-.1-1.2-1.6-1.3-2.5-1.7-14.9-3.2-29.8-4.9-44.7-.9-7.5-2.2-15-3.1-22.5-.8-6.1-4.3-23.2-1.1-23.2 1.5 0 3.7-.7 4.6.3 10.1 10 20 18.1 22.7 32.7 1 5.1 5.1 25.3 4 40.4zm-27.1-66.4c1.8 13.2 3.7 26.3 5.4 39.5 1.4 11.6 2.5 23.1 3.7 34.7.2 1.6.2 3.2.5 4.9.2.8.6 2.2 1.1 2.3.8.2 1.8-.1 2.4-.6.8-.7 1.5-1.7 2-2.7 3.4-6.2 7.9-7.1 7-20.9-1.4-11.5-3.1-23.1-5.4-34.6-1.8-5.1-10.3-16.2-16.7-22.6zm-101.8-2.7c0 10.5-.1 20.9 0 31.3.1 9.8.4 45.8.6 55.7.1 3.1-1.2 5-4.9 5-.3-.8-.8-1.8-.8-2.7-.7-14.5-1.4-55.3-2-69.9-.5-12-.8-23.9-1.4-35.9-.4-7.5.2-8.5 8.8-10.3 8-1.7 15.7-1.3 22.7 3.6 6.4 4.4 5.9 14.1-1 17.4-3.4 1.6-7.1 2.7-10.8 3.7-3.7.9-7.5 1.4-11.2 2.1zm-1.1-5.6c6.1 1.2 11.2-.7 16.4-2.3 2.8-.9 5.3-2.3 5.8-5.6.4-2.9-1.9-6.5-5.2-8.1-5.2-2.5-10.6-2-16-.7-.7.2-1.6 1.7-1.6 2.7 0 4.6.4 9.2.6 14zM-536 323c7.5 2.6 13.1-.6 18.5-4.5.5-.4 1-1 1.2-1.6 4.9-13.3 5.4-18.4.2-31.8-1.8-4.7-4.9-7.4-10.7-7.6-2.1-.1-4.1-.6-6.2-.7-3.2-.3-5.2-1.9-6.3-4.4-3-7.4 1.5-17.6 11.7-19.4 5.3-.9 10.3-.9 15.4 1.2-1.3 2-3.2 1.5-4.9 1.1-6.3-1.5-12.9.9-15.2 5.7-1.6 3.4-2 7-.6 10.5.4 1.1 2.4 2 3.9 2.3 3.1.6 6.3.8 9.4 1.3 4 .6 6.5 2.8 8.1 6 4.9 9.5 6.4 11.1 4.9 21.4-.7 4.6-1.8 9.3-3.4 13.7-3 8.3-15.1 13.5-24.8 11.2-1.9-.7-4.7-5.6-1.2-4.4z"/><path class="st3" d="M-320.3 234c-1.3 2.4-3.2 1.7-4.9 1.3-6.3-1.7-12.9 1-15.2 6.6-1.6 4-2 8.1-.6 12.1.4 1.2 2.4 2.3 3.9 2.6 3.1.8 6.3.9 9.4 1.5 4 .7 6.5 3.3 8.1 6.9 4.9 11 6.4 22.5 4.9 34.3-.7 5.4-1.8 10.8-3.4 15.9-3 9.6-15.1 15.6-24.8 12.9-1.9-.5-3.8-.8-5.8-1.2.5-3 1.1-5 4.6-3.6 7.5 3 13.1-.7 18.5-5.2.5-.5 1-1.2 1.2-1.8 4.9-15.4 5.4-30.9.2-46.4-1.8-5.4-4.9-8.5-10.7-8.9-2.1-.1-4.1-.6-6.2-.9-3.2-.3-5.2-2.2-6.3-5.1-3-8.6 1.5-20.4 11.7-22.5 5.3-1.1 10.3-1 15.4 1.5zm-203.3-16.5c-4.6.6-9.3 1.2-13.9 1.9-2.3.4-4.5.9-6.7 1.7-.6.2-1.2 1.5-1.2 2.3 0 3.6 1.1 10.7 1.3 14.8 3-.3 5.8-.6 8.7-.9 2.2-.2 4.4-.3 6.5-.6 2.3-.3 3.6.5 3.9 3.4-1.1 1.4-12.4 1.6-19 2.5 0 3.9-2.5 51.3-2 57 .4 5.6 4.3 10.2 9.7 9.7 2.7-.3 5.5-.7 8.2-.6.8 0 .8 4.4-.2 4.5-2.8.5-5.6.2-8.4.6-8.2 1.2-12.8-2.3-13.2-10.9-.5-11.7-.2-23.4-.3-35.1-.1-12.5.4-21.5.2-34 0-2.3-.6-8.2-1.1-10.4-.7-3.4 1.3-5.3 3.5-5.8 7-1.5 14.2-2.5 21.3-3.4 1-.1 5.6.9 2.7 3.3zm59.9 37.5c-4.6.6-9.3 1.2-13.9 1.9-2.3.4-4.5.9-6.7 1.7-.6.2-1.2 1.5-1.2 2.3 0 3.6.3 12.5.5 16.7 3-.3 5.8-.6 8.7-.9 2.2-.2 4.4-.3 6.5-.6 2.3-.3 3.6.5 3.9 3.4-6.2.8-12.4 1.6-19 2.5 0 3.9-.8 26.4-.4 32.1.4 5.6 3.4 6.6 8.9 6.1 2.7-.3 17.6-3 20.3-3 .8 0 .8 4.4-.2 4.5-2.8.5-17.7 2.6-20.5 3-8.2 1.2-12.8-2.3-13.2-10.9-.5-11.7-.2-7.2-.3-19-.1-12.5-.4-9.2-.6-21.7 0-2.3.1-10.1-.3-12.3-.7-3.4 1.3-5.3 3.5-5.8 7-1.5 14.2-2.5 21.3-3.4 1 0 4.6.7 2.7 3.4zm53.9-25.5c.9 3.3 2 6.5 2.6 9.8 2.1 12.2 3.9 24.4 6 36.6 2.6 15 5.3 29.9 8.1 44.9.1.6.4 1.3.6 1.9 1 2.3.4 4.3-2 5-2.5.8-3.5-1.1-4-3.1-1.6-7.5-3.2-14.9-4.6-22.4-1.4-7.4-2.7-14.8-4.1-22.6-3 .3-5.9.5-8.7.8-1.3 8-2.3 15.6-4 23.1-1.6 7.5-3.9 14.8-6 22.2-3.7.7-5.6-1.1-4.8-4.7 2.9-14.5 6.1-28.9 8.8-43.4 2.6-14.1 4.6-28.3 6.9-42.4.4-2.3.7-4.5 3.3-5.4.6-.3 1.3-.3 1.9-.3zm-1.8 26.4h-.7c-1 6.5-1.9 13-2.9 20 2.8-.4 4.9-.6 7.2-.9-1.2-6.6-2.4-12.8-3.6-19.1zm55.6 11.9c-.3-.2-.6-1.9-1.3-2.1-.4-.1-3.5-4.1-5.5-4.8-1.6-.5-3.4.1-3.9 1.7-.2.6 8.1 5.9 10 6.9 1 .6 1.7-1.2.7-1.7z"/><path class="st3" d="M-358 266.7c0-.4-1.4-1.3-1.3-2.1.1-.4-2.1-5-1.8-7.1.2-1.7 1.7-3.3 3.3-2.7 3.9 1.4 1.6 9.8 1.7 12.1 0 1.1-1.9 1-1.9-.2z"/><path class="st4" d="M-599.3 361.3c.1 0 .2.1.3.2 2.7 1.2 5.8-1.3 10.4-5.3 2.6-2.3 5.6-4.9 8.8-6.2-.2-.1-.3-.1-.5-.2-1-.4-2-.7-2.8-1.4-2.2 2-4.9 3.9-7.8 5.9-2.9 2.1-7.6 5.4-8.4 7zm-72.1 13.8c-1.4-2.5-2.3-5.5-3-9.1-1.3 3.2-2.4 7.6-1.4 12.5 1.8 8.9 9.6 17 23.3 24 9.8 5 20.3 5.3 29.4 3.8-34.8-2.2-48.1-30.9-48.3-31.2zm95.2 25.6c-.3 0-.6.1-1 .1-2.1 0-4.1-.4-5.8-1.2-1.8-.8-3.4-1.9-4.8-3.2-2.6 1.7-5.2 3.2-7.9 4.4.8 2.2 2 4.3 3.5 6.2 4.6 5.7 17.6 8.3 25.5 9.2 1.8-3.1 5.7-11 4.3-18.1-4.3 1.5-8.8 2.5-12.9 2.5-.3.2-.6.1-.9.1zm5.8-22.5c-.9 2.7-2.4 5.4-4.6 8-2.2 2.7-5.1 5.1-8.2 7.3 1.1.7 2.2 1.4 3.4 1.9 7.1 3.1 22.1-3.5 29.8-7.6-2.5-3.3-8.5-8.8-20.4-9.6zm-55 1.8c4.8-1.6 5.8-2.8 6-3.1-.2-.3-.8-1.2-3.6-2.6-2.6-1.3-7.6 1-12.8 3.5-2.5 1.2-5.2 2.4-8 3.5 5.9.6 12.8.6 18.4-1.3z"/><path class="st4" d="M-581.1 383.2c3.9-5.4 5.4-11.2 4.5-17.2-.3.2-.6.3-.9.4l-.6.3c-3.6 2.1-6.7 5.1-6.9 12.1-.2 4.7-3.9 8.9-10.5 12.2-1.5.9-3.2 1.7-5 2.5-6.6 2.7-15.9 4.5-25.9 4.5-5.9 0-11.9-.7-17.8-2.2 7.5 3.8 17.1 6.4 29.2 5.7 4.6-.3 11.5-2.2 18.3-5.6 6-3 11.8-7.4 15.6-12.7z"/><path class="st4" d="M-604.9 348.8c-6.4 8.2-17.7 16.5-26.8 17.5-4.9 1.5-9.4 1.4-12.8-1.2-4-3.1-7-9.5-9.8-15.7-1.8-4-4.8-10.4-6.7-11.2-2.5 1-5.2 2.7-7.2 5.2-2.8 3.6-3.8 8-3 13.1l.2 1.1c2.2 14 3 19.3 14.2 21h.1c1.4.2 2.9.2 4.3 0 3.6-1 7.2-2.7 10.5-4.2 4.5-2.1 8.6-4 12.2-4.2 3.3-1.1 6.3-1.4 9 0 2.8 1.4 6.4 3.7 6.2 7.1-.3 3.6-4.8 5.7-9.2 7.2-1.9.7-3.9 1.1-6 1.4-7.4 2-15.9 1.5-22.3.4 12.8 6.4 28.4 7.1 40.7 5 2.7-.6 5.1-1.4 7.2-2.3 6.3-2.6 10.2-6.1 10.3-9.3.4-11.5 7.6-15.2 12.4-17.6 4.4-2.3 5-2.8 3.7-5.6l-.6-1.2c-.3-.2-.6-.3-1-.3-1.8 1-3.8 2.7-6.2 4.8-3.7 3.2-7.8 6.8-12.1 6.8h-.3c-1.3.6-2.6.9-3.9.9-1.1 0-2.2-.2-3.4-.8-2.3-1.1-3-2.7-3.1-3.8-.3-3.7 4.4-7.1 10.4-11.3 3.3-2.4 8.6-6.1 9.9-8.4.6-1.8.5-3.8-.3-5.4-.5-.9-1.4-2.1-3.1-2.5-3.3 1.7-7.9 6.2-13.5 13.5z"/><path class="st3" d="M-561.5 341.6c0-.3.2-.5.5-.5h6.3c3.3 0 6 2.7 6 5.9 0 3.3-2.7 6-5.9 6h-3.3v6.3c0 .3-.2.5-.5.5h-2.4c-.3 0-.5-.2-.5-.5v-17.7zm6.6 8.1c1.5 0 2.7-1.2 2.7-2.8 0-1.5-1.3-2.6-2.7-2.6h-3.1v5.3h3.1zm9-8.1c0-.3.2-.5.5-.5h7.6c3.2 0 5.8 2.6 5.8 5.7 0 2.4-1.6 4.4-3.9 5.4l3.6 6.8c.2.3 0 .8-.5.8h-2.8c-.2 0-.4-.1-.4-.2l-3.5-7.1h-3v6.8c0 .3-.2.5-.5.5h-2.4c-.3 0-.5-.2-.5-.5v-17.7zm7.8 7.9c1.4 0 2.6-1.2 2.6-2.7 0-1.4-1.2-2.6-2.6-2.6h-4.3v5.3h4.3zm9.9-7.9c0-.3.2-.5.5-.5h10.8c.3 0 .5.2.5.5v2.2c0 .3-.2.5-.5.5h-7.9v4.4h6.6c.3 0 .5.2.5.5v2.2c0 .3-.2.5-.5.5h-6.6v4.7h7.9c.3 0 .5.2.5.5v2.2c0 .3-.2.5-.5.5h-10.8c-.3 0-.5-.2-.5-.5v-17.7zm17.6-.4c0-.2.2-.4.5-.4h.4c.2 0 .4.1.5.3l5.9 12.6h.1l5.9-12.6c.1-.2.2-.3.5-.3h.4c.3 0 .5.2.5.4l3.1 17.9c.1.4-.1.6-.5.6h-2.4c-.2 0-.5-.2-.5-.4l-1.6-10.1h-.1l-4.7 10.5c-.1.2-.2.3-.5.3h-.5c-.2 0-.4-.1-.5-.3l-4.7-10.5h-.1l-1.5 10.1c0 .2-.2.4-.5.4h-2.4c-.3 0-.6-.2-.5-.6l3.2-17.9zm21.2.4c0-.3.2-.5.5-.5h2.5c.3 0 .5.2.5.5v17.6c0 .3-.2.5-.5.5h-2.5c-.3 0-.5-.2-.5-.5v-17.6zm8.1 0c0-.3.2-.5.5-.5h2.5c.3 0 .5.2.5.5v10.9c0 2.3 1.5 4 3.9 4s3.9-1.8 3.9-4v-10.9c0-.3.2-.5.5-.5h2.5c.3 0 .5.2.5.5v11.1c0 4-3.2 7.3-7.4 7.3s-7.4-3.3-7.4-7.3v-11.1zm21.1-.4c0-.2.2-.4.5-.4h.4c.2 0 .4.1.5.3l5.9 12.6h.1l5.9-12.6c.1-.2.2-.3.5-.3h.4c.3 0 .5.2.5.4l3.1 17.9c.1.4-.1.6-.5.6h-2.4c-.2 0-.5-.2-.5-.4l-1.6-10.1h-.1l-4.7 10.5c-.1.2-.2.3-.5.3h-.5c-.2 0-.4-.1-.5-.3l-4.7-10.5h-.1l-1.5 10.1c0 .2-.2.4-.5.4h-2.4c-.3 0-.6-.2-.5-.6l3.2-17.9zm27.5.4c0-.3.2-.5.5-.5h10.8c.3 0 .5.2.5.5v2.2c0 .3-.2.5-.5.5h-7.9v4.4h6.6c.3 0 .5.2.5.5v2.2c0 .3-.2.5-.5.5h-6.6v4.7h7.9c.3 0 .5.2.5.5v2.2c0 .3-.2.5-.5.5h-10.8c-.3 0-.5-.2-.5-.5v-17.7zm14.3 10.1v-1.8c0-.3.2-.5.5-.5h5.9c.3 0 .5.2.5.5v1.8c0 .3-.2.5-.5.5h-5.9c-.3 0-.5-.2-.5-.5zm11-10.1c0-.3.2-.5.5-.5h2.4c.3 0 .5.2.5.5v14.9h6.8c.3 0 .5.2.5.5v2.2c0 .3-.2.5-.5.5h-9.7c-.3 0-.5-.2-.5-.5v-17.6zm13.3 0c0-.3.2-.5.5-.5h2.5c.3 0 .5.2.5.5v17.6c0 .3-.2.5-.5.5h-2.5c-.3 0-.5-.2-.5-.5v-17.6zm16.6-.8c5.3 0 9.6 4.3 9.6 9.6 0 3.6-2.1 6.8-5.2 8.5l3.3 5.2c.2.4 0 .8-.4.8h-2.8c-.1 0-.3-.1-.4-.3l-2.8-4.8c-.4.1-.9.1-1.2.1-5.3 0-9.6-4.2-9.6-9.6-.1-5.2 4.2-9.5 9.5-9.5zm0 15.7c3.4 0 6.1-2.7 6.1-6.1 0-3.4-2.8-6.1-6.1-6.1-3.4 0-6.1 2.8-6.1 6.1s2.7 6.1 6.1 6.1zm12.9-14.9c0-.3.2-.5.5-.5h2.5c.3 0 .5.2.5.5v10.9c0 2.3 1.5 4 3.9 4 2.3 0 3.9-1.8 3.9-4v-10.9c0-.3.2-.5.5-.5h2.5c.3 0 .5.2.5.5v11.1c0 4-3.2 7.3-7.4 7.3s-7.4-3.3-7.4-7.3v-11.1zm19.4 0c0-.3.2-.5.5-.5h2.5c.3 0 .5.2.5.5v17.6c0 .3-.2.5-.5.5h-2.5c-.3 0-.5-.2-.5-.5v-17.6zm8.3 0c0-.3.2-.5.5-.5h6.3c5.1 0 9.3 4.2 9.3 9.3 0 5.2-4.2 9.3-9.3 9.3h-6.3c-.3 0-.5-.2-.5-.5v-17.6zm6.4 14.8c3.5 0 6-2.6 6-6.1 0-3.5-2.5-6.1-6-6.1h-3v12.2h3z"/><defs><path id="SVGID_1_" d="M116.4 279.3c0 23.3-6.7 52.1-38.1 60-20.5-13.6-25.8-28.6-26.3-39.7.8 10.5 7.1 18.8 18 22.5 3.3 1.1 6.5 1.7 9.6 1.7 11.5 0 21.1-7.6 25.8-21.2.8-2.4 1.2-5.2 1.2-8.4 0-5.3-1-11.6-2.6-18-.3.3-.6.5-.9.8l.5-.7s-30.3 4.8-30.3 23.8c0 3.3.9 7.1 3.1 11.4-3.6-4.2-5.1-8.9-5.1-13.7 0-10.8 7.6-22 16.3-28.6 11.4-8.6 22.7-19 25.2-21.2.4 2.1 3.6 15.4 3.6 31.3m-2.9-30.6c-.2-.3-.5-.6-.7-.9.2-.2.3-.3.4-.3 0 0 .1.5.3 1.2m-58.6 34.4c0 .1-.1.1-.1.2 0-.1 0-.1.1-.2m-.9 2.3c-.3.9-.6 1.8-.8 2.6.2-1 .5-1.9.8-2.6"/></defs><defs><path id="SVGID_2_" d="M106.3 202.3v.4c.1-.1 0-.2 0-.4m.1 2.1v-.5.5m0 1.3v-.5.5m-.1 1.4v-.3.3m-.2 1.7c0-.2 0-.3.1-.5-.1.2-.1.4-.1.5m-.2 1.5c0-.2.1-.3.1-.5-.1.2-.1.3-.1.5m-.3 1.4v-.1.1m-.7 2.8c0 .1-.1.3-.1.4 0-.1 0-.2.1-.4m.4-1.4c0 .1-.1.3-.1.4 0-.2 0-.3.1-.4m-1.3 4.1c.1-.3.2-.5.3-.8-.1.3-.2.6-.3.8m2-17.5c0 .2 0 .3.1.5 0-.2 0-.3-.1-.5m.2 1.2c0 .2 0 .3.1.5-.1-.1-.1-.3-.1-.5m-69-6.8c-5.4 16.3 1.6 38.4 7.7 58.4.4 1.3.6 2.1.6 2.1s12.7-12 25.5-21.9c12.8-9.9 23-29.9 9.9-43.4 0 0 5.8 11.4-9.8 23.5-4.4 3.4-11.1 8.2-16.7 13-2.5-10.3-3.8-19.9-1.6-26.4 5.8-17.3 19.5-25.1 35.1-19.9 9.8 3.3 15.9 10.2 17.7 19.1.4 4.5-.3 9.5-2.1 14.7-3.7 10.7-19.8 22.3-34 32.5-.2.2-.6.4-1 .7-.7.5-1.4 1.1-2 1.6-12.6 9.3-24.2 19.4-28.3 31.6-9.4 27.4 3.4 50.4 26.2 58.3 22.8 7.8 47-2.5 56.5-29.9 5.6-16.3-1.3-38.4-7.2-58.5-.3-1.3-.6-2.1-.6-2.1s-12.8 11.9-25.7 21.7c-12.9 9.8-23.2 29.7-10.3 43.3 0 0-5.7-11.4 10-23.4 4.4-3.4 11.1-8.1 16.8-12.8 2.4 10.3 3.6 19.9 1.4 26.4-5.9 17.2-19.8 24.9-35.3 19.6-15.5-5.3-21.8-19.9-15.8-37.1.2-.7.5-1.3.8-2-.2.2-.1 0 0-.4v.4c14.8-18.4 56.6-35.6 65.2-61.4 9.2-27.5-3.8-50.4-26.7-58-23-7.8-47.1 2.8-56.3 30.3"/></defs><clipPath id="SVGID_3_"><use xlink:href="#SVGID_1_" overflow="visible"/></clipPath><clipPath id="SVGID_4_" class="st5"><use xlink:href="#SVGID_2_" overflow="visible"/></clipPath><g class="st6"><defs><path id="SVGID_5_" d="M51.9 247.3h64.5v92H51.9z"/></defs><clipPath id="SVGID_6_"><use xlink:href="#SVGID_5_" overflow="visible"/></clipPath><g clip-path="url(#SVGID_6_)"><image width="492" height="343" xlink:href="B55C2D3F.jpg" transform="matrix(0 -.1902 -.1902 0 116.796 339.88)" overflow="visible"/></g></g><defs><path id="SVGID_7_" d="M54.8 283.3c-.1.1-.1.3-.2.5-.2.4-.3.8-.5 1.2.2-.5.4-1.1.7-1.7m-.7 1.7v.1c0 .1 0 .1-.1.2 0 0 0-.2.1-.3m-.9 3v.2c-.1.2-.1.5-.2.8-.7 2.9-1 5.7-1 8.3 0 .7 0 1.3.1 2v.3c-.1-.7-.1-1.5-.1-2.3-.1-2.9.3-6 1.2-9.3"/></defs><defs><path id="SVGID_8_" d="M106.3 202.3v.4c.1-.1 0-.2 0-.4m.1 2.1v-.5.5m0 1.3v-.5.5m-.1 1.4v-.3.3m-.2 1.7c0-.2 0-.3.1-.5-.1.2-.1.4-.1.5m-.2 1.5c0-.2.1-.3.1-.5-.1.2-.1.3-.1.5m-.3 1.4v-.1.1m-.7 2.8c0 .1-.1.3-.1.4 0-.1 0-.2.1-.4m.4-1.4c0 .1-.1.3-.1.4 0-.2 0-.3.1-.4m-1.3 4.1c.1-.3.2-.5.3-.8-.1.3-.2.6-.3.8m2-17.5c0 .2 0 .3.1.5 0-.2 0-.3-.1-.5m.2 1.2c0 .2 0 .3.1.5-.1-.1-.1-.3-.1-.5m-69-6.8c-5.4 16.3 1.6 38.4 7.7 58.4.4 1.3.6 2.1.6 2.1s12.7-12 25.5-21.9c12.8-9.9 23-29.9 9.9-43.4 0 0 5.8 11.4-9.8 23.5-4.4 3.4-11.1 8.2-16.7 13-2.5-10.3-3.8-19.9-1.6-26.4 5.8-17.3 19.5-25.1 35.1-19.9 9.8 3.3 15.9 10.2 17.7 19.1.4 4.5-.3 9.5-2.1 14.7-3.7 10.7-19.8 22.3-34 32.5-.2.2-.6.4-1 .7-.7.5-1.4 1.1-2 1.6-12.6 9.3-24.2 19.4-28.3 31.6-9.4 27.4 3.4 50.4 26.2 58.3 22.8 7.8 47-2.5 56.5-29.9 5.6-16.3-1.3-38.4-7.2-58.5-.3-1.3-.6-2.1-.6-2.1s-12.8 11.9-25.7 21.7c-12.9 9.8-23.2 29.7-10.3 43.3 0 0-5.7-11.4 10-23.4 4.4-3.4 11.1-8.1 16.8-12.8 2.4 10.3 3.6 19.9 1.4 26.4-5.9 17.2-19.8 24.9-35.3 19.6-15.5-5.3-21.8-19.9-15.8-37.1.2-.7.5-1.3.8-2-.2.2-.1 0 0-.4v.4c14.8-18.4 56.6-35.6 65.2-61.4 9.2-27.5-3.8-50.4-26.7-58-23-7.8-47.1 2.8-56.3 30.3"/></defs><clipPath id="SVGID_9_"><use xlink:href="#SVGID_7_" overflow="visible"/></clipPath><clipPath id="SVGID_10_" class="st7"><use xlink:href="#SVGID_8_" overflow="visible"/></clipPath><g clip-path="url(#SVGID_10_)"><image width="89" height="18" xlink:href="B55C2D3D.jpg" transform="matrix(0 -.1914 .1965 0 51.515 300.018)" overflow="visible"/></g><defs><path id="SVGID_11_" d="M106.4 204.3c0 3.8-.7 7.9-2.1 12.1-2.8 8.4-13.2 17.4-24.3 25.8-.9.7-2.2 1.7-4 3-.4.3-.9.6-1.3.9-18.5 13.9-19.9 30.8-19.9 35.6v1c-.1.2-.1.3-.1.4 0 0-.1.1-.1.2-.3.6-.5 1.1-.7 1.7 0 .1-.1.2-.1.3-.3.7-.5 1.6-.8 2.6-.9 3.3-1.3 6.4-1.3 9.4 0 .8 0 1.5.1 2.3.5 11.1 5.8 26.1 26.3 39.7-1.2.3-2.5.6-3.9.8-3.3-.4-6.6-1.1-9.9-2.3-17.7-6.1-29.3-21.2-29.3-40.5 0-5.6 1-11.6 3.1-17.8 4.2-12.1 15.7-22.3 28.3-31.6.7-.6 1.3-1.1 2-1.6.4-.3.7-.5 1-.7 14.2-10.2 30.3-21.7 34-32.5 1.5-4.3 2.2-8.5 2.2-12.3 0-.7 0-1.4-.1-2.1.7 1.9.9 5.6.9 5.6"/></defs><defs><path id="SVGID_12_" d="M106.4 205.7v-.5.5m-.5 4.6c0-.2.1-.3.1-.5-.1.2-.1.3-.1.5m-1 4.2c0 .1-.1.3-.1.4 0-.1 0-.2.1-.4m.4-1.4c0 .1-.1.3-.1.4 0-.2 0-.3.1-.4m-1.3 4.1c.1-.3.2-.5.3-.8-.1.3-.2.6-.3.8m2-17.5c0 .2 0 .3.1.5 0-.2 0-.3-.1-.5m.2 1.2c0 .2 0 .3.1.5-.1-.1-.1-.3-.1-.5m-69-6.8c-5.4 16.3 1.6 38.4 7.7 58.4.4 1.3.6 2.1.6 2.1s12.7-12 25.5-21.9c12.8-9.9 23-29.9 9.9-43.4 0 0 5.8 11.4-9.8 23.5-4.4 3.4-11.1 8.2-16.7 13-2.5-10.3-3.8-19.9-1.6-26.4 5.8-17.3 19.5-25.1 35.1-19.9 9.8 3.3 15.9 10.2 17.7 19.1.4 4.5-.3 9.5-2.1 14.7-3.7 10.7-19.8 22.3-34 32.5-.2.2-.6.4-1 .7-.7.5-1.4 1.1-2 1.6-12.6 9.3-24.2 19.4-28.3 31.6-9.4 27.4 3.4 50.4 26.2 58.3 22.8 7.8 47-2.5 56.5-29.9 5.6-16.3-1.3-38.4-7.2-58.5-.3-1.3-.6-2.1-.6-2.1s-12.8 11.9-25.7 21.7c-12.9 9.8-23.2 29.7-10.3 43.3 0 0-5.7-11.4 10-23.4 4.4-3.4 11.1-8.1 16.8-12.8 2.4 10.3 3.6 19.9 1.4 26.4-5.9 17.2-19.8 24.9-35.3 19.6-15.5-5.3-21.8-19.9-15.8-37.1.2-.7.5-1.3.8-2-.2.2-.1 0 0-.4v.4c14.8-18.4 56.6-35.6 65.2-61.4 9.2-27.5-3.8-50.4-26.7-58-23-7.8-47.1 2.8-56.3 30.3"/></defs><clipPath id="SVGID_13_"><use xlink:href="#SVGID_11_" overflow="visible"/></clipPath><clipPath id="SVGID_14_" class="st8"><use xlink:href="#SVGID_12_" overflow="visible"/></clipPath><g clip-path="url(#SVGID_14_)"><image width="746" height="377" xlink:href="B55C2D43.jpg" transform="matrix(0 -.1903 .1905 0 34.972 340.52)" overflow="visible"/></g><defs><path id="SVGID_15_" d="M123 204.3c0 5.5-.9 11.3-3 17.4-8.5 25.5-49.5 42.6-64.7 60.8 6.5-7.8 17.7-15.3 29-23.4 0 0 23.3-25.5 23.3-49.4 0-3.7-.6-7.4-1.9-11v-.1c-1.8-9-7.9-15.9-17.7-19.1-3.2-1.1-6.3-1.6-9.3-1.6-11.6 0-21.2 7.7-25.8 21.5-.8 2.3-1.1 5-1.1 8 0 5.4 1.1 11.8 2.7 18.4 1.2-.2 30.2-5.2 30.2-23.8 0-3.6-1.1-7.7-3.7-12.4 0-.1-.1-.2-.1-.2 4.2 4.4 6 9.5 6 14.7 0 10.7-7.4 21.9-16 28.6-12.4 9.6-24.8 21.3-25.5 21.9 0-.1-.1-.2-.1-.4-.6-2.4-3.7-15.6-3.7-31.4 0-24.5 7.5-55.3 43.4-61.1 2.7.4 5.5 1 8.2 2 18 5.9 29.8 21.1 29.8 40.6m-18.7 12c0 .1 0 .1 0 0-2.8 8.5-13.2 17.4-24.3 25.9-.9.7-2.2 1.7-4 3-.4.3-.9.6-1.3.9-18.5 13.9-19.9 30.8-19.9 35.6 0-4.8 1.4-21.6 19.9-35.6.4-.3.9-.6 1.3-.9 1.8-1.3 3.1-2.3 4-3 11.1-8.4 21.4-17.4 24.3-25.9 0 .1 0 .1 0 0 0 .1 0 .1 0 0m-48.9 66.1c0 .1 0 .1 0 0 0 .1 0 .1 0 0m0 .1l-.1.1s0-.1.1-.1m-.1.1s-.1 0 0 0c-.1 0 0 0 0 0m-.1 0s0 .1 0 0c0 .1 0 0 0 0m-.1.1c0 .1 0 .1 0 0 0 .1 0 .1 0 0m0 .2c-.1 0-.1 0 0 0-.1 0-.1 0 0 0m-.2.1"/></defs><defs><path id="SVGID_16_" d="M106.3 202.3v.4c.1-.1 0-.2 0-.4m.1 2.1v-.5.5m0 1.3v-.5.5m-.1 1.4v-.3.3m-.2 1.7c0-.2 0-.3.1-.5-.1.2-.1.4-.1.5m-.2 1.5c0-.2.1-.3.1-.5-.1.2-.1.3-.1.5m-1 4.2c0 .1-.1.3-.1.4 0-.1 0-.2.1-.4m-.9 2.7c.1-.3.2-.5.3-.8-.1.3-.2.6-.3.8m2-17.5c0 .2 0 .3.1.5 0-.2 0-.3-.1-.5m.2 1.2c0 .2 0 .3.1.5-.1-.1-.1-.3-.1-.5m-69-6.8c-5.4 16.3 1.6 38.4 7.7 58.4.4 1.3.6 2.1.6 2.1s12.7-12 25.5-21.9c12.8-9.9 23-29.9 9.9-43.4 0 0 5.8 11.4-9.8 23.5-4.4 3.4-11.1 8.2-16.7 13-2.5-10.3-3.8-19.9-1.6-26.4 5.8-17.3 19.5-25.1 35.1-19.9 9.8 3.3 15.9 10.2 17.7 19.1.4 4.5-.3 9.5-2.1 14.7-3.7 10.7-19.8 22.3-34 32.5-.2.2-.6.4-1 .7-.7.5-1.4 1.1-2 1.6-12.6 9.3-24.2 19.4-28.3 31.6-9.4 27.4 3.4 50.4 26.2 58.3 22.8 7.8 47-2.5 56.5-29.9 5.6-16.3-1.3-38.4-7.2-58.5-.3-1.3-.6-2.1-.6-2.1s-12.8 11.9-25.7 21.7c-12.9 9.8-23.2 29.7-10.3 43.3 0 0-5.7-11.4 10-23.4 4.4-3.4 11.1-8.1 16.8-12.8 2.4 10.3 3.6 19.9 1.4 26.4-5.9 17.2-19.8 24.9-35.3 19.6-15.5-5.3-21.8-19.9-15.8-37.1.2-.7.5-1.3.8-2-.2.2-.1 0 0-.4v.4c14.8-18.4 56.6-35.6 65.2-61.4 9.2-27.5-3.8-50.4-26.7-58-23-7.8-47.1 2.8-56.3 30.3"/></defs><clipPath id="SVGID_17_"><use xlink:href="#SVGID_15_" overflow="visible"/></clipPath><clipPath id="SVGID_18_" class="st9"><use xlink:href="#SVGID_16_" overflow="visible"/></clipPath><g class="st10"><defs><path id="SVGID_19_" d="M41.7 161.7H123v121.4H41.7z"/></defs><clipPath id="SVGID_20_"><use xlink:href="#SVGID_19_" overflow="visible"/></clipPath><g clip-path="url(#SVGID_20_)"><image width="644" height="431" xlink:href="B55C2D45.jpg" transform="matrix(0 -.1902 -.1902 0 123.488 283.577)" overflow="visible"/></g></g><defs><path id="SVGID_21_" d="M106.4 204.3c0 3.8-.7 7.8-2.1 12 1.4-4.2 2.1-8.2 2.1-12 0-1.9-.2-3.7-.5-5.5.3 1.8.5 3.6.5 5.5m-51.3 78.5s0 .1 0 0c0 .1 0 0 0 0m-.1.2c-.1 0 0 0 0 0m-.1 0"/></defs><defs><path id="SVGID_22_" d="M106.3 202.3v.4c.1-.1 0-.2 0-.4m.1 2.1v-.5.5m0 1.3v-.5.5m-.1 1.4v-.3.3m-.2 1.7c0-.2 0-.3.1-.5-.1.2-.1.4-.1.5m-.2 1.5c0-.2.1-.3.1-.5-.1.2-.1.3-.1.5m-.3 1.4v-.1.1m-.7 2.8c0 .1-.1.3-.1.4 0-.1 0-.2.1-.4m.4-1.4c0 .1-.1.3-.1.4 0-.2 0-.3.1-.4m-1.3 4.1c.1-.3.2-.5.3-.8-.1.3-.2.6-.3.8m2-17.5c0 .2 0 .3.1.5 0-.2 0-.3-.1-.5m.2 1.2c0 .2 0 .3.1.5-.1-.1-.1-.3-.1-.5m-69-6.8c-5.4 16.3 1.6 38.4 7.7 58.4.4 1.3.6 2.1.6 2.1s12.7-12 25.5-21.9c12.8-9.9 23-29.9 9.9-43.4 0 0 5.8 11.4-9.8 23.5-4.4 3.4-11.1 8.2-16.7 13-2.5-10.3-3.8-19.9-1.6-26.4 5.8-17.3 19.5-25.1 35.1-19.9 9.8 3.3 15.9 10.2 17.7 19.1.4 4.5-.3 9.5-2.1 14.7-3.7 10.7-19.8 22.3-34 32.5-.2.2-.6.4-1 .7-.7.5-1.4 1.1-2 1.6-12.6 9.3-24.2 19.4-28.3 31.6-9.4 27.4 3.4 50.4 26.2 58.3 22.8 7.8 47-2.5 56.5-29.9 5.6-16.3-1.3-38.4-7.2-58.5-.3-1.3-.6-2.1-.6-2.1s-12.8 11.9-25.7 21.7c-12.9 9.8-23.2 29.7-10.3 43.3 0 0-5.7-11.4 10-23.4 4.4-3.4 11.1-8.1 16.8-12.8 2.4 10.3 3.6 19.9 1.4 26.4-5.9 17.2-19.8 24.9-35.3 19.6-15.5-5.3-21.8-19.9-15.8-37.1.2-.7.5-1.3.8-2-.2.2-.1 0 0-.4v.4c14.8-18.4 56.6-35.6 65.2-61.4 9.2-27.5-3.8-50.4-26.7-58-23-7.8-47.1 2.8-56.3 30.3"/></defs><clipPath id="SVGID_23_"><use xlink:href="#SVGID_21_" overflow="visible"/></clipPath><clipPath id="SVGID_24_" class="st11"><use xlink:href="#SVGID_22_" overflow="visible"/></clipPath><g clip-path="url(#SVGID_24_)"><image width="445" height="274" xlink:href="B55C2D47.jpg" transform="matrix(0 -.1904 .1906 0 54.557 283.285)" overflow="visible"/></g><defs><path id="SVGID_25_" d="M106.4 204.3c0-1.9-.2-3.7-.5-5.5.3 1.8.5 3.6.5 5.5"/></defs><defs><path id="SVGID_26_" d="M106.3 202.3v.4c.1-.1 0-.2 0-.4m.1 2.1v-.5.5m0 1.3v-.5.5m-.1 1.4v-.3.3m-.2 1.7c0-.2 0-.3.1-.5-.1.2-.1.4-.1.5m-.2 1.5c0-.2.1-.3.1-.5-.1.2-.1.3-.1.5m-.3 1.4v-.1.1m-.7 2.8c0 .1-.1.3-.1.4 0-.1 0-.2.1-.4m.4-1.4c0 .1-.1.3-.1.4 0-.2 0-.3.1-.4m-1.3 4.1c.1-.3.2-.5.3-.8-.1.3-.2.6-.3.8m2-17.5c0 .2 0 .3.1.5 0-.2 0-.3-.1-.5m.2 1.2c0 .2 0 .3.1.5-.1-.1-.1-.3-.1-.5m-69-6.8c-5.4 16.3 1.6 38.4 7.7 58.4.4 1.3.6 2.1.6 2.1s12.7-12 25.5-21.9c12.8-9.9 23-29.9 9.9-43.4 0 0 5.8 11.4-9.8 23.5-4.4 3.4-11.1 8.2-16.7 13-2.5-10.3-3.8-19.9-1.6-26.4 5.8-17.3 19.5-25.1 35.1-19.9 9.8 3.3 15.9 10.2 17.7 19.1.4 4.5-.3 9.5-2.1 14.7-3.7 10.7-19.8 22.3-34 32.5-.2.2-.6.4-1 .7-.7.5-1.4 1.1-2 1.6-12.6 9.3-24.2 19.4-28.3 31.6-9.4 27.4 3.4 50.4 26.2 58.3 22.8 7.8 47-2.5 56.5-29.9 5.6-16.3-1.3-38.4-7.2-58.5-.3-1.3-.6-2.1-.6-2.1s-12.8 11.9-25.7 21.7c-12.9 9.8-23.2 29.7-10.3 43.3 0 0-5.7-11.4 10-23.4 4.4-3.4 11.1-8.1 16.8-12.8 2.4 10.3 3.6 19.9 1.4 26.4-5.9 17.2-19.8 24.9-35.3 19.6-15.5-5.3-21.8-19.9-15.8-37.1.2-.7.5-1.3.8-2-.2.2-.1 0 0-.4v.4c14.8-18.4 56.6-35.6 65.2-61.4 9.2-27.5-3.8-50.4-26.7-58-23-7.8-47.1 2.8-56.3 30.3"/></defs><clipPath id="SVGID_27_"><use xlink:href="#SVGID_25_" overflow="visible"/></clipPath><clipPath id="SVGID_28_" class="st12"><use xlink:href="#SVGID_26_" overflow="visible"/></clipPath><g clip-path="url(#SVGID_28_)"><image width="32" height="6" xlink:href="B55C2D44.jpg" transform="matrix(0 -.1937 .2092 0 105.518 204.751)" overflow="visible"/></g><defs><path id="SVGID_29_" d="M107.7 209.6c0 23.8-23.3 49.4-23.3 49.4-11.4 8.1-22.5 15.7-29 23.4l-.1.1s0 .1-.1.1c0 0 0 .1-.1.1v-1.3c0-4.8 1.4-21.6 19.9-35.6.4-.3.9-.6 1.3-.9 1.8-1.3 3.1-2.3 4-3 11.1-8.4 21.5-17.4 24.3-25.8v-.1c1.4-4.2 1.8-8 2.1-12 .1-1.9-.2-3.7-.5-5.5v-.1c1 3.8 1.5 7.5 1.5 11.2m-1.3-5.2v-.5.5m0 1.3v-.5.5m-.4-6c0 .2 0 .3.1.5 0-.2 0-.3-.1-.5m-.8 13.8c0-.1.1-.3.1-.4-.1.1-.1.2-.1.4m-.4 1.5c0-.1.1-.3.1-.4-.1.1-.1.2-.1.4m-.8 2.2c.1-.2.1-.2 0 0"/></defs><defs><path id="SVGID_30_" d="M106.3 202.3v.4c.1-.1 0-.2 0-.4m.1 2.1v-.5.5m0 1.3v-.5.5m-.1 1.4v-.3.3m-.2 1.7c0-.2 0-.3.1-.5-.1.2-.1.4-.1.5m-.2 1.5c0-.2.1-.3.1-.5-.1.2-.1.3-.1.5m-.3 1.4v-.1.1m-.8 3.3c0-.1.1-.3.1-.4m.4-1.5c0 .1-.1.3-.1.4 0-.2 0-.3.1-.4m-1.3 4.1c.1-.2.1-.2 0 0m2-17.5c0 .2 0 .3.1.5 0-.2 0-.3-.1-.5m.2 1.2c0 .2 0 .3.1.5-.1-.1-.1-.3-.1-.5m-69-6.8c-5.4 16.3 1.6 38.4 7.7 58.4.4 1.3.6 2.1.6 2.1s12.7-12 25.5-21.9c12.8-9.9 23-29.9 9.9-43.4 0 0 5.8 11.4-9.8 23.5-4.4 3.4-11.1 8.2-16.7 13-2.5-10.3-3.8-19.9-1.6-26.4 5.8-17.3 19.5-25.1 35.1-19.9 9.8 3.3 15.9 10.2 17.7 19.1.4 4.5-.3 9.5-2.1 14.7-3.7 10.7-19.8 22.3-34 32.5-.2.2-.6.4-1 .7-.7.5-1.4 1.1-2 1.6-12.6 9.3-24.2 19.4-28.3 31.6-9.4 27.4 3.4 50.4 26.2 58.3 22.8 7.8 47-2.5 56.5-29.9 5.6-16.3-1.3-38.4-7.2-58.5-.3-1.3-.6-2.1-.6-2.1s-12.8 11.9-25.7 21.7c-12.9 9.8-23.2 29.7-10.3 43.3 0 0-5.7-11.4 10-23.4 4.4-3.4 11.1-8.1 16.8-12.8 2.4 10.3 3.6 19.9 1.4 26.4-5.9 17.2-19.8 24.9-35.3 19.6-15.5-5.3-21.8-19.9-15.8-37.1.2-.7.5-1.3.8-2-.2.2-.1 0 0-.4v.4c14.8-18.4 56.6-35.6 65.2-61.4 9.2-27.5-3.8-50.4-26.7-58-23-7.8-47.1 2.8-56.3 30.3"/></defs><clipPath id="SVGID_31_"><use xlink:href="#SVGID_29_" overflow="visible"/></clipPath><clipPath id="SVGID_32_" class="st13"><use xlink:href="#SVGID_30_" overflow="visible"/></clipPath><g clip-path="url(#SVGID_32_)"><image width="446" height="281" xlink:href="B55C2D4C.jpg" transform="matrix(0 -.1904 .1906 0 54.557 283.285)" overflow="visible"/></g><defs><path id="SVGID_33_" d="M84.8 202c0 18.5-29 23.5-30.2 23.8 5.6-4.8 12.3-9.6 16.7-13 8.9-6.9 10.8-13.6 10.8-18.1 0-2.6-.6-4.4-.9-5.1 2.5 4.7 3.6 8.8 3.6 12.4m-30.2 23.7"/></defs><defs><path id="SVGID_34_" d="M106.4 204.4v-.5.5m-.1 1.3v-.5.5m-.1 1.4v-.3c.1.1.1.2 0 .3m-.1 1.7c0-.1 0-.1 0 0m-.3 1.5c0-.2.1-.3.1-.5 0 .2 0 .3-.1.5m-.2 1.4v-.1.1m-.4 1.4c0 .1-.1.3-.1.4.1-.2.1-.3.1-.4m-1.2 4.1c.1-.2.1-.2 0 0m2-17.5c0 .2 0 .3.1.5 0-.2-.1-.3-.1-.5m.2 1.2c0 .2 0 .3.1.5-.1-.1-.1-.3-.1-.5m-69-6.8c-5.4 16.3 1.6 38.4 7.7 58.4.4 1.3.6 2.1.6 2.1s12.7-12 25.5-21.9c12.8-9.9 23-29.9 9.9-43.4 0 0 5.8 11.4-9.8 23.5-4.4 3.4-11.1 8.2-16.7 13-2.5-10.3-3.8-19.9-1.6-26.4 5.8-17.3 19.5-25.1 35.1-19.9 9.8 3.3 15.9 10.2 17.7 19.1.4 4.5-.3 9.5-2.1 14.7-3.7 10.7-19.8 22.3-34 32.5-.2.2-.6.4-1 .7-.7.5-1.4 1.1-2 1.6-12.6 9.3-24.2 19.4-28.3 31.6-9.4 27.4 3.4 50.4 26.2 58.3 22.8 7.8 47-2.5 56.5-29.9 5.6-16.3-1.3-38.4-7.2-58.5-.3-1.3-.6-2.1-.6-2.1s-12.8 11.9-25.7 21.7c-12.9 9.8-23.2 29.7-10.3 43.3 0 0-5.7-11.4 10-23.4 4.4-3.4 11.1-8.1 16.8-12.8 2.4 10.3 3.6 19.9 1.4 26.4-5.9 17.2-19.8 24.9-35.3 19.6-15.5-5.3-21.8-19.9-15.8-37.1.2-.7.5-1.3.8-2-.2.2-.1 0 0-.4v.4c14.8-18.4 56.6-35.6 65.2-61.4 9.2-27.5-3.8-50.4-26.7-58-23-7.8-47.2 2.8-56.3 30.3"/></defs><defs><path id="SVGID_35_" d="M106.3 202.3v.4c.1-.1 0-.2 0-.4m.1 2.1v-.5.5m0 1.3v-.5.5m-.1 1.4v-.3.3m-.2 1.7c0-.1 0-.1 0 0m-.2 1.5c0-.2.1-.3.1-.5-.1.2-.1.3-.1.5m-.3 1.4v-.1.1m-.3 1.4c0 .1-.1.3-.1.4 0-.2 0-.3.1-.4m-1.3 4.1c.1-.2.1-.2 0 0m2-17.5c0 .2 0 .3.1.5 0-.2 0-.3-.1-.5m.2 1.2c0 .2 0 .3.1.5-.1-.1-.1-.3-.1-.5m-69-6.8c-5.4 16.3 1.6 38.4 7.7 58.4.4 1.3.6 2.1.6 2.1s12.7-12 25.5-21.9c12.8-9.9 23-29.9 9.9-43.4 0 0 5.8 11.4-9.8 23.5-4.4 3.4-11.1 8.2-16.7 13-2.5-10.3-3.8-19.9-1.6-26.4 5.8-17.3 19.5-25.1 35.1-19.9 9.8 3.3 15.9 10.2 17.7 19.1.4 4.5-.3 9.5-2.1 14.7-3.7 10.7-19.8 22.3-34 32.5-.2.2-.6.4-1 .7-.7.5-1.4 1.1-2 1.6-12.6 9.3-24.2 19.4-28.3 31.6-9.4 27.4 3.4 50.4 26.2 58.3 22.8 7.8 47-2.5 56.5-29.9 5.6-16.3-1.3-38.4-7.2-58.5-.3-1.3-.6-2.1-.6-2.1s-12.8 11.9-25.7 21.7c-12.9 9.8-23.2 29.7-10.3 43.3 0 0-5.7-11.4 10-23.4 4.4-3.4 11.1-8.1 16.8-12.8 2.4 10.3 3.6 19.9 1.4 26.4-5.9 17.2-19.8 24.9-35.3 19.6-15.5-5.3-21.8-19.9-15.8-37.1.2-.7.5-1.3.8-2-.2.2-.1 0 0-.4v.4c14.8-18.4 56.6-35.6 65.2-61.4 9.2-27.5-3.8-50.4-26.7-58-23-7.8-47.1 2.8-56.3 30.3"/></defs><clipPath id="SVGID_36_"><use xlink:href="#SVGID_33_" overflow="visible"/></clipPath><clipPath id="SVGID_37_" class="st14"><use xlink:href="#SVGID_34_" overflow="visible"/></clipPath><clipPath id="SVGID_38_" class="st15"><use xlink:href="#SVGID_35_" overflow="visible"/></clipPath><g clip-path="url(#SVGID_38_)"><image width="193" height="163" xlink:href="B55C2D4D.jpg" transform="matrix(0 -.1907 .1909 0 54.177 226.048)" overflow="visible"/></g><defs><path id="SVGID_39_" d="M103.4 276.3l-.5.7c-5.4 4.5-11.6 8.8-15.8 12-9.1 6.9-11 13.7-11 18.1 0 2.9.8 4.8 1 5.2-.3-.3-.5-.6-.8-.9-2.2-4.3-3.1-8-3.1-11.4 0-18.9 30.2-23.7 30.2-23.7"/></defs><defs><path id="SVGID_40_" d="M106.4 204.4v-.5.5m-.1 1.3v-.5.5m-.1 1.4v-.3c.1.1.1.2 0 .3m-.1 1.7c0-.1 0-.1 0 0m-.3 1.5c0-.2.1-.3.1-.5 0 .2 0 .3-.1.5m-.2 1.4v-.1.1m-1.6 5.5c.1-.2.1-.2 0 0m2-17.5c0 .2 0 .3.1.5 0-.2-.1-.3-.1-.5m.2 1.2c0 .2 0 .3.1.5-.1-.1-.1-.3-.1-.5m-69-6.8c-5.4 16.3 1.6 38.4 7.7 58.4.4 1.3.6 2.1.6 2.1s12.7-12 25.5-21.9c12.8-9.9 23-29.9 9.9-43.4 0 0 5.8 11.4-9.8 23.5-4.4 3.4-11.1 8.2-16.7 13-2.5-10.3-3.8-19.9-1.6-26.4 5.8-17.3 19.5-25.1 35.1-19.9 9.8 3.3 15.9 10.2 17.7 19.1.4 4.5-.3 9.5-2.1 14.7-3.7 10.7-19.8 22.3-34 32.5-.2.2-.6.4-1 .7-.7.5-1.4 1.1-2 1.6-12.6 9.3-24.2 19.4-28.3 31.6-9.4 27.4 3.4 50.4 26.2 58.3 22.8 7.8 47-2.5 56.5-29.9 5.6-16.3-1.3-38.4-7.2-58.5-.3-1.3-.6-2.1-.6-2.1s-12.8 11.9-25.7 21.7c-12.9 9.8-23.2 29.7-10.3 43.3 0 0-5.7-11.4 10-23.4 4.4-3.4 11.1-8.1 16.8-12.8 2.4 10.3 3.6 19.9 1.4 26.4-5.9 17.2-19.8 24.9-35.3 19.6-15.5-5.3-21.8-19.9-15.8-37.1.2-.7.5-1.3.8-2-.2.2-.1 0 0-.4v.4c14.8-18.4 56.6-35.6 65.2-61.4 9.2-27.5-3.8-50.4-26.7-58-23-7.8-47.2 2.8-56.3 30.3"/></defs><defs><path id="SVGID_41_" d="M106.3 202.3v.4c.1-.1 0-.2 0-.4m.1 2.1v-.5.5m0 1.3v-.5.5m-.1 1.4v-.3.3m-.2 1.7c0-.1 0-.1 0 0m-.2 1.5c0-.2.1-.3.1-.5-.1.2-.1.3-.1.5m-.3 1.4v-.1.1m-1.6 5.5c.1-.2.1-.2 0 0m2-17.5c0 .2 0 .3.1.5 0-.2 0-.3-.1-.5m.2 1.2c0 .2 0 .3.1.5-.1-.1-.1-.3-.1-.5m-69-6.8c-5.4 16.3 1.6 38.4 7.7 58.4.4 1.3.6 2.1.6 2.1s12.7-12 25.5-21.9c12.8-9.9 23-29.9 9.9-43.4 0 0 5.8 11.4-9.8 23.5-4.4 3.4-11.1 8.2-16.7 13-2.5-10.3-3.8-19.9-1.6-26.4 5.8-17.3 19.5-25.1 35.1-19.9 9.8 3.3 15.9 10.2 17.7 19.1.4 4.5-.3 9.5-2.1 14.7-3.7 10.7-19.8 22.3-34 32.5-.2.2-.6.4-1 .7-.7.5-1.4 1.1-2 1.6-12.6 9.3-24.2 19.4-28.3 31.6-9.4 27.4 3.4 50.4 26.2 58.3 22.8 7.8 47-2.5 56.5-29.9 5.6-16.3-1.3-38.4-7.2-58.5-.3-1.3-.6-2.1-.6-2.1s-12.8 11.9-25.7 21.7c-12.9 9.8-23.2 29.7-10.3 43.3 0 0-5.7-11.4 10-23.4 4.4-3.4 11.1-8.1 16.8-12.8 2.4 10.3 3.6 19.9 1.4 26.4-5.9 17.2-19.8 24.9-35.3 19.6-15.5-5.3-21.8-19.9-15.8-37.1.2-.7.5-1.3.8-2-.2.2-.1 0 0-.4v.4c14.8-18.4 56.6-35.6 65.2-61.4 9.2-27.5-3.8-50.4-26.7-58-23-7.8-47.1 2.8-56.3 30.3"/></defs><clipPath id="SVGID_42_"><use xlink:href="#SVGID_39_" overflow="visible"/></clipPath><clipPath id="SVGID_43_" class="st16"><use xlink:href="#SVGID_40_" overflow="visible"/></clipPath><clipPath id="SVGID_44_" class="st17"><use xlink:href="#SVGID_41_" overflow="visible"/></clipPath><g clip-path="url(#SVGID_44_)"><image width="192" height="162" xlink:href="B55C2D4F.jpg" transform="matrix(0 -.1907 .1909 0 72.812 312.568)" overflow="visible"/></g><defs><path id="SVGID_45_" d="M85.2 161.7c-2.1-.3-4.2-.5-6.3-.5 2 0 4.1.2 6.3.5"/></defs><defs><path id="SVGID_46_" d="M106.3 202.3v.4c.1-.1 0-.2 0-.4m.1 2.1v-.5.5m0 1.3v-.5.5m-.1 1.4v-.3.3m-.2 1.7c0-.1 0-.1 0 0m-.2 1.5c0-.2.1-.3.1-.5-.1.2-.1.3-.1.5m-.3 1.4v-.1.1m-1.6 5.5c.1-.2.1-.2 0 0m2-17.5c0 .2 0 .3.1.5 0-.2 0-.3-.1-.5m.2 1.2c0 .2 0 .3.1.5-.1-.1-.1-.3-.1-.5m-69-6.8c-5.4 16.3 1.6 38.4 7.7 58.4.4 1.3.6 2.1.6 2.1s12.7-12 25.5-21.9c12.8-9.9 23-29.9 9.9-43.4 0 0 5.8 11.4-9.8 23.5-4.4 3.4-11.1 8.2-16.7 13-2.5-10.3-3.8-19.9-1.6-26.4 5.8-17.3 19.5-25.1 35.1-19.9 9.8 3.3 15.9 10.2 17.7 19.1.4 4.5-.3 9.5-2.1 14.7-3.7 10.7-19.8 22.3-34 32.5-.2.2-.6.4-1 .7-.7.5-1.4 1.1-2 1.6-12.6 9.3-24.2 19.4-28.3 31.6-9.4 27.4 3.4 50.4 26.2 58.3 22.8 7.8 47-2.5 56.5-29.9 5.6-16.3-1.3-38.4-7.2-58.5-.3-1.3-.6-2.1-.6-2.1s-12.8 11.9-25.7 21.7c-12.9 9.8-23.2 29.7-10.3 43.3 0 0-5.7-11.4 10-23.4 4.4-3.4 11.1-8.1 16.8-12.8 2.4 10.3 3.6 19.9 1.4 26.4-5.9 17.2-19.8 24.9-35.3 19.6-15.5-5.3-21.8-19.9-15.8-37.1.2-.7.5-1.3.8-2-.2.2-.1 0 0-.4v.4c14.8-18.4 56.6-35.6 65.2-61.4 9.2-27.5-3.8-50.4-26.7-58-23-7.8-47.1 2.8-56.3 30.3"/></defs><clipPath id="SVGID_47_"><use xlink:href="#SVGID_45_" overflow="visible"/></clipPath><clipPath id="SVGID_48_" class="st18"><use xlink:href="#SVGID_46_" overflow="visible"/></clipPath><g clip-path="url(#SVGID_48_)"><image width="5" height="36" xlink:href="36528A2C.jpg" transform="matrix(0 -.213 .1933 0 78.517 161.967)" overflow="visible"/></g><defs><path id="SVGID_49_" d="M85.2 161.7c-35.9 5.8-43.4 36.6-43.4 61.1 0 15.7 3.1 28.9 3.7 31.4-.1-.4-.3-1-.5-1.7-4.6-15-9.7-31.1-9.7-45.1 0-4.7.6-9.2 1.9-13.3 7.2-21.7 23.8-32.8 41.6-32.8 2.1-.1 4.2.1 6.4.4"/></defs><defs><path id="SVGID_50_" d="M106.3 202.3v.4c.1-.1 0-.2 0-.4m.1 2.1v-.5.5m0 1.3v-.5.5m-.1 1.4v-.3.3m-.2 1.7c0-.1 0-.1 0 0m-.2 1.5c0-.2.1-.3.1-.5-.1.2-.1.3-.1.5m-.3 1.4c0-.1 0-.1 0 0m-1.6 5.5c.1-.2.1-.2 0 0m2-17.5c0 .2 0 .3.1.5 0-.2 0-.3-.1-.5m.2 1.2c0 .2 0 .3.1.5-.1-.1-.1-.3-.1-.5m-69-6.8c-5.4 16.3 1.6 38.4 7.7 58.4.4 1.3.6 2.1.6 2.1s12.7-12 25.5-21.9c12.8-9.9 23-29.9 9.9-43.4 0 0 5.8 11.4-9.8 23.5-4.4 3.4-11.1 8.2-16.7 13-2.5-10.3-3.8-19.9-1.6-26.4 5.8-17.3 19.5-25.1 35.1-19.9 9.8 3.3 15.9 10.2 17.7 19.1.4 4.5-.3 9.5-2.1 14.7-3.7 10.7-19.8 22.3-34 32.5-.2.2-.6.4-1 .7-.7.5-1.4 1.1-2 1.6-12.6 9.3-24.2 19.4-28.3 31.6-9.4 27.4 3.4 50.4 26.2 58.3 22.8 7.8 47-2.5 56.5-29.9 5.6-16.3-1.3-38.4-7.2-58.5-.3-1.3-.6-2.1-.6-2.1s-12.8 11.9-25.7 21.7c-12.9 9.8-23.2 29.7-10.3 43.3 0 0-5.7-11.4 10-23.4 4.4-3.4 11.1-8.1 16.8-12.8 2.4 10.3 3.6 19.9 1.4 26.4-5.9 17.2-19.8 24.9-35.3 19.6-15.5-5.3-21.8-19.9-15.8-37.1.2-.7.5-1.3.8-2-.2.2-.1 0 0-.4v.4c14.8-18.4 56.6-35.6 65.2-61.4 9.2-27.5-3.8-50.4-26.7-58-23-7.8-47.1 2.8-56.3 30.3"/></defs><clipPath id="SVGID_51_"><use xlink:href="#SVGID_49_" overflow="visible"/></clipPath><clipPath id="SVGID_52_" class="st19"><use xlink:href="#SVGID_50_" overflow="visible"/></clipPath><g clip-path="url(#SVGID_52_)"><image width="492" height="265" xlink:href="36528A2B.jpg" transform="matrix(0 -.1904 .1906 0 34.972 254.571)" overflow="visible"/></g><defs><path id="SVGID_53_" d="M123.1 294.2c0 4.9-.6 9.5-2.1 13.8-7.4 21.5-23.8 32.5-41.6 32.5 17.7 0 34.2-11 41.5-32.5 1.5-4.2 2.1-8.9 2.2-13.8 0-13.9-4.9-29.9-9.3-44.7-.1-.3-.2-.6-.2-.8l.1.1c.1.2.1.5.2.8 4.3 14.8 9.2 30.7 9.2 44.6"/></defs><defs><path id="SVGID_54_" d="M106.3 202.3v.4c.1-.1 0-.2 0-.4m.1 3.4v-.5.5m-.1 1.4v-.3.3m-.2 1.7c0-.1 0-.1 0 0m-.2 1.5c0-.2.1-.3.1-.5-.1.2-.1.3-.1.5m-1.9 6.9c.1-.2.1-.2 0 0m2-17.5c0 .2 0 .3.1.5 0-.2 0-.3-.1-.5m.2 1.2c0 .2 0 .3.1.5-.1-.1-.1-.3-.1-.5m-69-6.8c-5.4 16.3 1.6 38.4 7.7 58.4.4 1.3.6 2.1.6 2.1s12.7-12 25.5-21.9c12.8-9.9 23-29.9 9.9-43.4 0 0 5.8 11.4-9.8 23.5-4.4 3.4-11.1 8.2-16.7 13-2.5-10.3-3.8-19.9-1.6-26.4 5.8-17.3 19.5-25.1 35.1-19.9 9.8 3.3 15.9 10.2 17.7 19.1.4 4.5-.3 9.5-2.1 14.7-3.7 10.7-19.8 22.3-34 32.5-.2.2-.6.4-1 .7-.7.5-1.4 1.1-2 1.6-12.6 9.3-24.2 19.4-28.3 31.6-9.4 27.4 3.4 50.4 26.2 58.3 22.8 7.8 47-2.5 56.5-29.9 5.6-16.3-1.3-38.4-7.2-58.5-.3-1.3-.6-2.1-.6-2.1s-12.8 11.9-25.7 21.7c-12.9 9.8-23.2 29.7-10.3 43.3 0 0-5.7-11.4 10-23.4 4.4-3.4 11.1-8.1 16.8-12.8 2.4 10.3 3.6 19.9 1.4 26.4-5.9 17.2-19.8 24.9-35.3 19.6-15.5-5.3-21.8-19.9-15.8-37.1.2-.7.5-1.3.8-2-.2.2-.1 0 0-.4v.4c14.8-18.4 56.6-35.6 65.2-61.4 9.2-27.5-3.8-50.4-26.7-58-23-7.8-47.1 2.8-56.3 30.3"/></defs><clipPath id="SVGID_55_"><use xlink:href="#SVGID_53_" overflow="visible"/></clipPath><clipPath id="SVGID_56_" class="st20"><use xlink:href="#SVGID_54_" overflow="visible"/></clipPath><g clip-path="url(#SVGID_56_)"><image width="485" height="233" xlink:href="36528A24.jpg" transform="matrix(0 -.1904 .1906 0 79.087 340.71)" overflow="visible"/></g><defs><path id="SVGID_57_" d="M123 294.2c0 4.9-.6 9.5-2.1 13.8-7.4 21.5-23.2 31.6-40.9 32.5-2.5.1-5.6-.3-5.6-.3s1.7-.3 3.9-.8c31.3-7.9 38.1-36.7 38.1-60 0-15.9-3.1-29.2-3.7-31.5l.1-.1c.3.3.5.6.7.9.1.2.1.5.2.8 4.4 14.9 9.3 30.8 9.3 44.7"/></defs><defs><path id="SVGID_58_" d="M106.4 205.3v.5m-.1 1.3v-.3.3m-2.3 10.1c.1-.2.1-.2 0 0m2-17.5c0 .2 0 .3.1.5 0-.2 0-.3-.1-.5m.2 1.2c0 .2 0 .3.1.5-.1-.1-.1-.3-.1-.5m-69-6.8c-5.4 16.3 1.6 38.4 7.7 58.4.4 1.3.6 2.1.6 2.1s12.7-12 25.5-21.9c12.8-9.9 23-29.9 9.9-43.4 0 0 5.8 11.4-9.8 23.5-4.4 3.4-11.1 8.2-16.7 13-2.5-10.3-3.8-19.9-1.6-26.4 5.8-17.3 19.5-25.1 35.1-19.9 9.8 3.3 15.9 10.2 17.7 19.1.4 4.5-.3 9.5-2.1 14.7-3.7 10.7-19.8 22.3-34 32.5-.2.2-.6.4-1 .7-.7.5-1.4 1.1-2 1.6-12.6 9.3-24.2 19.4-28.3 31.6-9.4 27.4 3.4 50.4 26.2 58.3 22.8 7.8 47-2.5 56.5-29.9 5.6-16.3-1.3-38.4-7.2-58.5-.3-1.3-.6-2.1-.6-2.1s-12.8 11.9-25.7 21.7c-12.9 9.8-23.2 29.7-10.3 43.3 0 0-5.7-11.4 10-23.4 4.4-3.4 11.1-8.1 16.8-12.8 2.4 10.3 3.6 19.9 1.4 26.4-5.9 17.2-19.8 24.9-35.3 19.6-15.5-5.3-21.8-19.9-15.8-37.1.2-.7.5-1.3.8-2-.2.2-.1 0 0-.4v.4c14.8-18.4 56.6-35.6 65.2-61.4 9.2-27.5-3.8-50.4-26.7-58-23-7.8-47.1 2.8-56.3 30.3"/></defs><clipPath id="SVGID_59_"><use xlink:href="#SVGID_57_" overflow="visible"/></clipPath><clipPath id="SVGID_60_" class="st21"><use xlink:href="#SVGID_58_" overflow="visible"/></clipPath><g clip-path="url(#SVGID_60_)"><image width="490" height="250" xlink:href="36528A27.jpg" transform="matrix(0 -.1904 .1978 0 73.626 340.71)" overflow="visible"/></g><defs><path id="SVGID_61_" d="M106.3 207.1c0-.1 0-.1 0 0m-2.3 10.1c.1-.2.1-.2 0 0m2-17.5c0 .2 0 .3.1.5 0-.2 0-.3-.1-.5m-68.8-5.6c-5.4 16.3 1.6 38.4 7.7 58.4.4 1.3.6 2.1.6 2.1s12.7-12 25.5-21.9c12.8-9.9 23-29.9 9.9-43.4 0 0 5.8 11.4-9.8 23.5-4.4 3.4-11.1 8.2-16.7 13-2.5-10.3-3.8-19.9-1.6-26.4 5.8-17.3 19.5-25.1 35.1-19.9 9.8 3.3 15.9 10.2 17.7 19.1.4 4.5-.3 9.5-2.1 14.7-3.7 10.7-19.8 22.3-34 32.5-.2.2-.6.4-1 .7-.7.5-1.4 1.1-2 1.6-12.6 9.3-24.2 19.4-28.3 31.6-9.4 27.4 3.4 50.4 26.2 58.3 22.8 7.8 47-2.5 56.5-29.9 5.6-16.3-1.3-38.4-7.2-58.5-.3-1.3-.6-2.1-.6-2.1s-12.8 11.9-25.7 21.7c-12.9 9.8-23.2 29.7-10.3 43.3 0 0-5.7-11.4 10-23.4 4.4-3.4 11.1-8.1 16.8-12.8 2.4 10.3 3.6 19.9 1.4 26.4-5.9 17.2-19.8 24.9-35.3 19.6-15.5-5.3-21.8-19.9-15.8-37.1.2-.7.5-1.3.8-2-.2.2-.1 0 0-.4v.4c14.8-18.4 56.6-35.6 65.2-61.4 9.2-27.5-3.8-50.4-26.7-58-23-7.8-47.1 2.8-56.3 30.3"/></defs><clipPath id="SVGID_62_"><use xlink:href="#SVGID_61_" overflow="visible"/></clipPath><path class="st22" d="M183.4 225.7c-4.4.3-7.6.8-9.6 1.3l-2.3 2.1-.8 3-1 2.8-1.1 2.2-.8 2.1-.8 3.5-1.5 2.6-1.5 4.6-.4 3.2.6 2.8 2.3 2 2.8-3 1.8 5.6-.8 3.5-.8 1.3-2.7.3-5-.5-3.4.3-10.8-.5-3.8-2.5c.5-1.6 2-6.8 4.3-15.7.8 8.3 1.7 12.5 2.7 12.5.3 0 .7-.5 1.1-1.4l3.5-6.1 2.8-5.3 3.2-5.1 2.5-2.2.5-3.1 1.5-5.6 1.3-3 3.5-6.1.8-2.2 1.5-5.8 2.7-4.4.8-3.2 1.3-3.8 1.5-11.9 1.5 5.3 1.3-3.2c.3-.7.8-2.1 1.5-4.1l1-2.7.5-9.9 1.9-1.5 1.3-4.3 1 4.3c.1.1.2.2.3.2 1 0 2.7-4.2 4.9-12.6-.2 15.5-.8 23.3-2 23.3l1.4 3.2 3.9-11.8c.3 4.3.4 8 .4 11.1 0 6.2-.6 9.6-1.7 10.5l1.5 2.5 1.8 6.4.3 2.7 4-14.9c-.8 10.2-1.3 17.4-1.3 21.5 0 1.7.1 3 .2 3.7v3.4l2.1 3.5 2.7 6.9c.4.9 1.1 2.6 2.1 5.2.5 1.4 1.2 3.2 2.1 5.4l.4 2.3v2.5l1.8 1.3 1.8 3c-.2 1.3-.3 2.3-.3 3 0 .5.1.8.2.8.5 0 1.7-3.3 3.8-9.8-.3 2.2-.4 4.2-.4 5.9 0 6.2 1.6 9.2 4.9 9.1l-.3 1.9-1.9 1.5h-9.2l-5.3-.3-4.8.5h-6.9l-.6-1.5 2.4-1.3 1.5-4.2 1.8 3.3 1.7-2.6.3-4.6-.5-2.3-.8-1.4-.9-3.4.3-1.9-2.9-4.2-.7-1.9-.3-2.6-.8-1.3-1.2-1.9v-3l-1-2.2-1.3-1.5c-.9-1-2.4-1.5-4.5-1.5l-2.6 2.1-2.3-2.2zm4.7-23.3l1.3-2.5-.5-1.3-1.8-1h-1.9l-.8 1-.5 2.1-1 1.7-1.8 3.1-2 5.6v3l-1.3 3.8 2.3 1.2c.5.1 1 .1 1.4.1.4.1.9.2 1.4.2.2-.4.8-3 1.9-7.6.7 4 1 6.6 1 7.6 0 .3 0 .5-.1.6 0 0-.1-.1-.2-.1.6-.2 1.4-.2 2.3-.2h3l.7-3-.3-2.1-.9-3.5-.5-2.8v-2.7l-1.7-3.2zm85.7 49.4l1.4 5.8c1.4 0 2.6-4.6 3.4-13.9 1.2 9.4 2.4 14.2 3.5 14.2l1.5-.1 2.8-6.3 2.4 6.4 4.9-.1 4.6-2 3.8-2.8 5.8-7.4 1.7-4 1.8-2 1.8-17.4 1 17.2 1.2 1.2v3.9l1.3 7.5-.5 3.3-1.8 2-8.3 4.1-6.1 1.9-3.5 1.5-9.4 1.3-8.3.3-7.1-.8-6.7-2.6-9.7-5.1-10.9-8.3-6.5-8.7-3.4-11.2-.5-7.5V213l1.8-8 1.8-5.1 1.4-2.8 1.5-3.2-.3-7.8 2.6 3 .7-21.2c.9 10.6 3 15.9 6.4 15.9.4 0 .8-.1 1.2-.2l2.6-2.6 2.2-3.5 10.9-4 4.3-.8 1.6-.1c1.1 0 2.2-6.3 3.4-18.6l1.5 18.5 1.7.1c1.2.1 2.5-2.8 3.9-8.7l1.3 9.1h9.6l6.1.3 6.9 2.4 2.5 1.2c.8.4 1.7-5.3 2.5-17 .8 12.6 1.7 19.2 2.5 19.7l-.3 18.4-1.4 1-2.3-.3-3.5-6.6-8.4-6.7-1.3-2.6-5.3-1.6-7-2.4-3.4-.5-1.9.6h-3.6l-2.2 1-6.9 1.7-11.9 11.9-1.2 4.5-.8 2.1-1.3 5.1-1 7.6-1.5 5.7 1.8 2.3-1.5 3.5 2 3.6-.3 5.6.3 5.3 2.1 5.6c1.9 2.1 5.1 5.1 9.6 9.1l4.8 2 2.3-9.8c0 6.2.4 9.3 1.3 9.3.5 0 1.2-1.1 2-3.2zm91.3-26.1c-4.4.3-7.6.8-9.6 1.3l-2.3 2.1-.8 3-1 2.8-1.1 2.2-.8 2.1-.8 3.5-1.5 2.6-1.5 4.6-.4 3.2.6 2.8 2.3 2 2.8-3 1.8 5.6-.8 3.5-.8 1.3-2.7.3-5-.5-3.4.3-10.8-.5-3.8-2.5c.5-1.6 2-6.8 4.3-15.7.8 8.3 1.7 12.5 2.7 12.5.3 0 .7-.5 1.1-1.4l3.5-6.1 2.8-5.3 3.2-5.1 2.5-2.2.5-3.1 1.5-5.6 1.3-3 3.5-6.1.8-2.2 1.5-5.8 2.7-4.4.8-3.2 1.3-3.8L361 190l1.5 5.3 1.3-3.2c.3-.7.8-2.1 1.5-4.1l1-2.7.5-9.9 1.9-1.5 1.3-4.3 1 4.3c.1.1.2.2.3.2 1 0 2.7-4.2 4.9-12.6-.2 15.5-.8 23.3-2 23.3l1.4 3.2 3.9-11.8c.3 4.3.4 8 .4 11.1 0 6.2-.6 9.6-1.7 10.5l1.5 2.5 1.8 6.4.3 2.7 4-14.9c-.8 10.2-1.3 17.4-1.3 21.5 0 1.7.1 3 .2 3.7v3.4l2.1 3.5 2.7 6.9c.4.9 1.1 2.6 2.1 5.2.5 1.4 1.2 3.2 2.1 5.4l.4 2.3v2.5l1.8 1.3 1.8 3c-.2 1.3-.3 2.3-.3 3 0 .5.1.8.2.8.5 0 1.7-3.3 3.8-9.8-.3 2.2-.4 4.2-.4 5.9 0 6.2 1.6 9.2 4.9 9.1l-.3 1.9-1.9 1.5h-9.2l-5.3-.3-4.8.5h-6.9l-.6-1.5 2.4-1.3 1.5-4.2 1.8 3.3 1.7-2.6.3-4.6-.5-2.3-.8-1.4-.9-3.4.3-1.9-2.9-4.2-.7-1.9-.3-2.6-.8-1.3-1.2-1.9v-3l-1-2.2-1.3-1.5c-.9-1-2.4-1.5-4.5-1.5l-2.6 2.1-2.3-2.2zm4.7-23.3l1.3-2.5-.5-1.3-1.8-1h-1.9l-.8 1-.5 2.1-1 1.7-1.8 3.1-2 5.6v3l-1.3 3.8 2.3 1.2c.5.1 1 .1 1.4.1.4.1.9.2 1.4.2.2-.4.8-3 1.9-7.6.7 4 1 6.6 1 7.6 0 .3 0 .5-.1.6 0 0-.1-.1-.2-.1.6-.2 1.4-.2 2.3-.2h3l.7-3-.3-2.1-.9-3.5-.5-2.8v-2.7l-1.7-3.2zm54.6-11l-.3-2.6-.8-2.6-.3-2.5-1.5-1.3-2.2-2.5-2.1-1.3-2.3-.5v-2.8c.9-1 1.4-3.6 1.6-8l2.6 7.1 2.1.3 3.1.7c.8 0 1.7-4.5 2.5-13.6.9 9.1 1.9 13.5 3 13.4.4.6.7.9 1 .9 1.3 0 2.1-4.9 2.5-14.6.8 9.9 1.7 14.8 2.7 14.8.3 0 .7-.5 1-1.5l1.9-8 1.3 7.9 8.6 1.2 2.9-.3 1.4-8 1.5 7.6 6.6.1 6.6 2.3 4 2.6 5.3 2.4 4 3 1.7-20.4c.2 17.4 1.9 25.9 5.1 25.5l1.5-15.2c.3 13.5 1.3 20.7 2.8 21.7l2.8 7.1.9 3.7v14l-.8 7.4v7.5l-3.5 5-.8 3.4-4 3.5-1.5 2.1-1.4.9-2.1 3.4-2.1.5-3.5 3.8-2.1.8-1.4 1.3-4.1.6-6.7 2.3h-16.7l-4.8-1-5.3.3-3.6-.8h-3l-7.1 1-3-.3-2.8.3-.3-2.5v-15.2c1 6.8 2.5 10.3 4.4 10.3.4 0 .7-.1 1.1-.3l1.6-2.8 1.6-9.1-.5-4.5V236c-1.2-1.6-2-6.1-2.3-13.4l2.8 6.4.8-2.3v-2.6l-1.3-3.2.5-4v-4.3l-.8-2.3V206l1.3-8.7-.8-2.5.7-3.4zm32.7-10.6l-4.7.4h-2.5l-4.5-.6-1.5.6-1.8.3-1.4 1.6-2.3 3.7-.3 2.9 1 1.9.5 2.8-.3 5.1v2.8l-1.3 4-.5 2.5-.3 2 2.3 3.5v2.6l-.8 6.3 1 7.3-.8 2.3.5 2.7.3 2.8 1.1 2.2-.5 3.6v1.9l-.8 2.9.3 6.1 2.5 1.7 4.8 1c1.3 0 2.4-6.9 3.4-20.7 1.6 13.8 3 20.7 4.3 20.7l1.9-.2 1.9-6.3 1.9 6 1.9-.2 3.7-2 4.6-4.8 6.6-10.2.5-3.2 2.7-5.1v-3l2.8-9.4-.3-5.3c-.2-1-.3-2.1-.3-3.2 0-1 .1-2.1.3-3.1-1.3-.9-2-2-2.3-3.3l-3.8-8.8-2.6-4.2-13.9-10-3.3-.6zm79 33.3l5.6-.5 3.2-1.7 2.1-.8 1.9-3.1-.2-9.8 1.8 8.3 1.8-14.7c-.2 2.9-.3 5.4-.3 7.5 0 5.5.6 8.2 1.7 8.2.2 0 .4-.1.6-.3l.4 2.1-.3 3.4-.9 2.2 1.2 12.4-2.5 2.2-3.6-2.5-1.2-2.8-5.6-1.9-3.9-2.6-4-.8-2.5.8-.3 2.3 1.2 2.7.5 4.1-1.4 6.2.5 2.1v2.7l.6 2.6-.6 5.6 1.2 6.4 4.8 4 4.7.3c1.5-.3 3.1-4.2 4.7-11.9 1.1 6.9 2.8 10.2 5.1 10.1l3.2-.9 4.3-4.9 1-3 1.4-2.4 2.7-16c-.1 1.8-.1 3.5-.1 5 0 6.1.7 9.1 2.1 9.1.3 0 .7-.2 1.1-.5l.3 5.8-1.3 1.7 1 6.6-.5 3.6-2.3 2.7h-4.8l-16.4-.3-3.8.5-13.6-1-4.9.5h-11.2l-3.9-1.9.5-1.8c1-.6 2.1-5.1 3.1-13.4.9 6.6 1.9 9.9 2.8 9.9.1 0 .2 0 .2-.1l2.1-2.5.8-3.2.6-14-.3-2.4.5-4.2-.3-3.2v-4.3l1.6-2.1v-2.7l-1.8-2.6.8-4-.5-2.3.5-3.8 1-3.5 1.3-3.3c-.1-.9-.2-2.6-.5-5.1-.2-1.2-.5-3.4-1-6.6l-.8-2.7-6.5-5.1-2.6-2.6 1-2.2 1.9-.3c1.3-.2 2.8-5.8 4.7-17 .7 11.5 1.6 17.3 2.9 17.5l.9.1c.7.1 1.7-3.3 3.2-10.3.7 7.2 1.9 10.9 3.6 11l1.6-.3 3.2-.6 3.5.3 3.2-.3 4.9-.8 4.5.5 1.5-7.1 2 7.1 3.8 1.3 5.6-.5 1.9.1c.2.1.4.2.5.2 1.9 0 3.4-5.9 4.6-17.8.7 13 1.3 19.8 1.9 20.5l.9 1 1.3 8.8-.8 3.3-1.7.5-3.1-2.8-1.4-3-10.6-5.6-2.8-.5-4.8 1-2.8-1.3-3.8-1h-3l-2.6 1.3-1 3 1 3.6.6 3.5-2.2 7.1 1.4 4.8.3 3.3-.8 2.6v3.2l.8 2.7 2.1 1.3zm96.5 21.7l2.1 1 1.1-14.9 3 15.3 2-.7 1.5-2-1.8-23.8c1.7 9.8 3 14.7 3.7 14.7.1-.1.3-.2.3-.3.8-2 1.6-3.9 2.3-5.8l1.3-9.8 2-2.7c1.6-3.3 2.7-11.3 3.3-24 1.4 5.3 2.6 8 3.6 8 .3 0 .6-.4 1-1.1l1.5-3 1.2-5.1 1.8-3.6 1.8-1.9 5.8.4 1.5-.2 1.8-17.2c1 10.6 2.3 16.5 4 17.6l2.6.8 2.2-11.1 1.3 11.1 1.5 1.8-.5 2.7-4.8 4.7-1.5 4 .5 7.2-.3 4.7-.8 1.7v4.1l-.8.9-.5 8.7.3 4.3 1.5 5.1-2.1 5.8-.3 2.7c0 .4.3 2.7.8 6.9.4 3.3.8 6.2 1 8.7l-1.3 1.2.3 2.1 1.5 2.3 3.3-7.4 1.2 10.9 2.8 1.5-3 3.3-4.8-2.3-2.2-.3-7.1 1.5-3.5.3-2.8-.3-.5-.8-1 .8h-2l-2.1-.8v-2.2l.8-3.1 2.7-1 2.8-5.7-1.3-5.3.3-5.6 1.5-6.4-.3-5.8v-12.7l1.3-5.6-.5-1.9.8-6.6.6-1.3v-3l-2.2-1.8-2.1.5-2.2 5.8-.8 1-1.3 5.6-2.5 4-2.3 8-2.8 5.6c-.8 2.7-2 5.9-3.6 9.7-1.9 4.4-3.4 7.8-4.6 10.2l-5.3 10.7-1.3 1.2-1.4 5-1.5.3c-1.1-3.1-2-5.5-2.8-7.4-.7-1.5-1.8-4-3.5-7.8l1-1.3-.3-2.7-4.6-3.2-.8-2.1v-2.1l-6.6-8.6-.8-4c-2.4-5.8-4.8-10.2-7.1-13.2l-.4-2.1-1.5-1.7-1-2.3v-2.2l-3-4.2-1.5-.6-1.6.4-.3 2.8 1 8.8-.5 2.8c.2 4.2.3 10.4.3 18.6l1 9.4.8 2.2-.3 3.4-1 2.2-.3 2.6 1 2.4c3 3.1 5.4 6 7.1 8.7l-.3 1.2-2.6 1-3-.5-1.5.5-2.9-.5h-8.5l-3.2.5-1.8-.5-.5-1.7 1-12.4 3 10.1 1.3-.8c1.8-2.9 3.1-5.9 3.8-8.8l-.9-6.6.6-4 .3-3.9 1.8-5.1-1-1.9-.3-2.8.8-2.7-.5-5.8-1-2.1-2.8-8.6 4 5.3 1-1.3V209l-1.8-1.9-.5-2.8 1.8-6.1.3-2.7-.3-2.6-2.5-3.5-.3-4.3-1.6-2.1-4.6-2.7-.7-.3-1-1.8-.3-2.4 1-16.5 1.3 15.4 7.5 1.4L592 165l1.8 10.9 6.1.6 3-13.3 3.3 12.8 3.3.1.8 1.5-1.6 6.1.5 5.3 3.5 2.8c3.3 5.9 5.2 9.7 5.8 11.2v2.6c.2.2.4.3.6.3 1.3 0 3-4 5-12 .1 13.2.9 21.6 2.4 25.3 1.5 3.5 2.3 6.5 2.6 9.1l3.5 7.5zm84.7-10.4l-.5 3.3.3 2.7-.5 3.9-.8 1.7.8 2.1.5 4.8v4.5l-.3 1.5.3 4 1.5 4 2.2 3.4 2.6 1.9-.8 1.8-4.5.5-7.9-.8-2.7.5-1.5.5-2.3-.3-2.5-2-2.3 2-3.5-.8-1-2.5 1.5-1 1.5-14.7c.5 8.8 1.2 13.2 2.1 13.2.4 0 .9-.9 1.5-2.8l2.5-4.4v-7l.8-6.9-.8-2.6.5-4.5-.3-4.5v-4.5l-.6-2.1v-3.5l-.3-4 1.4-6.9-.3-3.5-1.1-4.3.3-4.6v-4l-1.8-5.1-3.1-2.3-3-1.4-1-2.1 4.6-3c1.3.1 2.2-4.2 2.6-12.9.6 11 1.5 16.6 2.7 16.6.2 0 .4-.2.6-.3 1.2-1.5 3-2.2 5.2-2.2.5 0 1 0 1.6.1l3-1.2 2.1-23.8 1.8 24h1.3l1-8.8 1 10.6 1.8-1.7 1.7 2.2-.9 2.1-2.6 2.2-1.3 1.8h-.6l-1.5 2.1-.8 4.3v5.6l.5 10.1-.8 1 .3 3.2-.2 14.8zm55.6.3c-4.4.3-7.6.8-9.6 1.3l-2.3 2.1-.8 3-1 2.8-1.1 2.2-.8 2.1-.8 3.5-1.5 2.6-1.5 4.6-.5 3.1.6 2.8 2.3 2 2.8-3 1.8 5.6-.8 3.5-.8 1.3-2.7.3-5-.5-3.4.3-10.8-.5-3.8-2.5c.5-1.6 2-6.8 4.3-15.7.8 8.3 1.7 12.5 2.7 12.5.3 0 .7-.5 1.1-1.4l3.5-6.1 2.8-5.3 3.2-5.1 2.5-2.2.5-3.1 1.5-5.6 1.3-3 3.5-6.1.8-2.2 1.5-5.8 2.7-4.4.8-3.2 1.3-3.8 1.5-11.9 1.5 5.3 1.3-3.2c.3-.7.8-2.1 1.5-4.1l1-2.7.5-9.9 1.9-1.5 1.3-4.3 1 4.3c.1.1.2.2.3.2 1 0 2.7-4.2 4.9-12.6-.2 15.5-.8 23.3-2 23.3l1.4 3.2 3.9-11.8c.3 4.3.4 8 .4 11.1 0 6.2-.6 9.6-1.7 10.5l1.5 2.5 1.8 6.4.3 2.7 4-14.9c-.8 10.2-1.3 17.4-1.3 21.5 0 1.7.1 3 .2 3.7v3.4l2.1 3.5 2.7 6.9c.4.9 1.1 2.6 2.1 5.2.5 1.4 1.2 3.2 2.1 5.4l.4 2.3v2.5l1.8 1.3 1.8 3c-.2 1.3-.3 2.3-.3 3 0 .5.1.8.2.8.5 0 1.7-3.3 3.8-9.8-.3 2.2-.4 4.2-.4 5.9 0 6.2 1.6 9.2 4.9 9.1l-.3 1.9-1.9 1.5h-9.2l-5.3-.3-4.8.5h-6.9l-.6-1.5 2.4-1.3 1.5-4.2 1.8 3.3 1.7-2.6.3-4.6-.5-2.3-.8-1.4-.9-3.4.3-1.9-2.9-4.2-.7-1.9-.3-2.6-.8-1.3-1.2-1.9V231l-1-2.2-1.3-1.5c-.9-1-2.4-1.5-4.5-1.5l-2.6 2.1-2.2-2.2zm4.8-23.3l1.3-2.5-.5-1.3-1.8-1h-1.9l-.8 1-.5 2.1-1 1.7-1.8 3.1-2 5.6v3l-1.3 3.8 2.3 1.2c.5.1 1 .1 1.4.1.4.1.9.2 1.4.2.2-.4.8-3 1.9-7.6.7 4 1 6.6 1 7.6 0 .3 0 .5-.1.6 0 0-.1-.1-.2-.1.6-.2 1.4-.2 2.3-.2h3l.7-3-.3-2.1-.9-3.5-.5-2.8v-2.7l-1.7-3.2z"/><path class="st23" d="M146.6 308.2l-.1-1.4v-7.4l.3-1.1v-1.4l-.6-3c-.7-.7-1.4-1.3-1.9-1.7-.6-.5-1.2-.9-1.7-1.4l-.5-1.3 1.4-1 1.2-3.9 1 3.6 3.3.4.3-2.8 1 2.7 1.6-13.5.6 12.7c.5.1 1.1-2.1 1.6-6.5.5 4.4 1.1 6.7 1.8 6.8l1.4.6 3.4-.5 2.8.1 3.4.8 2.3.3c1.4.6 3.7 2 6.9 4.5.3 1.4.5 2.1.7 2.1.4 0 .8-2.3 1.2-6.8l.5 8 .4 1.7.6 4.2-.1 1.7.1 2.6-.6 1.3-2.2 1.7-1.3 2.2-4.6 2.8h-2.1l-3.6.4h-7.3l-1.1-.3-1.5 1.7-.5 2 .6 3.4-.1 1.7.3 4.8-.1 3.9-.4.5.3 1.2c.7.6 1.3 1.2 2.1 1.7.2.3.3.4.5.4.5 0 1.1-1.7 1.6-5.1l.3 8.3-1.2 1.1-1.9-.4-4.5-.3c-.8-.1-1.4-.1-1.7-.1h-2.1l-1.4-.3-3.6.9-1.7-1.1.2-6.9c.7 3.1 1.3 4.7 1.8 4.7.2 0 .4-.2.6-.6.5-.5 1.2-1 2.1-1.7l.1-1.1-.1-1.6v-3.3l-.2-1.5.2-2.3.4-1.4-.6-4.6v-1.5l.2-4.8-.4-1.1.6-3.8zm20.5-15.3c-1.1-.4-2.8-1-5-1.6l-5.5.2-.8 1.2 1.1 3.7-.5 3.6-.6 1.4v2l.8 3.1-.6 1.5v2.3l3.9.8 1-2.3.9 2.5.7-5.9 1 6 1.5-.1 1.4-.6 2.9-2.5.1-6.9.7 5.2.6-2.2 1.3-.9V302l-.2-2.1-.5-3.1-2-1.6-1.2-1.1-1-1.2zm28.4 30.7v6l.1 4.2.4 1.7 2.5.7.3 2.4-.5 1.4-5.9-.5-2 .1-3.1.9h-1.6l-.8-1.1.3-6.8c.3 2.7 1.1 4.1 2.3 4.1.5 0 1.1-.3 1.9-.8l-.3-2.5v-3l.3-1.6-.5-1.7.3-4.2-.1-2.5-1.4-3.4-1.6-.5-1.2-.8.2-1.7.9-3.8c.7 1.6 1.6 2.3 2.6 2.3.7 0 1.5-.4 2.4-1.2l2.8-1.9.9.1.9 1 2.2-.4c.2.1.3.1.5.1 1.5 0 2.4-3.4 2.8-10.2 0 6.9.9 10.6 2.8 10.9.6.5.9 1.1.9 1.8-.1 1.2-.4 2.3-.9 3.4-1 .6-2.1.9-3.2.9h-.5c-.9-.5-1.5-1.1-2.1-2.1l-1.1-.8c-.4.4-.8.9-1.3 1.5l-.3 1.6v3.3l.1 3.1zm25.2-15.1l.9-6.4 1.2 6.7c2.4.4 4.5 1.3 6.3 2.7.3.2.5.3.8.3 1.4 0 2.2-3.3 2.6-9.9l.9 13.5c.1.4.2 1 .2 1.9v1.2l-.9.3h-1.4c-2.5 0-5.6.4-9.1 1.1-1.5-.2-2.7-.3-3.5-.3-.6 0-1.4.1-2.4.3l-.5 1.7.5 1.6-.2 2.1v4.5l2.1 4.2c1 .4 1.9.6 2.6.6 2.4 0 3.5-2.1 3.5-6.4 0-.6 0-1.3-.1-2 1 5 2.2 7.7 3.4 8.1 2.8-1.1 4.4-3.2 5-6.2l.7 4.3.2 1.4c-.6 3.8-3 5.8-7.1 5.8l-1.2.3H219c-2.5-.4-4.5-1.4-6-3.1-1.1-1.3-2.2-3.4-3.2-6.2 0-1.9.3-4.6.6-8.3v-2.1l.4-.8-.1-24.3c1 11.2 2.5 16.8 4.6 16.8.8 0 1.6-.8 2.6-2.4l2.8-1zm5.9 7.2c-.3-1.9-1.2-3-2.7-3.4-.4-.3-.9-.5-1.4-.5-.5 0-1 .1-1.7.3-2.9.4-4.5 1.6-4.6 3.6.1.2.1.5.1.9 2.3-.2 5.7-.5 10.3-.9zm13.5 1.4l.2-1.7c.9-1.5 1.9-2.5 3.1-3.1l1.3-14.9.7 13.3c1-.3 2.4-2.3 4.1-5.9l.9 5.3.3 1.1c1.3-.6 3.3-1.2 6.1-1.9h2.7l2-13.5c.1 10.3 1 15.4 2.7 15.5l2.8 1c.9-1.1 2.2-1.9 4-2.3l2.2-.1h2.1l1.4-16.3 1.4 17.2.9.7 1.4-9 .9 9.8 1.3 2.4.3 3.1.3 1.3.3 3.7-.1 2.7v1.6l.1 1.5v2.5l-.1 1.7v1.3l1.5 4.2 1.8-11.5.5 13-1.2.8h-.9l-1.6-.1-1.1-.3h-2.3l-2.2.1-1.1.3h-1.9l-1.1-.4v-.8l2.1-2.4.4-5.3-.1-2.2.5-.9.3-2.6-.3-3.3-.6-1.2v-2.1l.1-1.2-.6-1.9-.8-.9-2-.4h-1.9l-2.6.9-1.2 1.2-.9 3.3-.1 3.3-.2 2.5v1.6l1 3.1-.5.9-.3 2.8 1.5 3.3 1.2 1.1.2 1.1-.8.6-1.2.3h-3.6l-3.8.3-5.6-.6-.3-.9.6-.5 1.2-.6 2.6-2.1.5-1.3.1-1.7-.3-2 .5-1.2.1-1.7-.1-1.1.1-1.6-.4-1.1.3-.9v-1.3l-.6-1.4.3-2.5v-2.2l-.6-1.7-2.4-.5-2 .2-3.1 1.5-.7 1.9-.9 1.2v6.1l-.1 1.2-.1 1.9.1 1.2.3 1.1-.2 2.6 1.1 3 1.1-9.5.6 11.7.3 1.6-.8.8-1.1.1-3.1-.8-1.7-.1h-2.2l-1.5.3h-1.4l-1.4-.3-.9-1 .8-8.7 1.2 6.3 1.3-1 1.4-2.5.3-1.4-.2-1.9-.3-.8v-2l.1-.8.1-2.4-.3-1.9.3-1.1c-.5-1.5-1.3-2.7-2.5-3.8zm64.6-7.9l.3 1.8-.7 4.5v3.3l-.1 3.4.1 4.4v2.9l.1 2.6.5 3 1.5 1.3.9.9.3 2-1 .5-1.1.1c-1.7-.1-2.9-.1-3.7-.1-.3 0-1.1.1-2.3.3l-2.3.3-1.1-.1-1.4.1-.9-.6-.9-.8.5-1.2 1.3-5.2c.3 2.5.9 3.7 1.6 3.7.4 0 .9-.4 1.5-1.2l.3-2.3V327c0-2.5.1-3.9.2-4.4l-.2-3.6-.9-.6c-1.1-.1-1.9-.6-2.7-1.5l.3-.8c2.5-1.3 3.7-3.9 3.7-7.6v-1.3l.7 5.3 2.3-.7c1.2-1.2 2.2-4.6 3-10.2l.2 7.6zm-2.5-11.5l-2-.1-1.7-.8-.3-1.4v-2.6l.6-1.3 1.2-.5h1.2l1.9-8.9.9 9.6.7 1.1.6 1.4-.4 1.1-.5.8-.3.6-.9.4-1 .6zm14.3 34.8l-.8-2.3v-1.9l.5-1.2.1-2.8v-7l-.5-.8-1.3-3.3-.9-.6-.9-.9.5-1.4 1.1-.1 1.2-9.8c.1 6.8.9 10.2 2.4 10.2h.2c.3.4.6.6.8.6 1.2 0 2.1-3.8 2.7-11.5v11.1l.7 1.2-.5.9-.2 1.6.1 1.1.1 1.6.3 1.2v1.1l-.3.8-.2 2.6v2l-.1 1.9v5.7c.2.5.5 1 .7 1.6.1.2.3.8.7 1.7l1.8-8.6v1.9c0 5 .7 7.4 2 7.4.3 0 .6-.1 1-.4l1.6-1 1.1-1.4.4-1.3-.1-1.4-.3-1.5c.1-2 .5-3.6.9-4.7l-.5-1.4V319l.5-2.8-.3-1.7-.8-1.1-1.7-.9-.8-1.2.2-1 1.4-.1c.2.1.3.1.4.1 1.6 0 2.6-3.9 2.8-11.8l1.2 11.7h1.7l1.5 1.4v1.3l-.1 1.1.1 2.4v2.3l-.3 1.7v1.5l.3 1.6v3.3l-.3 3.4.4 2.2 1 .8 1.7-.1 1.3-7.5.4 8.4c-.6.6-1.1 1.1-1.7 1.4-.5.3-2 1-4.6 2l-1.1.6-1.1.8-.6 1.2-1.2 1.2-1.1-.3-.2-.9.6-1.2.1-1.1-.4-.6-.8.9c-1.2 1.1-2.1 1.8-2.8 2.1l-3.4.3-2.2-.1c-1.4-.8-2.6-1.9-3.9-3.3l-.6-1.6-.3-1.7v-1.2zm31.3-15.4l.2-1.7c.9-1.5 1.9-2.5 3.1-3.1l1.3-14.9.7 13.3c1-.3 2.4-2.3 4.1-5.9l.9 5.3.3 1.1c1.3-.6 3.3-1.2 6.1-1.9h2.7l2-13.5c.1 10.3 1 15.4 2.7 15.5l2.8 1c.9-1.1 2.2-1.9 4-2.3l2.2-.1h2.1l1.4-16.3 1.4 17.2.9.7 1.4-9 .9 9.8 1.3 2.4.3 3.1.3 1.3.3 3.7-.1 2.7v1.6l.1 1.5v2.5l-.1 1.7v1.3l1.5 4.2 1.8-11.5.5 13-1.2.8h-.9l-1.6-.1-1.1-.3h-2.3l-2.2.1-1.1.3h-1.9l-1.1-.4v-.8l2.1-2.4.4-5.3-.1-2.2.5-.9.3-2.6-.3-3.3-.6-1.2v-2.1l.1-1.2-.6-1.9-.8-.9-2-.4h-1.9l-2.6.9-1.2 1.2-.9 3.3-.1 3.3-.2 2.5v1.6l1 3.1-.5.9-.3 2.8 1.5 3.3 1.2 1.1.2 1.1-.8.6-1.2.3h-3.6l-3.8.3-5.6-.6-.3-.9.6-.5 1.2-.6 2.6-2.1.5-1.3.1-1.7-.3-2 .5-1.2.1-1.7-.1-1.1.1-1.6-.4-1.1.3-.9v-1.3l-.6-1.4.3-2.5v-2.2l-.6-1.7-2.7-.9-2 .2-3.1 1.5-.7 1.9-.9 1.2v6.1l-.1 1.2-.1 1.9.1 1.2.3 1.1-.2 2.6 1.1 3 1.1-9.5.6 11.7.3 1.6-.8.8-1.1.1-3.1-.8-1.7-.1h-2.2l-1.5.3h-1.4l-1.4-.3-.9-1 .8-8.7 1.2 6.3 1.3-1 1.4-2.5.3-1.4-.2-1.9-.3-.8v-2l.1-.8.1-2.4-.3-1.9.3-1.1c-.2-1.1-1-2.3-2.2-3.4zm94.4 5.2l1.1.3 1.2-7.4.6 6.4 1.8-3 .8-1.5.5-.1c.7-1.8 1.5-4.5 2.4-8.1 1.8-3.2 3-5.8 3.6-7.8l.8-1.2c.3-3 .5-4.9.5-5.8l-.9-1.4-2.5-1.4-.8-1.7.6-1.6v-6.2c.8 4.1 1.9 6.1 3.4 6.1.7 0 1.7 0 3.1.1 1.4.1 2.4.1 3.1.1h1.5l1.7-.1c.6 0 1.2-3.1 2-9.3l1.2 8.9.9.8-.4 1.3c-3.8 1.7-6.2 3.3-7.3 4.9-.6.9-1.1 2-1.5 3.3-.3 1.1-.9 2.7-1.6 5l-.8.9-1.2 1.9-.9 2.9-2.2 5.2-.4 2.1c-.6 1.8-2.2 5.3-4.9 10.6-.4 1.1-1.1 3.2-2.1 6.3l-2.1 6.3-1.7 2-1.7-.3-1.4-2.3-.4-2.6-.5-.8-.8-2.8-.3-1.4-.8-.8.1-1.6-.1-1.4c-.6-.9-1.2-2.1-1.8-3.8-.6-1.5-1.2-2.7-1.9-3.7l-.4-2.6v-2.5l-2.3-3.9-.8-3.5-.9-.6-2.1-3.6-1.3-4.3c-.8-2.7-2.2-4.8-4.1-6.5l-1.9-.8-1.2-1.2v-1.9l.6-5.5.8 4.9h5.8c.5 0 .8-1.1.9-3.6.7 2.5 1.3 3.8 1.9 3.9.9-.1 1.4-2.1 1.6-5.9.5 4.5 1 6.8 1.4 6.8.2 0 .3-.4.5-1.1h2.3l1.1-4.2c.2 3.2.6 4.8 1.3 4.8.3 0 .6-.3.9-.9.7.7 1.1 1.4 1.1 2.2 0 .2-.1.8-.3 1.8-1.5 1.2-2.6 2.4-3.4 3.5.4 2.9 1.5 6 3.4 9.3.1.5.3 1.2.6 2.1-.1.6-.2 1-.2 1.2 0 .1 0 .2.1.2.2 0 .9-1.2 2-3.5-.4 2.6-.6 4.6-.6 5.9 0 .6 0 1 .1 1.3l.1 2 .6.7c0 .1 0 .1.1.1.2 0 .8-1.3 1.9-3.8-.6 4-.9 6.6-.9 7.7v.4l.7.6.1 1.6.6 1.6zm43.8-7.2l-1.6-1.2c-1.8.8-3.1 1.4-3.8 1.6-1.4.5-2.7.7-4.1.8l-1.1-1.1 1.9-12.1c.1 5.4.5 8.2 1.4 8.2.2 0 .3-.1.5-.3l3.6-1.9 4.4 1c.1.1.3.2.5.2 1 0 2.1-3.5 3.1-10.4 0 8.1.3 13.2.9 15.2l.1 14.1-.4 3.1c.6.9 1.1 1.6 1.6 2.3l.9-5.9c0 4.2.4 6.6 1.5 7.1l.1 2.3c-1.6 1.4-3.3 2.2-5.3 2.3-1.6-.1-3.1-.7-4.7-1.6l-3.3 1.4h-3c-3.5-.5-5.2-1.9-5.2-4.3 0-.2 0-.5.1-.8v-2.4c.4-1.9.9-4.5 1.5-7.8.5 1.8 1.2 2.6 2 2.6.7 0 1.4-.6 2.2-1.7 2.5-1.4 4.1-2.8 5.1-4.4.8-1.3 1.1-3 1.1-5.2v-1.1zm-.7 10.6c-1.8.8-3 1.7-3.7 2.6-.8 1-1.2 2.4-1.4 4.3.5 2 .9 3.1 1.3 3.1s.8-1.2 1.2-3.6c.6 2.7 1.4 4.1 2.3 4.1.4 0 .7-.2 1.1-.7l-.5-4.1.3-.9-.5-1.1.1-2.6-.2-1.1zm17.4-4.7l-.1-.8.1-1.4c-.6-1.6-1.3-2.8-2-3.7l-1.1-.8.6-7.5 1.5 5.6 1.9-.8 1.8-1.2 1-1.4 1.5-1.1 2.1-17.7.6 18.6-.3 1.1-.6.7.9 1.1 1.2-.5 1-.8 2-1.1 1.2-8 .9 8.5 2.5.5c.6.9 1.2 1.4 1.7 1.4 1.2 0 2.1-2.8 2.6-8.3l1.6 12.1.9 1.4.8 2.6.1 2.7v5.5l-.3 2.3-.8 2.6-2.8 3.9-3.4 3.1-2.5 1.2-2.7.5-1.2-.3-1.8-1.1-1.2-1-1.2.1c-.9 1.3-1.2 3.2-.8 5.7l.2 1.3v9l.1 1.1c.4 1.1.9 1.7 1.3 1.7.7 0 1.3-1.5 1.8-4.5v6.4l.1 1.2-1.3-.1H508l-1-1.5-1.8 1.5h-2.4l-.9-1.7-.9 2h-1.2l-.8-.4-.1-1.1.6-1.5 1-1 1.7-3.7.6-1.5.1-2.5-.4-1.3-.2-1.7.5-4 .1-2.2-.1-6.4.1-2.8-.1-2.8v-2.8l.2-1.8-.1-.7-.2-1.9zm13.7-5l-1.4-.3h-2.3l-1.9.1-1.4 1.1-.5 2-.1 1.9v1.5l.1 1.9-.1 1.2-.1 1.9.2 1.1v3.1l.6 1.9 1.2 1.7 1.9.8 1.9-9.7c.2 6.3 1.3 9.4 3.4 9.4.2 0 .5 0 .7-.1l2.4-2.8.7-2.7.2-1.6.3-1.8-.5-1.6-.1-2-.5-1.9-.9-1.6-.8-.8-.3-1.2-1.3-1-1.4-.5zm27.8-6.8l.3 1.8-.7 4.5v3.3l-.1 3.4.1 4.4v2.9l.1 2.6.5 3 1.5 1.3.9.9.3 2-1 .5-1.1.1c-1.7-.1-2.9-.1-3.7-.1-.3 0-1.1.1-2.3.3l-2.3.3-1.1-.1-1.4.1-.9-.6-.9-.8.5-1.2 1.3-5.2c.3 2.5.9 3.7 1.6 3.7.4 0 .9-.4 1.5-1.2l.3-2.3V327c0-2.5.1-3.9.2-4.4l-.2-3.6-.9-.6c-1.1-.1-1.9-.6-2.7-1.5l.3-.8c2.5-1.3 3.7-3.9 3.7-7.6v-1.3l.7 5.3 2.3-.7c1.2-1.2 2.2-4.6 3-10.2l.2 7.6zm-2.5-11.5l-2-.1-1.7-.8-.3-1.4v-2.6l.6-1.3 1.2-.5h1.2l1.9-8.9.9 9.6.7 1.1.6 1.4-.4 1.1-.5.8-.3.6-.9.4-1 .6zm14.4 21.4l-.4-.8.3-1.3v-.8l-.8-.5-1.4-.6-.3-.9.6-1.1 1-8.2 1 7.5h.8l1.3.9c.3-1.1.7-1.9 1-2.2.7-.4 1.3-.9 2-1.3l.9-16c.4 10.7 1 16.1 1.7 16.1.1 0 .2-.1.2-.2l.7.2.3 1.5-.3 1.2.9.5 3.3-1.7 1.4-.3 2.2.3.6-3 .4 3.4 1.3.7 1.2-10.7 1.1 12.6c.1 1.3.6 2.5 1.4 3.7v1.2l-.3 1.1v1.5l-.3 1.3.4 3.3.2 3.1.1 2.1.1 1.3-.1 1.8c.4 1.3.8 2 1.1 2 .6 0 1.2-1.9 1.7-5.7v8.6h-6.7l-2.2.3h-4.1l-.6-3-2.1 1.2-.3 2.4-2.7-.1-3-.3-3.3-.1-1.4-.3-1.8.4-.8-1.8 1.1-1.5 1.5-.6c.6-.6.9-1.4 1-2.5l.1-2.6-.1-2.2.1-3 .2-2.7.3-1.4v-1.7l-.5-1.1zm12.2-3.8h-.7l-.9.5-1.4.3c-1 1.2-1.6 2.8-1.9 5l.1 3-.3 2-.1 1.7.1 1.9-.1 2.3.5 2.4.9 1.7 1.4-3.2 1.2 3.1c.1.2.3.3.4.3.6 0 .9-2.8.8-8.3l1 8.7 1.5-.8.8-1.1V333l.1-1.3.1-1.7-.4-3.1.1-2.1.2-1.7v-3l-.4-2.2-.7-1.2-1.4-1-.9-.4zm25.8 14.1l-.5 1 .6 1.4c1.2.7 2.4 1.1 3.5 1.3 1-.2 1.7-.3 2.1-.3.4.1 1.4.3 3 .6 1.8.3 3.2.7 4 1 .9.3 1.8.9 2.7 1.7.3 1.1.6 1.6.9 1.6.7 0 1.4-2.9 2.1-8.7l-.1 6.9c0 1 0 2.6.1 4.6v5.3c0 2.7-1.5 5.4-4.4 8-2.8 2.5-5.6 3.8-8.5 4.1l-.9-.4h-1.6c-1.9 0-4-.5-6.5-1.4l-1.1-1.4-1.6-.9c-.6-.8-1.7-2.8-3.3-6.1l.1-1.5c1.4-4 3.1-6.5 5.1-7.5 0-.8-.3-1.7-.8-2.7-.6-1.2-1-2-1.1-2.5.3-2 .9-3.4 1.7-4.4v-.8c0-.8-.5-1.5-1.4-2.1-.8-2.2-1.3-3.7-1.4-4.6V320c.5-5.3.7-10.2.7-14.6.6 5.5 1.3 8.3 2.2 8.3.5 0 1-.8 1.5-2.3 3.7-1 6.2-6.8 7.5-17.2v14.9c1.8.3 4.5.7 8.1 1.1.5-.1 1.3-2.5 2.3-7.1-.2 2.4-.3 4.2-.3 5.5 0 1.5.1 2.2.4 2.2.4 0 1.1-1.4 2-4.3.5 2.8.8 4.6.8 5.5v.6c-.3.5-.7 1.2-1.2 2.2v1.2c.5 1.4.8 2.8.8 4.2 0 1.4-.3 2.5-.8 3.3l-.8 2.1c-1 2.7-3.3 4.1-6.9 4.1h-.8c-.6.2-1.4.4-2.6.6-.1 0-1.1-.2-3-.5-1.1-.2-2-.3-2.6-.3zm3.8 10.9h-1.3c-1.3 0-2 .5-2.1 1.5.2.5.3.9.3 1.1-1.6 1.6-2.5 3.7-2.8 6.2.8 1.5 1.6 2.2 2.3 2.2 1.1 0 2.1-1.6 3.1-4.9v1.3c0 3.7 1 5.5 2.9 5.5.4 0 .7.1 1.1.1 2.1 0 3.7-.7 4.9-2 1.2-1.3 1.8-3 1.8-5.1l-.6-.7v-1.1c-1.4-3-3.8-4.5-7.2-4.5-.8.1-1.6.2-2.4.4zm-.2-28.4l-2.6 1.5-.7 2.2c-.4.7-.7 1.7-.9 3.1 0 .6.3 1.5.7 2.6.3.8.5 1.6.8 2.6.9.8 2.3 1.7 4.3 2.8l1.2-7.5c.2 4.4.9 6.5 2.1 6.5h.3c1.4-.3 2.5-1.5 3.3-3.5 0-.6-.2-1.2-.5-1.8.3-.9.5-1.7.5-2.5 0-1.7-.8-3.3-2.3-4.8-2.1-.7-4.1-1.1-6.2-1.2zm53.5 9l.3 3v2.3l-.6 1.5-.1 1.7.1 2.6.8.8.6 1.2 4.7 1.6 1.2-3.5 1.5 3.7c.9.1 1.6-2.8 2.2-8.6.2 5.9.7 8.8 1.6 8.8.1 0 .3-.1.5-.2h3.6l1.5-1.1 1.3-2.8.5-.8.4-1.7.9-.5.8-13 .9 12.9.8.5-.4 2.2.4 1.3v1.4l-.1 1.1v4.1l-.6.8-3.4.3h-5.5l-2.3.1h-10.4l-3.3-.6h-1.6l-2.1.5h-2.6l-2.2.3h-2.1l-1.9-.4-.8-.9v-7.2l.7 6.1 3.3-2.3 1.2-1.6.1-1.7v-2.9l.1-1.6.7-1.1-.1-1.9-1.1-3.7v-1.7l.6-2.4.2-3.4v-1l-.4-.3-.3-1.8.2-1.9.8-2.3V304l-.3-3.9v-2.5l.1-1.1V295l-1.1-1.9-2.8-1.9-.7-1.5.1-1.3 1.6-.2 1.1-8 .9 8.2c.7.1 1.2-4.6 1.5-14.1.2 10.1.8 15.2 1.7 15.2.2 0 .4-.2.6-.7l2.7.1 3.1-.8 1.6.1c.5 0 1.2-2.1 2-6.4.2 4.2.6 6.5 1.3 6.6l1.1.3-.3 1.1-2.7 1.8-1.1 1.3-.6 2-.8 1.6v4.5l-.1 2.2v1.9l-1.4 3.3.1 1.6 2.4-2.7c.1 2.1-.3 3.5-1.1 4.4l-.2 4.5.1 3.7.6 1zm51.6-3.1c-2.6.2-4.4.4-5.6.8l-1.4 1.2-.5 1.8-.6 1.7-.7 1.3-.5 1.2-.5 2-.9 1.5-.9 2.7-.2 1.9.4 1.7 1.4 1.1 1.6-1.8 1 3.3-.5 2.1-.5.8-1.4-.1-2.9-.3-2 .1-6.3-.3-2.2-1.4c.3-.9 1.2-4 2.5-9.2.4 4.9 1 7.3 1.6 7.3.2 0 .4-.3.6-.8l2.1-3.6 1.7-3.1 1.9-3 1.4-1.3.3-1.8.9-3.3.8-1.7 2-3.6.5-1.3.9-3.4 1.6-2.6.5-1.9.8-2.2.9-7 .9 3.1.8-1.9c.2-.4.5-1.2.9-2.4l.6-1.6.3-5.8 1.1-.9.8-2.5.6 2.5c.1.1.1.1.2.1.6 0 1.6-2.5 2.9-7.4-.1 9.1-.5 13.6-1.2 13.6l.8 1.9 2.3-6.9c.2 2.5.2 4.7.2 6.5 0 3.6-.3 5.6-1 6.1l.9 1.4 1.1 3.7.1 1.6 2.3-8.7c-.5 6-.7 10.2-.7 12.6 0 1 0 1.7.1 2.1v2l1.2 2 1.6 4 1.2 3c.3.8.7 1.9 1.2 3.2l.2 1.4v1.4l1.1.8 1.1 1.7c-.1.8-.1 1.4-.1 1.7 0 .3 0 .5.1.5.3 0 1-1.9 2.2-5.8-.1 1.3-.2 2.4-.2 3.5 0 3.6 1 5.4 2.9 5.3l-.1 1.1-1.1.9h-5.4l-3.1-.1-2.8.3h-4l-.4-.9 1.4-.8.9-2.5 1.1 2 1-1.5.1-2.7-.3-1.4-.5-.8-.5-2 .1-1.1-1.7-2.4-.4-1.1-.1-1.5-.4-.8-.7-1.1v-1.5l-.6-1.3-.8-.9c-.5-.6-1.4-.9-2.6-.9l-1.5 1.2-1.9-.8zm2.8-13.6l.8-1.4-.4-.8-1.1-.6h-1.1l-.5.6-.3 1.2-.6 1-1.1 1.8-1.2 3.3v1.8l-.8 2.2 1.4.7c.3 0 .6.1.8.1.3.1.5.1.8.1.1-.3.5-1.7 1.1-4.4.4 2.4.6 3.9.6 4.5 0 .2 0 .3-.1.3l-.1-.1c.4-.1.8-.1 1.4-.1h1.8l.4-1.8-.2-1.2-.5-2.1-.3-1.7V306l-.8-1.8zm27.8-13.9c-.2-.3-.3-.5-.4-.7-.2-.1-.4-.3-.6-.6l.9-.8.9-.1.8-5.9 1.3 5.8c.8 0 1.9.2 3.5.5l1-6.3c0 4.7.7 7 2.2 7h.3l2.2-.5h2.2l1.8.1 2.3.2c.7-.2 1.3-2.8 1.9-7.7.9 5.2 1.8 7.7 2.5 7.7l3 .4h.1c.5 0 1-1.8 1.5-5.5.4 4.9.9 7.3 1.6 7.3.1 0 .2 0 .2-.1l4.7 3.7 1.1 1.1.5 1.9 1.4-3.4c0 .7.1 1.3.1 1.9 0 2.3-.3 3.9-.9 4.9l.5 1.9.1 1.7-.8 2.3-1.2 1.6-1.7.6-.8.6-.9.9-1.2.5-1.3.8v.9l5 4.2.6 1.4 1-3.2.2 5.2.2.8c.1.3.3 1 .5 1.9.1.7.3 1.7.6 3l.1 1.9-.1 1.5-.5 2.2-1.4 3.3-1.2.9-1.3.4-2 2-3.9 1.5-3 .3-2.5.3h-4.1l-4.3.1-1.8-.3-3.1-.1-4.6.4-1.9-.3-1.8-.7 1.2-1.2.3-4.1 1.5 2.8 1.1-1.7v-1.7l.8-.5.1-2.4.1-3.8-.1-3.1v-19.1l.5-1.8-.3-1.9-.2-1.7v-2.8l-.1-2.3-.9-2-1.4-1.2-2.1-.9zm22.3 23.5h-1.4l-3.4-.7-1.9.3-1.7 1-1.3 3.3v4.2l-1.2 2.5c-.1.8-.2 1.5-.2 1.9 0 .7.1 1 .3 1 .4 0 1.3-1.2 2.5-3.7l-1.3 5.3-.3 1.8-.6 1.7.3 1.7 1.6 1.2c.7.2 1.5-1.7 2.6-5.6.3 4.3.8 6.6 1.5 6.8.6 0 1.3-1.9 1.9-5.9.6 4 1.3 6 1.9 6l2.8-.4 1.7-.9 1.1-1.7.9-2.8.2-2.3.4-1.7.2-1.7-1.2-4.3-.3-2.1-2-3.8-1.5-.9-1.6-.2zm-1.6-22.6l-1 .1-2.6-.5-1.5.1-1.6 1.3-.6 2.1.5 1.7c0 .2-.2.7-.3 1.4-.2.8-.4 1.8-.7 3.1v1.7l.6 1.5.3 1.3v1.2l.3 1.6 1.9 1.4 1.3.1.7-3.1 1.7 3.1 1.1.4 1-.2.9-10.9 1.3 10.3 1.1-.4 2.2-2.2 1.1-1.8.1-2.2V298l-.3-1.3-.9-2.1-1-.8-.4-.8-.9-1.1-1.6-.7h-2.7zm23.7.2l-.8-.6-.9-1.4.6-1.6 1.4-.6 1.3.7 4.6 4.4 1.6 1.8 1.4 1.1.9 1.1h-2.3c-.6-.4-1.8-1.2-3.4-2.3-.7-.4-1.8-1-3.4-2l-1-.6zm22.3 18.6c2.4-.2 3.9-2.2 4.6-5.9 0 .5-.1 1-.1 1.4 0 2.9 1.1 4.6 3.4 5l1.7-.5 1-10.2 1.3 12.9-.1 5.1-1.1 1.2-1.5-.8-.6-1.1-.6-1.9-1.1-1.4-2.3-1.4-2.3-.1-1.9.5-1.5 2.2.1 1.7 1.5 2.3 2.2 1.6 3.8 1.5 2.2 1.1c1 1.9 1.9 2.8 2.5 2.8.6 0 1.1-.9 1.5-2.6.1 3.5.2 5.5.4 6.1l-.2 1.5v2.3l-1.2 3.7-3.1 2.4-3.3.3h-2.1l-1.9 1.1-1.2-.9-2.2-.6-3.6 1.7-1.8-.8-.1-1.1.8-3.4-.5-2.1-.1-1.7.8-5.5 1 5.8 2.5 2.2.9 1.6 3.4.9 1-3.2c.4 1.8 1 2.7 1.8 2.7.9 0 1.9-1 3.2-2.9l.3-1.6-2.1-2.8c-4.2-1.6-7.1-2.6-8.7-3l-.8-1.3-.8-1.2-1.3-1.3-.9-1.5-.1-1.9.1-2 2.1-4 1-19c.3 11.3 1.1 17 2.2 17 .1 0 .3-.1.4-.3l1.4-.6z"/><path class="st24" d="M1425.5 123.1s0-13.9 2.3-20.6c2.3-6.8 13.8-16.1 26.7-4.5 12 10.8-4.2 26.4-12.6 26.7s-16.4-1.6-16.4-1.6z"/><path class="st2" d="M1418.7 341.2s-11.6-.9-11.6-21.1v-113s.9-15.5-24.1-15.5v-12.5s1.3-8.6-14.2-8.6v-53.7h-81.1v53.7c-15.5 0-14.2 8.6-14.2 8.6v12.5c-24.9 0-24.1 15.5-24.1 15.5v113c0 20.2-11.6 21.1-11.6 21.1l-35.2 9.5h251.3l-35.2-9.5zm-114.2-102.5h-43.8v-21.8c0-3 2.4-5.4 5.4-5.4h33.1c3 0 5.4 2.4 5.4 5.4v21.8zm21.2-57.2h-7c-1.4 0-2.6-1.2-2.6-2.6 0-1.4 1.2-2.6 2.6-2.6h7c1.4 0 2.6 1.2 2.6 2.6 0 1.5-1.2 2.6-2.6 2.6zm11.1-5.1h29c2 0 3.5 1.6 3.5 3.5 0 2-1.6 3.5-3.5 3.5h-29c-2 0-3.5-1.6-3.5-3.5-.1-1.9 1.5-3.5 3.5-3.5zm8 53.3c0 3.8-3.1 6.9-6.9 6.9s-6.9-3.1-6.9-6.9v-7.1c0-3.8 3.1-6.9 6.9-6.9s6.9 3.1 6.9 6.9v7.1zm50.6 9h-43.8v-21.8c0-3 2.4-5.4 5.4-5.4h33.1c3 0 5.4 2.4 5.4 5.4v21.8z"/><path class="st26" d="M1395.4 238.7v87c0 3-2.4 5.4-5.4 5.4h-124c-3 0-5.4-2.4-5.4-5.4v-87"/><path class="st27" d="M1364.6 250.5c-11.2-5.6-12.9-9.4-13.1-11.8h-47v-1.1 2.1s-2.1 7.6-11.8 13.1c-9.7 5.5-16.9 4.7-16.9 28v50.3h104.9v-49.5s2.5-23.4-16.1-31.1z"/><path class="st24" d="M1367.9 319.7c0 3-2.4 5.4-5.4 5.4h-.4c-3 0-5.4-2.4-5.4-5.4v-49c0-3 2.4-5.4 5.4-5.4h.4c3 0 5.4 2.4 5.4 5.4v49z"/><path class="st2" d="M1145.8 433.4l-16.3-46h-6.5v-9.3h28v9.3h-7.1l9.2 27.5 9.3-27.5h-7v-9.3h24.3v9.3h-6.7l-15.7 46h-11.5zm86.5-9.6v9.3h-27v-9.3h7l-2.6-9.4h-14.2l-2.9 9.4h7.3v9.3h-24.3v-9.3h6.8l10.7-36.3h-7.3v-9.3h35.8v9.3h-7.4l11.5 36.3h6.6zm-24.9-17.5l-4.6-16.5-4.9 16.5h9.5zm56.1 17.5v9.3h-28.9v-9.3h7v-36.3h-7v-9.3h28.9c6.7 0 11.9 1.6 15.6 4.7 3.7 3.2 5.5 7.4 5.5 12.7 0 3.1-.6 5.8-1.9 8.3-1.3 2.5-2.9 4.4-5 5.7-2 1.3-4.3 2.2-6.9 2.7-2.6.5-5.8.7-9.7.7h-5.2v10.6h7.6zm-7.7-19.8h2.1c4.9 0 8-.8 9.4-2.4 1.4-1.6 2.1-3.6 2.1-5.9 0-2-.5-3.7-1.5-5.1-1-1.4-2.1-2.3-3.4-2.6-1.3-.3-3.3-.5-6.2-.5h-2.7V404zm32.9 29.1v-9.3h6.6v-36.3h-6.6v-9.3h48.4v17.4h-10.5v-8.1h-17v12.7h13.7v9.3h-13.7v14.4h17v-8.2h10.5v17.5h-48.4zm59 0v-13.2h13.2v13.2h-13.2z"/><path class="st26" d="M1427.6 423.8v9.3h-16.7l-12.4-24h-6.3v14.8h6.9v9.3h-28.7v-9.3h7.5v-36.3h-7.5v-9.3h33.1c6.2 0 10.7 1.6 13.5 4.7 2.7 3.1 4.1 6.7 4.1 10.7 0 6.2-3.2 10.8-9.5 13.6l8.9 16.6h7.1zm-35.4-23.5h4.9c6 0 9.1-2.2 9.1-6.5 0-2.1-.7-3.7-2.1-4.8-1.4-1.1-3.3-1.6-5.7-1.6h-6.2v12.9z"/><path class="st26" d="M1483.9 423.8v9.3h-27v-9.3h7l-2.6-9.4h-14.2l-2.9 9.4h7.3v9.3h-24.3v-9.3h6.8l10.7-36.3h-7.3v-9.3h35.8v9.3h-7.4l11.5 36.3h6.6zm-24.8-17.5l-4.6-16.5-4.9 16.5h9.5zm36 26.8v-9.3h7.7V409l-14.9-21.5h-6.7v-9.3h27.5v9.3h-5.4l8.1 13.4 8.2-13.4h-5.7v-9.3h24.2v9.3h-6.7l-14.2 21.5v14.8h7.7v9.3h-29.8z"/><path class="st28" d="M1495.9 238.9c0-15.5-9.7-28.8-23.4-34.1 4.5-7.2 7.1-15.7 7.1-24.8 0-25.9-21-46.8-46.8-46.8-7.3 0-14.3 1.7-20.5 4.7 2.7-6.2 4.1-13 4.1-20.2 0-28.2-22.9-51.1-51.1-51.1-17.5 0-33 8.8-42.2 22.3-10.7-13.6-27.3-22.3-45.9-22.3-32.3 0-58.4 26.2-58.4 58.4 0 1.2 0 2.4.1 3.5-30.7 1.7-55.1 27.2-55.1 58.3 0 9.8 2.4 18.9 6.6 27-7.1 8.2-11.4 18.9-11.4 30.6 0 24.4 18.7 44.5 42.6 46.6-.3 2.2-.5 4.4-.5 6.6 0 20.8 14.5 32.9 33.9 37.4V202.1s-.8-22.3 24.1-22.3V169s-1.7-10.2 16.6-10.2v-54.6h105v54.6c18.3 0 18.3 7.3 18.3 7.3s-1.6-1-1.6 13.6c27.2 0 24 22.3 24 22.3v132.9c3.1 1.4 6.5 2.1 10 2.1 6.9 0 13.2-2.8 17.8-7.4 2.7-2.7 4.8-6.1 6-9.8.8-2.5 1.3-5.1 1.3-7.8 0-3.5-.7-6.8-2-9.8 10-4.9 16.9-15.1 16.9-27 0-.7 0-1.4-.1-2 14.4-4.8 24.6-18.4 24.6-34.3z"/><path class="st26" d="M1495.9 238.9c0-15.5-9.7-28.8-23.4-34.1 4.5-7.2 7.1-15.7 7.1-24.8 0-25.9-21-46.8-46.8-46.8-7.3 0-14.3 1.7-20.5 4.7 2.7-6.2 4.1-13 4.1-20.2 0-28.2-22.9-51.1-51.1-51.1-17.5 0-33 8.8-42.2 22.3-10.7-13.6-27.3-22.3-45.9-22.3-32.3 0-58.4 26.2-58.4 58.4 0 1.2 0 2.4.1 3.5-30.7 1.7-55.1 27.2-55.1 58.3 0 9.8 2.4 18.9 6.6 27-7.1 8.2-11.4 18.9-11.4 30.6 0 24.4 18.7 44.5 42.6 46.6-.3 2.2-.5 4.4-.5 6.6 0 20.8 14.5 32.9 33.9 37.4V202.1s-.8-22.3 24.1-22.3V169s-1.7-10.2 16.6-10.2v-54.6h105v54.6c18.3 0 18.3 7.3 18.3 7.3s-1.6-1-1.6 13.6c27.2 0 24 22.3 24 22.3v132.9c3.1 1.4 6.5 2.1 10 2.1 6.9 0 13.2-2.8 17.8-7.4 2.7-2.7 4.8-6.1 6-9.8.8-2.5 1.3-5.1 1.3-7.8 0-3.5-.7-6.8-2-9.8 10-4.9 16.9-15.1 16.9-27 0-.7 0-1.4-.1-2 14.4-4.8 24.6-18.4 24.6-34.3z"/><path class="st29" d="M1421.6 335.1c3.1 1.4 6.5 2.1 10 2.1 6.9 0 13.2-2.8 17.8-7.4 2.7-2.7 4.8-6.1 6-9.8.8-2.5 1.3-5.1 1.3-7.8 0-3.5-.7-6.8-2-9.8 10-4.9 16.9-15.1 16.9-27 0-.7 0-1.4-.1-2 3.4-1.2 6.5-2.9 9.4-4.9v-9.8h-59.2c-.1 27.4-.1 58.2-.1 76.4z"/><path class="st24" d="M1287.6 104.4c12.9-4.3 13.3-10.9 13.3-10.9s4.7-17.9-28.4-14.5c-33.1 3.4-41.7 34.4-37.8 59.7-88.1 1.3-64.3 75.1-64.3 75.1-.1.1-.1.2-.2.2l-8.1 23.4 8.1 31.8 31.3 14.9 9.6 25 15.5 5.6 7.8-131.5 26.4-26.2 15.1 1.7v-54.6"/><path class="st30" d="M1189.6 258.7s-36.5-35.2 6.9-54.6c-.4-10.3 5.2-27.1 22.3-22.6 0 0-23.2 9.7-6.4 34.2 0 0-39.6-1.3-22.8 43z"/><path class="st24" d="M1380.8 158.9v.1c18.3 0 19.7 8.3 19.7 8.3s-3-1.9-3 12.7c27.2 0 24 22.3 24 22.3V287l8.3 24.8h16.8l9-30 15.8-7.4v-1.1c.9-.3 1.8-.7 2.7-1l8.7-7s.6.4 1.4.3c1.1-1 2.1-2 3-3.1 1.6-3.4 4.9-10.2 5.5-23.7 1.3-31.8-23.3-34-23.3-34s17.7-80-49.8-58.1c-3.8 1.2-19.4 17.2-17.1-1.2 3.9-25.4 4-63-29.1-66.4-33.1-3.4-28.4 14.5-28.4 14.5s1.3 6.6 14.2 10.9h21.6v54.4z"/><path class="st29" d="M1259.2 179.9v-10.8s-1.7-10.2 16.6-10.2c0 0-19.1-16.6-30 13.3-14.6 4.3-23.6 10.7-23.6 61.4v67.5s2.2 8.6-4.3 8.6-5.6-5.2-5.6-14.6v-19.4s-64.5 2.2-41.9-61.8c-7.1 8.2-11.4 18.9-11.4 30.6 0 24.4 18.7 44.5 42.6 46.6-.3 2.2-.5 4.4-.5 6.6 0 20.8 14.5 32.9 33.9 37.4V202.2s-.7-22.3 24.2-22.3z"/><path class="st30" d="M1468.4 258.7s36.5-35.2-6.9-54.6c.4-10.3-5.2-27.1-22.3-22.6 0 0 23.2 9.7 6.4 34.2.1 0 39.6-1.3 22.8 43z"/><path class="st29" d="M1397.5 179.9v-10.8s1.7-10.2-16.6-10.2c0 0 19.1-16.6 30 13.3 14.6 4.3 23.6 10.7 23.6 61.4v67.5s-2.1 8.6 4.3 8.6 5.6-5.2 5.6-14.6v-19.4s62.7.6 40.1-63.4c9.3 9.1 13.1 20.4 13.1 32.1 0 24.4-18.7 44.5-42.6 46.6.3 2.2.5 4.4.5 6.6 0 20.8-14.5 32.9-33.9 37.4V202.1s.8-22.2-24.1-22.2z"/><path class="st26" d="M1454.5 98c-13-11.6-24.5-2.3-26.7 4.5-.4 1.1-.7 2.5-1 3.9 1.6-1.1 12.2-7.6 19.1.1 3.5 3.9 7.7 5.9 11.3 6.4 2.4-4.7 2.4-10.3-2.7-14.9z"/></svg>