<svg id="Layer_1" xmlns="http://www.w3.org/2000/svg" viewBox="0 0 591 318"><style>.st0{enable-background:new}.st1{fill:#fff}.st2{fill:#2c3535}</style><g class="st0"><path class="st1" d="M164.9 218V34.8h23.6c14.3 0 21.6 6.2 21.6 18.3v59.2c0 11.5-8.1 18.3-21.6 18.3h-11.6V218h-12zm21.8-96.9c4.2 0 11.3-1.3 11.3-9.8V54.6c0-6.9-3.7-10.3-11.3-10.3h-9.8v76.8h9.8z"/><path class="st2" d="M188.5 35.8c13.6 0 20.6 5.5 20.6 17.3v59.2c0 10.3-7 17.3-20.6 17.3h-12.6V217h-10V35.8h22.6m-12.6 86.3h10.8c7.3 0 12.3-3.5 12.3-10.8V54.6c0-7.8-4.5-11.3-12.3-11.3h-10.8v78.8m12.6-88.3h-24.6V219h14v-87.4h10.6c7.1 0 12.7-1.8 16.7-5.3 3.8-3.4 5.9-8.2 5.9-14V53.1c0-12.8-7.6-19.3-22.6-19.3zm-10.6 11.5h8.8c7 0 10.3 3 10.3 9.3v56.7c0 7.3-5.6 8.8-10.3 8.8h-8.8V45.3z"/><path class="st1" d="M232.2 219c-8.9 0-13.6-4.3-13.6-12.3v-47.9c0-12.9 6.7-18.6 21.8-18.6h3v-35.4c0-4.2-2.1-6.3-6.5-6.3-5 0-7.3 1.9-7.3 6.3v23.1h-11v-25.1c0-9.3 6-13.8 18.3-13.8 11.8 0 17.6 4.5 17.6 13.8V218h-11v-4.4c-2 3-5.1 5.4-11.3 5.4zm9.7-69.2c-8 0-12.3 1.7-12.3 10.5v44.4c0 2.2.7 4.8 5.8 4.8 4.6 0 8-5.4 8-12.8v-46.9h-1.5z"/><path class="st2" d="M236.9 90c9.8 0 16.6 3 16.6 12.8V217h-9v-6.3h-.5c-1.8 3.8-4.5 7.3-11.8 7.3-6.8 0-12.6-2.5-12.6-11.3v-47.9c0-11 4.8-17.6 20.8-17.6h4v-36.4c0-4-1.8-7.3-7.5-7.3-6.5 0-8.3 3.3-8.3 7.3v22.1h-9v-24.1c0-9.8 7-12.8 17.3-12.8m-1.5 120.5c5.3 0 9-6 9-13.8v-47.9h-2.5c-8.5 0-13.3 2-13.3 11.5v44.4c0 3.5 1.8 5.8 6.8 5.8M236.9 88c-4.8 0-19.3 0-19.3 14.8v26.1h13v-24.1c0-2.8.8-5.3 6.3-5.3 3.9 0 5.5 1.6 5.5 5.3v34.4h-2c-15.6 0-22.8 6.2-22.8 19.6v47.9c0 8.6 5.2 13.3 14.6 13.3 5 0 8.2-1.5 10.3-3.6v2.6h13V102.8c0-9.8-6.3-14.8-18.6-14.8zm-1.5 120.5c-4.4 0-4.8-2-4.8-3.8v-44.4c0-7.3 2.6-9.5 11.3-9.5h.5v45.9c0 6.7-3 11.8-7 11.8z"/><path class="st1" d="M267 218V90h11v5c2.4-3.2 6.7-6 12.1-6h1v9.5h-1c-7.9 0-12.1 4.4-12.1 12.8V218h-11z"/><path class="st2" d="M290.1 90v7.5c-8 0-13.1 4.5-13.1 13.8V217h-9V91h9v6.8h.5c1.5-3.3 6-7.8 12.6-7.8m2-2h-2c-4.6 0-8.4 1.9-11.1 4.4V89h-13v130h13V111.3c0-7.7 3.8-11.8 11.1-11.8h2V88z"/><path class="st1" d="M298.6 218V90h11v128h-11zm-1-159.6V43.3h13v15.1h-13z"/><path class="st2" d="M309.6 44.3v13.1h-11V44.3h11m-1 46.7v126h-9V91h9m3-48.7h-15v17.1h15V42.3zm-1 46.7h-13v130h13V89z"/><path class="st1" d="M322.2 34.8h11V218h-11z"/><path class="st2" d="M332.2 35.8V217h-9V35.8h9m2-2h-13V219h13V33.8z"/><path class="st1" d="M375.7 218l-17.9-66.2V218h-11V34.8h11v104.3L375 90h11.1l-18.7 54 19.4 74z"/><path class="st2" d="M356.8 35.8V217h-9V35.8h9M384.7 91l-18.3 53 19.1 73h-9l-19.6-72.3L375.7 91h9m-25.9-57.2h-13V219h13v-59.6l15.8 58.2.4 1.5h13.1l-.7-2.5-18.9-72.4 18.1-52.4.9-2.7h-13.2l-.5 1.3-15 42.9V33.8z"/><path class="st1" d="M404.9 219c-11.2 0-13.5-6.7-13.5-12.3v-47.9c0-12.9 6.7-18.6 21.8-18.6h3v-35.4c0-4.2-2.1-6.3-6.5-6.3-5 0-7.3 1.9-7.3 6.3v23.1h-11.1v-25.1c0-9.3 6-13.8 18.3-13.8 11.8 0 17.6 4.5 17.6 13.8V218h-11v-4.4c-2 3-5.1 5.4-11.3 5.4zm9.7-69.2c-8 0-12.3 1.7-12.3 10.5v44.4c0 2.2.7 4.8 5.8 4.8 4.6 0 8-5.4 8-12.8v-46.9h-1.5z"/><path class="st2" d="M409.6 90c9.8 0 16.6 3 16.6 12.8V217h-9v-6.3h-.5c-1.8 3.8-4.5 7.3-11.8 7.3-6.8 0-12.5-2.5-12.5-11.3v-47.9c0-11 4.8-17.6 20.8-17.6h4v-36.4c0-4-1.8-7.3-7.5-7.3-6.5 0-8.3 3.3-8.3 7.3v22.1h-9.1v-24.1c0-9.8 7-12.8 17.3-12.8m-1.5 120.5c5.3 0 9-6 9-13.8v-47.9h-2.5c-8.5 0-13.3 2-13.3 11.5v44.4c0 3.5 1.8 5.8 6.8 5.8M409.6 88c-4.8 0-19.3 0-19.3 14.8v26.1h13.1v-24.1c0-2.8.8-5.3 6.3-5.3 3.9 0 5.5 1.6 5.5 5.3v34.4h-2c-15.6 0-22.8 6.2-22.8 19.6v47.9c0 6.1 2.5 13.3 14.5 13.3 5 0 8.2-1.5 10.3-3.6v2.6h13V102.8c0-9.8-6.3-14.8-18.6-14.8zm-1.5 120.5c-4.4 0-4.8-2-4.8-3.8v-44.4c0-7.3 2.6-9.5 11.3-9.5h.5v45.9c0 6.7-3 11.8-7 11.8z"/></g><g class="st0"><path class="st1" d="M239.5 279l-6.6-32.3h6.2l3.7 19.8 3.6-19.8h6.2L246 279z"/><path class="st2" d="M251.4 247.7l-6.2 30.3h-4.9l-6.2-30.3h4.2l4.4 24.1h.1l4.4-24.1h4.2m2.5-2h-8.4l-.3 1.6-2.5 13.6-2.5-13.6-.3-1.6h-8.4l.5 2.4 6.2 30.3.3 1.6h8.1l.3-1.6 6.2-30.3.8-2.4z"/><path class="st1" d="M262.4 279l-1.4-7.7h-5l-1.4 7.7h-6.3l7.1-32.3h6.5l6.6 32.3h-6.1zm-2.5-13.3l-1.5-8.2-1.5 8.2h3z"/><path class="st2" d="M261.2 247.7l6.2 30.3h-4.2l-1.4-7.7h-6.6l-1.4 7.7h-4.2l6.7-30.3h4.9m-5.4 19h5.3l-2.6-14.6h-.1l-2.6 14.6m7-21h-8.1l-.3 1.6-6.7 30.3-.5 2.4h8.4l.3-1.6 1.1-6.1h3.3l1.1 6.1.3 1.6h8.4l-.5-2.4-6.2-30.3-.6-1.6zm-4.6 19l.3-1.5.3 1.5h-.6z"/><path class="st1" d="M268.3 279v-32.3h7.9c6.6 0 7.8 2.5 7.8 9.6s-1.2 9.6-7.8 9.6h-1.7V279h-6.2zm7.4-18.7c2.2 0 2.2 0 2.2-4s0-4-2.2-4h-1.2v8h1.2z"/><path class="st2" d="M276.2 247.7c5.7 0 6.8 1.6 6.8 8.6s-1.1 8.6-6.8 8.6h-2.7V278h-4.2v-30.3h6.9m-2.7 13.6h2.2c2.9 0 3.2-.5 3.2-5s-.3-5-3.2-5h-2.2v10m2.7-15.6h-8.9V280h8.2v-13.1h.7c7.5 0 8.8-3.4 8.8-10.6s-1.3-10.6-8.8-10.6zm-.7 7.6h1.2c.2.6.2 2.3.2 3s0 2.3-.2 3h-1.2v-6z"/><path class="st1" d="M284.7 279v-32.3h13.4v5.5h-7.2v7.5h6.8v5.5h-6.8v8.3h7.2v5.5z"/><path class="st2" d="M297.1 247.7v3.5h-7.2v9.5h6.8v3.5h-6.8v10.3h7.2v3.5h-11.4v-30.3h11.4m2-2h-15.4V280h15.4v-7.5h-7.2v-6.3h6.8v-7.5h-6.8v-5.5h7.2v-7.5z"/><path class="st1" d="M305.6 279.1v-32.4h8.4c6 0 7 2.6 7 8.4 0 4.1-.5 6.2-1.9 7.3 1.8 1.1 2.1 3.2 2.1 7 0 6.6-.8 9.7-8 9.7h-7.6zm7.9-5.4c1.5 0 1.8 0 1.8-4.5 0-4.3-.3-4.3-1.7-4.3h-1.7v8.8h1.6zm-.2-14c1.7 0 1.8 0 1.8-4.5 0-3.3-.4-3.3-2.2-3.3h-1v7.8h1.4z"/><path class="st2" d="M314 247.7c5.2 0 6 1.8 6 7.4 0 6-1 6.9-3.8 7.3v.1c3.4.6 4 1.8 4 6.9 0 6.6-.8 8.7-7 8.7h-6.6v-30.4h7.4m-3.1 13h2.4c2.5 0 2.8-.5 2.8-5.5 0-3.4-.5-4.3-3.2-4.3h-2v9.8m0 14h2.6c2.4 0 2.8-.7 2.8-5.5 0-4.6-.4-5.3-2.7-5.3h-2.7v10.8m3.1-29h-9.4v34.4h8.6c8.4 0 9-4.4 9-10.7 0-3-.2-5.5-1.7-7 1.2-1.5 1.5-3.9 1.5-7.3 0-6.2-1.2-9.4-8-9.4zm-1.1 13v-5.8c.6 0 .9.1 1 .1.1.2.2.7.2 2.2 0 .8 0 2.7-.2 3.5h-1zm0 7.2h1.2c.1.4.2 1.3.2 3.3 0 1.8-.1 3-.2 3.5h-1.2v-6.8z"/><path class="st1" d="M334.5 279l-1.4-7.7h-4.9l-1.4 7.7h-6.3l7.1-32.3h6.5l6.6 32.3h-6.2zm-2.5-13.3l-1.5-8.2-1.5 8.2h3z"/><path class="st2" d="M333.3 247.7l6.2 30.3h-4.2l-1.4-7.7h-6.6l-1.4 7.7h-4.2l6.7-30.3h4.9m-5.4 19h5.3l-2.6-14.6h-.1l-2.6 14.6m7-21h-8.1l-.3 1.6-6.7 30.3-.5 2.4h8.4l.3-1.6 1.1-6.1h3.3l1.1 6.1.3 1.6h8.4l-.5-2.4-6.2-30.3-.6-1.6zm-4.6 19l.3-1.5.3 1.5h-.6z"/><path class="st1" d="M350.3 279.1l-.3-.6c-.5-1-.6-1.9-.6-3.1v-6.8c0-2.5-.2-2.6-2.3-2.6h-.4v13h-6.2v-32.3h7.4c7.1 0 7.8 2.6 7.8 9.3 0 3.3-.4 5.4-2.3 6.8 1.8 1.1 2.1 3.1 2.1 4.8v6.6c0 1 0 2.5.3 3.7l.3 1.2h-5.8zm-3.5-18.8c2.6 0 2.8 0 2.8-4.2 0-3.9 0-3.9-1.9-3.9h-1l.1 8.1z"/><path class="st2" d="M347.9 247.7c6.1 0 6.8 1.6 6.8 8.3 0 4.1-.5 5.8-4 6.9v.1c2.9.3 3.8 1.8 3.8 4.6v6.6c0 1.1 0 2.6.3 3.9h-3.9c-.4-.8-.5-1.5-.5-2.7v-6.8c0-2.9-.5-3.6-3.3-3.6h-1.4v13h-4.2v-30.3h6.4m-2.2 13.6h1.1c3.3 0 3.8-.6 3.8-5.2 0-4.5-.3-4.9-2.9-4.9h-2v10.1m2.2-15.6h-8.4V280h8.2v-13c.3 0 .5 0 .6.1 0 .2.1.6.1 1.5v6.8c0 1.4.1 2.4.7 3.6l.6 1.1h7.6l-.6-2.4c-.2-1.1-.2-2.4-.2-3.5v-6.6c0-1 0-3.3-1.6-4.9 1.6-1.7 1.8-4 1.8-6.7 0-7-.9-10.3-8.8-10.3zm-.2 13.6v-6.1h.8c.1.7.1 2.3.1 2.9 0 2-.1 2.8-.2 3.1-.1 0-.3 0-.7.1z"/></g><path class="st1" d="M-1 259.5h210v4H-1z"/><path class="st2" d="M208 260.5v2H0v-2h208m2-2H-2v6h212v-6z"/><path class="st1" d="M382 259.5h210v4H382z"/><path class="st2" d="M591 260.5v2H383v-2h208m2-2H381v6h212v-6z"/></svg>