<svg id="Layer_1" data-name="Layer 1" xmlns="http://www.w3.org/2000/svg" viewBox="0 0 519.95 500"><defs><style>.cls-1{fill:#775a3c}.cls-2{fill:#fff}.cls-3{fill:#a88a69}.cls-4{fill:#604530}.cls-5{fill:#e3cae2}.cls-6{fill:#60422c}.cls-7{fill:#ba9c80}</style></defs><title>VapeRay_logo</title><path class="cls-1" d="M353.38 123.13s0-13.86 2.26-20.63 13.78-16.13 26.74-4.5c12 10.79-4.19 26.43-12.57 26.75a68.78 68.78 0 0 1-16.43-1.62z"/><path class="cls-2" d="M346.61 341.16S335 340.3 335 320.11v-113s.86-15.47-24.06-15.47v-12.47s1.29-8.59-14.18-8.59v-53.71h-81.07v53.71c-15.47 0-14.18 8.59-14.18 8.59v12.46c-24.92 0-24.06 15.47-24.06 15.47v113c0 20.19-11.6 21.06-11.6 21.06l-35.23 9.45h251.22zM232.45 238.72h-43.83v-21.85a5.37 5.37 0 0 1 5.38-5.37h33.09a5.37 5.37 0 0 1 5.37 5.37zm21.2-57.19h-7a2.58 2.58 0 0 1 0-5.16h7a2.58 2.58 0 0 1 0 5.16zm11-5.16h29a3.54 3.54 0 0 1 0 7.09h-29a3.54 3.54 0 0 1 0-7.09zm8.06 53.34a6.93 6.93 0 0 1-13.86 0v-7.09a6.93 6.93 0 0 1 13.86 0zm50.6 9H279.5v-21.84a5.37 5.37 0 0 1 5.37-5.37H318a5.37 5.37 0 0 1 5.37 5.37z"/><path class="cls-3" d="M323.34 238.7v87a5.37 5.37 0 0 1-5.37 5.37H194a5.37 5.37 0 0 1-5.37-5.37v-87"/><path class="cls-4" d="M292.55 250.5c-11.17-5.59-12.88-9.38-13.07-11.78h-47v1s-2.09 7.57-11.76 13.05-16.92 4.67-16.92 28v50.27h104.9v-49.46s2.38-23.35-16.15-31.08z"/><rect class="cls-1" x="284.65" y="265.32" width="11.17" height="59.73" rx="5.37" ry="5.37"/><path class="cls-2" d="M73.68 433.41l-16.33-46H50.8v-9.27h28v9.27h-7.1L80.93 415l9.25-27.5h-7v-9.27h24.3v9.27h-6.67l-15.74 46zm86.5-9.62v9.27h-27v-9.27h7l-2.6-9.43h-14.2l-2.92 9.43h7.34v9.27h-24.3v-9.27h6.78L121 387.46h-7.3v-9.27h35.81v9.27h-7.38l11.52 36.33zm-24.81-17.47l-4.58-16.53-4.93 16.53zm56.05 17.47v9.27H162.5v-9.27h7v-36.33h-7v-9.27h28.91q10.09 0 15.6 4.73t5.5 12.74a17.79 17.79 0 0 1-1.93 8.3 14.84 14.84 0 0 1-5 5.72 18.61 18.61 0 0 1-6.9 2.72 53.94 53.94 0 0 1-9.72.73h-5.25v10.65zM183.77 404h2.13q7.34 0 9.45-2.39a8.64 8.64 0 0 0 2.11-5.94 8.76 8.76 0 0 0-1.46-5.11 6 6 0 0 0-3.35-2.6 27.35 27.35 0 0 0-6.19-.49h-2.68zm32.89 29.06v-9.27h6.59v-36.33h-6.59v-9.27H265v17.39h-10.47v-8.13h-17v12.66h13.73v9.27h-13.73v14.4h17v-8.21H265v17.47zm58.93 0v-13.22h13.18v13.21z"/><path class="cls-3" d="M355.5 423.79v9.27h-16.71L326.4 409h-6.28v14.75H327v9.27h-28.69v-9.27h7.53v-36.29h-7.53v-9.27h33.09q9.35 0 13.47 4.71a15.78 15.78 0 0 1 4.13 10.67q0 9.35-9.51 13.65l8.92 16.57zm-35.38-23.51H325q9.07 0 9.07-6.47A5.62 5.62 0 0 0 332 389a9.21 9.21 0 0 0-5.7-1.58h-6.19z"/><path class="cls-3" d="M411.83 423.79v9.27h-27v-9.27h7l-2.6-9.43H375l-2.92 9.43h7.34v9.27h-24.3v-9.27h6.79l10.69-36.33h-7.3v-9.27h35.81v9.27h-7.38l11.52 36.33zM387 406.31l-4.57-16.53-4.93 16.53zm36 26.75v-9.27h7.69V409l-14.87-21.5h-6.71v-9.27h27.49v9.27h-5.4l8.05 13.38 8.17-13.38h-5.66v-9.27h24.18v9.27h-6.74L445 409v14.83h7.65v9.27z"/><path class="cls-5" d="M423.86 238.86a36.51 36.51 0 0 0-23.39-34.07 46.85 46.85 0 0 0-60.21-66.91 51.14 51.14 0 0 0-89.21-49A58.43 58.43 0 0 0 146.72 125c0 1.19 0 2.37.12 3.54a58.43 58.43 0 0 0-48.49 85.36 46.82 46.82 0 0 0 31.26 77.19 44.1 44.1 0 0 0-.5 6.64c0 20.77 14.46 32.87 33.86 37.38V202.2s-.77-22.28 24.15-22.28v-10.78S185.45 159 203.77 159v-54.59h105V159c18.31 0 18.32 7.31 18.32 7.31s-1.56-1-1.56 13.64c27.23 0 24 22.28 24 22.28v132.84a25 25 0 0 0 27.8-5.28 23.64 23.64 0 0 0 6-9.83 25 25 0 0 0-.74-17.61 30 30 0 0 0 16.86-27c0-.68 0-1.35-.08-2a36.51 36.51 0 0 0 24.49-34.49z"/><path class="cls-3" d="M423.86 238.86a36.51 36.51 0 0 0-23.39-34.07 46.85 46.85 0 0 0-60.21-66.91 51.14 51.14 0 0 0-89.21-49A58.43 58.43 0 0 0 146.72 125c0 1.19 0 2.37.12 3.54a58.43 58.43 0 0 0-48.49 85.36 46.82 46.82 0 0 0 31.26 77.19 44.1 44.1 0 0 0-.5 6.64c0 20.77 14.46 32.87 33.86 37.38V202.2s-.77-22.28 24.15-22.28v-10.78S185.45 159 203.77 159v-54.59h105V159c18.31 0 18.32 7.31 18.32 7.31s-1.56-1-1.56 13.64c27.23 0 24 22.28 24 22.28v132.84a25 25 0 0 0 27.8-5.28 23.64 23.64 0 0 0 6-9.83 25 25 0 0 0-.74-17.61 30 30 0 0 0 16.86-27c0-.68 0-1.35-.08-2a36.51 36.51 0 0 0 24.49-34.49z"/><path class="cls-6" d="M349.48 335.07a25 25 0 0 0 27.8-5.28 23.64 23.64 0 0 0 6-9.83 25 25 0 0 0-.74-17.61 30 30 0 0 0 16.86-27c0-.68 0-1.35-.08-2a36.43 36.43 0 0 0 9.39-4.91v-9.77h-59.23z"/><path class="cls-1" d="M215.48 104.4c12.89-4.3 13.32-10.88 13.32-10.88s4.73-17.91-28.36-14.48-41.68 34.38-37.81 59.73c-88.09 1.29-64.27 75.15-64.27 75.15l-.2.24L90 237.61l8.15 31.8 31.25 14.93 9.58 25 15.48 5.66 7.76-131.49 26.41-26.21 15.14 1.7v-54.59"/><path class="cls-7" d="M117.51 258.66s-36.51-35.23 6.87-54.57c-.43-10.31 5.16-27.07 22.34-22.56 0 0-23.2 9.67-6.45 34.16.01 0-39.52-1.28-22.76 42.97z"/><path class="cls-1" d="M308.77 158.85v.11c18.29 0 19.7 8.28 19.7 8.28s-3-1.93-3 12.68c27.23 0 24 22.28 24 22.28v84.68l8.25 24.85h16.83l9-30 15.79-7.36v-1.05c.91-.31 1.8-.67 2.67-1l8.73-7a2 2 0 0 0 1.42.28 36.45 36.45 0 0 0 3-3.14c1.62-3.38 4.88-10.2 5.46-23.74 1.34-31.79-23.31-34-23.31-34s17.68-80-49.79-58.11c-3.76 1.22-19.39 17.18-17.14-1.19 3.87-25.35 4-63-29.09-66.39S273 93.53 273 93.53s1.28 6.58 14.17 10.88h21.63z"/><path class="cls-6" d="M187.12 179.92v-10.78S185.45 159 203.77 159c0 0-19.14-16.58-30 13.33-14.61 4.3-23.63 10.74-23.63 61.44v67.43s2.15 8.59-4.3 8.59-5.59-5.16-5.59-14.61v-19.44s-64.48 2.16-41.89-61.82a46.82 46.82 0 0 0 31.26 77.19 44.1 44.1 0 0 0-.5 6.64c0 20.77 14.46 32.87 33.86 37.38V202.2s-.79-22.28 24.14-22.28z"/><path class="cls-7" d="M396.37 258.66s36.52-35.24-6.88-54.57c.43-10.31-5.16-27.07-22.34-22.56 0 0 23.2 9.67 6.45 34.16 0 0 39.53-1.28 22.77 42.97z"/><path class="cls-6" d="M325.42 179.92v-10.78S327.08 159 308.77 159c0 0 19.14-16.58 30 13.33 14.61 4.3 23.63 10.74 23.63 61.44v67.43s-2.15 8.59 4.3 8.59 5.59-5.16 5.59-14.61v-19.44s62.71.61 40.12-63.37c9.33 9.12 13.12 20.43 13.12 32.11a46.84 46.84 0 0 1-42.61 46.64 44.08 44.08 0 0 1 .5 6.64c0 20.77-14.46 32.87-33.86 37.38V202.2s.78-22.28-24.14-22.28z"/><path class="cls-3" d="M382.38 98c-13-11.63-24.49-2.26-26.75 4.51a28.91 28.91 0 0 0-1 3.94c1.62-1.07 12.19-7.57 19.12.15a19.41 19.41 0 0 0 11.34 6.4c2.41-4.82 2.47-10.36-2.71-15z"/></svg>